<svg width="45" height="45" viewBox="0 0 45 45" fill="none" xmlns="http://www.w3.org/2000/svg">
<g id="cib:visual-studio-code" clip-path="url(#clip0_11001_216)">
<path id="Vector" d="M43.4048 4.84881L34.1475 0.395216C33.6239 0.141563 33.0343 0.0574004 32.4607 0.154435C31.887 0.251469 31.3579 0.524876 30.9469 0.936623L13.2155 17.1155L5.48811 11.2557C5.1401 10.9896 4.70974 10.8542 4.27208 10.8729C3.83443 10.8917 3.41724 11.0635 3.09327 11.3583L0.61827 13.614C0.424823 13.7888 0.270065 14.0021 0.163928 14.2403C0.0577912 14.4784 0.00262125 14.7361 0.00195916 14.9969C0.00129706 15.2576 0.0551575 15.5156 0.160083 15.7543C0.265009 15.993 0.418682 16.2071 0.611238 16.3829L7.31343 22.4987L0.611238 28.6144C0.418682 28.7902 0.265009 29.0043 0.160083 29.243C0.0551575 29.4817 0.00129706 29.7397 0.00195916 30.0004C0.00262125 30.2612 0.0577912 30.5189 0.163928 30.757C0.270065 30.9952 0.424823 31.2085 0.61827 31.3833L3.09327 33.639C3.41724 33.9338 3.83443 34.1056 4.27208 34.1244C4.70974 34.1431 5.1401 34.0077 5.48811 33.7416L13.2155 27.8748L30.9553 44.0607C31.3646 44.4728 31.8926 44.7465 32.4653 44.8436C33.0379 44.9407 33.6266 44.8562 34.1489 44.6021L43.4147 40.1415C43.8921 39.9127 44.2949 39.5531 44.5762 39.1046C44.8575 38.656 45.0057 38.1369 45.0037 37.6074V7.38006C45.0037 6.30287 44.3808 5.31428 43.4076 4.846L43.4048 4.84881ZM33.758 32.7179L20.2959 22.5001L33.758 12.2822V32.7179Z" fill="url(#paint0_radial_11001_216)"/>
</g>
<defs>
<radialGradient id="paint0_radial_11001_216" cx="0" cy="0" r="1" gradientUnits="userSpaceOnUse" gradientTransform="translate(22.5029 22.499) rotate(89.7323) scale(24.39 24.5174)">
<stop stop-color="#C7D7FF"/>
<stop offset="1" stop-color="#788199"/>
</radialGradient>
<clipPath id="clip0_11001_216">
<rect width="45" height="45" fill="white"/>
</clipPath>
</defs>
</svg>
