<svg width="96" height="67" viewBox="0 0 96 67" fill="none" xmlns="http://www.w3.org/2000/svg">
<g id="logos:youtube-icon" clip-path="url(#clip0_11001_74)">
<path id="Vector" d="M93.8798 10.4501C93.3292 8.4303 92.2551 6.58887 90.7645 5.10923C89.2738 3.62958 87.4187 2.56335 85.3838 2.0167C77.9341 0 47.9513 0 47.9513 0C47.9513 0 17.9671 0.0610443 10.5173 2.07774C8.48238 2.62443 6.62723 3.69072 5.13661 5.17043C3.64599 6.65014 2.5719 8.49164 2.02132 10.5116C-0.232053 23.6503 -1.10618 43.6706 2.0832 56.2837C2.63384 58.3036 3.70795 60.145 5.19857 61.6246C6.68918 63.1043 8.5443 64.1705 10.5792 64.7172C18.0289 66.7339 48.0125 66.7339 48.0125 66.7339C48.0125 66.7339 77.9956 66.7339 85.4449 64.7172C87.4799 64.1706 89.3351 63.1044 90.8258 61.6247C92.3165 60.1451 93.3906 58.3036 93.9413 56.2837C96.3181 43.1264 97.0504 23.1183 93.8798 10.4501Z" fill="#FF0000"/>
<path id="Vector_2" d="M38.4082 47.6667L63.2812 33.3667L38.4082 19.0667V47.6667Z" fill="white"/>
</g>
<defs>
<clipPath id="clip0_11001_74">
<rect width="96" height="67" fill="white"/>
</clipPath>
</defs>
</svg>
