<svg width="96" height="20" viewBox="0 0 96 20" fill="none" xmlns="http://www.w3.org/2000/svg">
<path d="M93.4638 19.6319V7.36207H95.6376V19.6319H93.4638ZM94.5507 5.1535C94.1482 5.1535 93.806 5.01035 93.5242 4.72406C93.2425 4.43776 93.1016 4.09012 93.1016 3.68112C93.1016 3.25849 93.2425 2.91085 93.5242 2.63819C93.806 2.35189 94.1482 2.20874 94.5507 2.20874C94.9667 2.20874 95.3088 2.35189 95.5772 2.63819C95.859 2.91085 95.9998 3.25849 95.9998 3.68112C95.9998 4.09012 95.859 4.43776 95.5772 4.72406C95.3088 5.01035 94.9667 5.1535 94.5507 5.1535Z" fill="white"/>
<path d="M93.4638 19.6319V7.36207H95.6376V19.6319H93.4638ZM94.5507 5.1535C94.1482 5.1535 93.806 5.01035 93.5242 4.72406C93.2425 4.43776 93.1016 4.09012 93.1016 3.68112C93.1016 3.25849 93.2425 2.91085 93.5242 2.63819C93.806 2.35189 94.1482 2.20874 94.5507 2.20874C94.9667 2.20874 95.3088 2.35189 95.5772 2.63819C95.859 2.91085 95.9998 3.25849 95.9998 3.68112C95.9998 4.09012 95.859 4.43776 95.5772 4.72406C95.3088 5.01035 94.9667 5.1535 94.5507 5.1535Z" fill="white"/>
<path d="M83.352 19.7953C82.2517 19.7953 81.2453 19.5158 80.3329 18.9568C79.4205 18.3843 78.6892 17.6208 78.1391 16.6665C77.6023 15.7122 77.334 14.6556 77.334 13.4968C77.334 12.3379 77.6023 11.2814 78.1391 10.3271C78.6892 9.37273 79.4205 8.61609 80.3329 8.05713C81.2453 7.48454 82.2517 7.19824 83.352 7.19824C84.1839 7.19824 84.9621 7.35502 85.6867 7.66859C86.4247 7.98215 87.062 8.41841 87.5988 8.97737V7.36184H89.6115V19.6317H87.5988V18.0162C87.062 18.5615 86.4247 18.9977 85.6867 19.3249C84.9621 19.6385 84.1839 19.7953 83.352 19.7953ZM83.6337 17.7912C84.3986 17.7912 85.0896 17.6003 85.7068 17.2186C86.3375 16.8233 86.8339 16.3052 87.1962 15.6644C87.5719 15.01 87.7598 14.2875 87.7598 13.4968C87.7598 12.706 87.5719 11.9903 87.1962 11.3495C86.8339 10.6951 86.3375 10.1771 85.7068 9.79536C85.0896 9.4 84.3986 9.20232 83.6337 9.20232C82.8689 9.20232 82.1712 9.4 81.5405 9.79536C80.9233 10.1771 80.4268 10.6951 80.0511 11.3495C79.6888 11.9903 79.5077 12.706 79.5077 13.4968C79.5077 14.2875 79.6888 15.01 80.0511 15.6644C80.4268 16.3052 80.9233 16.8233 81.5405 17.2186C82.1712 17.6003 82.8689 17.7912 83.6337 17.7912Z" fill="white"/>
<path d="M83.352 19.7953C82.2517 19.7953 81.2453 19.5158 80.3329 18.9568C79.4205 18.3843 78.6892 17.6208 78.1391 16.6665C77.6023 15.7122 77.334 14.6556 77.334 13.4968C77.334 12.3379 77.6023 11.2814 78.1391 10.3271C78.6892 9.37273 79.4205 8.61609 80.3329 8.05713C81.2453 7.48454 82.2517 7.19824 83.352 7.19824C84.1839 7.19824 84.9621 7.35502 85.6867 7.66859C86.4247 7.98215 87.062 8.41841 87.5988 8.97737V7.36184H89.6115V19.6317H87.5988V18.0162C87.062 18.5615 86.4247 18.9977 85.6867 19.3249C84.9621 19.6385 84.1839 19.7953 83.352 19.7953ZM83.6337 17.7912C84.3986 17.7912 85.0896 17.6003 85.7068 17.2186C86.3375 16.8233 86.8339 16.3052 87.1962 15.6644C87.5719 15.01 87.7598 14.2875 87.7598 13.4968C87.7598 12.706 87.5719 11.9903 87.1962 11.3495C86.8339 10.6951 86.3375 10.1771 85.7068 9.79536C85.0896 9.4 84.3986 9.20232 83.6337 9.20232C82.8689 9.20232 82.1712 9.4 81.5405 9.79536C80.9233 10.1771 80.4268 10.6951 80.0511 11.3495C79.6888 11.9903 79.5077 12.706 79.5077 13.4968C79.5077 14.2875 79.6888 15.01 80.0511 15.6644C80.4268 16.3052 80.9233 16.8233 81.5405 17.2186C82.1712 17.6003 82.8689 17.7912 83.6337 17.7912Z" fill="white"/>
<path d="M75.5816 19.8772C75.1388 19.8772 74.7631 19.7272 74.4545 19.4273C74.1593 19.1137 74.0117 18.732 74.0117 18.2821C74.0117 17.8322 74.1593 17.4573 74.4545 17.1574C74.7631 16.8438 75.1388 16.687 75.5816 16.687C76.0378 16.687 76.4135 16.8438 76.7087 17.1574C77.0039 17.4573 77.1515 17.8322 77.1515 18.2821C77.1515 18.732 77.0039 19.1137 76.7087 19.4273C76.4135 19.7272 76.0378 19.8772 75.5816 19.8772Z" fill="white"/>
<path d="M75.5816 19.8772C75.1388 19.8772 74.7631 19.7272 74.4545 19.4273C74.1593 19.1137 74.0117 18.732 74.0117 18.2821C74.0117 17.8322 74.1593 17.4573 74.4545 17.1574C74.7631 16.8438 75.1388 16.687 75.5816 16.687C76.0378 16.687 76.4135 16.8438 76.7087 17.1574C77.0039 17.4573 77.1515 17.8322 77.1515 18.2821C77.1515 18.732 77.0039 19.1137 76.7087 19.4273C76.4135 19.7272 76.0378 19.8772 75.5816 19.8772Z" fill="white"/>
<path d="M69.3381 19.6318L64.3466 12.8833L68.4525 7.36191H71.8942L67.8688 12.6175L73.1018 19.6318H69.3381ZM61.3477 19.6318V0H64.5076V19.6318H61.3477Z" fill="white"/>
<path d="M69.3381 19.6318L64.3466 12.8833L68.4525 7.36191H71.8942L67.8688 12.6175L73.1018 19.6318H69.3381ZM61.3477 19.6318V0H64.5076V19.6318H61.3477Z" fill="white"/>
<path d="M56.8515 19.9999C56.0867 19.9999 55.3017 19.8704 54.4966 19.6114C53.6916 19.3387 53.0475 18.957 52.5645 18.4662L53.3695 15.3578C53.7587 15.9304 54.282 16.4212 54.9394 16.8302C55.6103 17.2256 56.3014 17.4233 57.0125 17.4233C57.5492 17.4233 57.9384 17.3142 58.1799 17.0961C58.4348 16.8643 58.5623 16.5848 58.5623 16.2576C58.5623 15.8895 58.4348 15.6237 58.1799 15.4601C57.925 15.2829 57.67 15.1465 57.4151 15.0511L55.7445 14.4172C55.3957 14.2672 54.9864 14.0695 54.5168 13.8241C54.0471 13.5651 53.6379 13.2038 53.289 12.7403C52.9536 12.2631 52.7859 11.6428 52.7859 10.8793C52.7859 10.1841 52.9536 9.5433 53.289 8.95707C53.6245 8.37085 54.1075 7.9005 54.7382 7.54604C55.3822 7.17794 56.1538 6.9939 57.0528 6.9939C57.8579 6.9939 58.6227 7.13704 59.3473 7.42334C60.0853 7.696 60.6421 8.03683 61.0178 8.44583L60.2731 11.4724C59.8437 10.8725 59.3271 10.409 58.7233 10.0818C58.1195 9.74098 57.5358 9.57056 56.9723 9.57056C56.5026 9.57056 56.1538 9.67963 55.9257 9.89776C55.6976 10.1023 55.5835 10.3477 55.5835 10.634C55.5835 10.8521 55.664 11.0566 55.825 11.2474C55.986 11.4383 56.2477 11.6019 56.61 11.7382L58.1799 12.3517C58.5959 12.5017 59.0521 12.713 59.5485 12.9857C60.045 13.2447 60.4677 13.6128 60.8165 14.09C61.1788 14.5671 61.36 15.2215 61.36 16.0531C61.36 17.2256 60.9373 18.1799 60.092 18.9161C59.26 19.6387 58.1799 19.9999 56.8515 19.9999Z" fill="white"/>
<path d="M56.8515 19.9999C56.0867 19.9999 55.3017 19.8704 54.4966 19.6114C53.6916 19.3387 53.0475 18.957 52.5645 18.4662L53.3695 15.3578C53.7587 15.9304 54.282 16.4212 54.9394 16.8302C55.6103 17.2256 56.3014 17.4233 57.0125 17.4233C57.5492 17.4233 57.9384 17.3142 58.1799 17.0961C58.4348 16.8643 58.5623 16.5848 58.5623 16.2576C58.5623 15.8895 58.4348 15.6237 58.1799 15.4601C57.925 15.2829 57.67 15.1465 57.4151 15.0511L55.7445 14.4172C55.3957 14.2672 54.9864 14.0695 54.5168 13.8241C54.0471 13.5651 53.6379 13.2038 53.289 12.7403C52.9536 12.2631 52.7859 11.6428 52.7859 10.8793C52.7859 10.1841 52.9536 9.5433 53.289 8.95707C53.6245 8.37085 54.1075 7.9005 54.7382 7.54604C55.3822 7.17794 56.1538 6.9939 57.0528 6.9939C57.8579 6.9939 58.6227 7.13704 59.3473 7.42334C60.0853 7.696 60.6421 8.03683 61.0178 8.44583L60.2731 11.4724C59.8437 10.8725 59.3271 10.409 58.7233 10.0818C58.1195 9.74098 57.5358 9.57056 56.9723 9.57056C56.5026 9.57056 56.1538 9.67963 55.9257 9.89776C55.6976 10.1023 55.5835 10.3477 55.5835 10.634C55.5835 10.8521 55.664 11.0566 55.825 11.2474C55.986 11.4383 56.2477 11.6019 56.61 11.7382L58.1799 12.3517C58.5959 12.5017 59.0521 12.713 59.5485 12.9857C60.045 13.2447 60.4677 13.6128 60.8165 14.09C61.1788 14.5671 61.36 15.2215 61.36 16.0531C61.36 17.2256 60.9373 18.1799 60.092 18.9161C59.26 19.6387 58.1799 19.9999 56.8515 19.9999Z" fill="white"/>
<path d="M45.7797 19.9181C44.6794 19.9181 43.6731 19.6318 42.7606 19.0592C41.8482 18.473 41.1169 17.6959 40.5668 16.728C40.0301 15.7464 39.7617 14.6694 39.7617 13.4969C39.7617 12.3244 40.0301 11.2542 40.5668 10.2863C41.1169 9.3047 41.8482 8.52762 42.7606 7.95502C43.6731 7.3688 44.6794 7.07568 45.7797 7.07568C46.5714 7.07568 47.3026 7.21883 47.9735 7.50513C48.6444 7.79142 49.2147 8.1936 49.6843 8.71166V7.36198H52.4417V19.6318H49.6843V18.2821C49.2147 18.7866 48.6444 19.1887 47.9735 19.4887C47.3026 19.775 46.5714 19.9181 45.7797 19.9181ZM46.1621 17.0756C46.8062 17.0756 47.3832 16.912 47.893 16.5848C48.4163 16.2576 48.8323 15.8282 49.1409 15.2965C49.4495 14.7512 49.6038 14.1513 49.6038 13.4969C49.6038 12.8425 49.4495 12.2495 49.1409 11.7178C48.8323 11.1724 48.4163 10.7362 47.893 10.409C47.3832 10.0818 46.8129 9.9182 46.1822 9.9182C45.5382 9.9182 44.9545 10.0818 44.4312 10.409C43.9213 10.7362 43.5121 11.1724 43.2034 11.7178C42.8948 12.2495 42.7405 12.8425 42.7405 13.4969C42.7405 14.1513 42.8948 14.7512 43.2034 15.2965C43.5121 15.8282 43.9213 16.2576 44.4312 16.5848C44.9545 16.912 45.5315 17.0756 46.1621 17.0756Z" fill="white"/>
<path d="M45.7797 19.9181C44.6794 19.9181 43.6731 19.6318 42.7606 19.0592C41.8482 18.473 41.1169 17.6959 40.5668 16.728C40.0301 15.7464 39.7617 14.6694 39.7617 13.4969C39.7617 12.3244 40.0301 11.2542 40.5668 10.2863C41.1169 9.3047 41.8482 8.52762 42.7606 7.95502C43.6731 7.3688 44.6794 7.07568 45.7797 7.07568C46.5714 7.07568 47.3026 7.21883 47.9735 7.50513C48.6444 7.79142 49.2147 8.1936 49.6843 8.71166V7.36198H52.4417V19.6318H49.6843V18.2821C49.2147 18.7866 48.6444 19.1887 47.9735 19.4887C47.3026 19.775 46.5714 19.9181 45.7797 19.9181ZM46.1621 17.0756C46.8062 17.0756 47.3832 16.912 47.893 16.5848C48.4163 16.2576 48.8323 15.8282 49.1409 15.2965C49.4495 14.7512 49.6038 14.1513 49.6038 13.4969C49.6038 12.8425 49.4495 12.2495 49.1409 11.7178C48.8323 11.1724 48.4163 10.7362 47.893 10.409C47.3832 10.0818 46.8129 9.9182 46.1822 9.9182C45.5382 9.9182 44.9545 10.0818 44.4312 10.409C43.9213 10.7362 43.5121 11.1724 43.2034 11.7178C42.8948 12.2495 42.7405 12.8425 42.7405 13.4969C42.7405 14.1513 42.8948 14.7512 43.2034 15.2965C43.5121 15.8282 43.9213 16.2576 44.4312 16.5848C44.9545 16.912 45.5315 17.0756 46.1621 17.0756Z" fill="white"/>
<path d="M30.3672 4.23316V1.22705H42.7856V4.23316H38.257V19.6318H34.8958V4.23316H30.3672Z" fill="white"/>
<path d="M30.3672 4.23316V1.22705H42.7856V4.23316H38.257V19.6318H34.8958V4.23316H30.3672Z" fill="white"/>
<path d="M21.3012 19.7954C20.2009 19.7954 19.1946 19.5159 18.2821 18.9569C17.3697 18.3843 16.6384 17.6209 16.0883 16.6665C15.5516 15.7122 15.2832 14.6556 15.2832 13.4968C15.2832 12.338 15.5516 11.2814 16.0883 10.3271C16.6384 9.3728 17.3697 8.61616 18.2821 8.0572C19.1946 7.48461 20.2009 7.19831 21.3012 7.19831C22.0928 7.19831 22.8375 7.34146 23.5353 7.62775C24.233 7.91405 24.8502 8.30941 25.387 8.81384V0H27.5607V19.6318H25.548V18.0162C25.0113 18.5615 24.3739 18.9978 23.6359 19.325C22.9113 19.6386 22.1331 19.7954 21.3012 19.7954ZM21.583 17.7913C22.3478 17.7913 23.0388 17.6004 23.656 17.2187C24.2867 16.8233 24.7832 16.3053 25.1454 15.6645C25.5211 15.0101 25.709 14.2876 25.709 13.4968C25.709 12.7061 25.5211 11.9904 25.1454 11.3496C24.7832 10.6952 24.2867 10.1772 23.656 9.79543C23.0388 9.40007 22.3478 9.20238 21.583 9.20238C20.8181 9.20238 20.1204 9.40007 19.4898 9.79543C18.8725 10.1772 18.3761 10.6952 18.0004 11.3496C17.6381 11.9904 17.4569 12.7061 17.4569 13.4968C17.4569 14.2876 17.6381 15.0101 18.0004 15.6645C18.3761 16.3053 18.8725 16.8233 19.4898 17.2187C20.1204 17.6004 20.8181 17.7913 21.583 17.7913Z" fill="white"/>
<path d="M21.3012 19.7954C20.2009 19.7954 19.1946 19.5159 18.2821 18.9569C17.3697 18.3843 16.6384 17.6209 16.0883 16.6665C15.5516 15.7122 15.2832 14.6556 15.2832 13.4968C15.2832 12.338 15.5516 11.2814 16.0883 10.3271C16.6384 9.3728 17.3697 8.61616 18.2821 8.0572C19.1946 7.48461 20.2009 7.19831 21.3012 7.19831C22.0928 7.19831 22.8375 7.34146 23.5353 7.62775C24.233 7.91405 24.8502 8.30941 25.387 8.81384V0H27.5607V19.6318H25.548V18.0162C25.0113 18.5615 24.3739 18.9978 23.6359 19.325C22.9113 19.6386 22.1331 19.7954 21.3012 19.7954ZM21.583 17.7913C22.3478 17.7913 23.0388 17.6004 23.656 17.2187C24.2867 16.8233 24.7832 16.3053 25.1454 15.6645C25.5211 15.0101 25.709 14.2876 25.709 13.4968C25.709 12.7061 25.5211 11.9904 25.1454 11.3496C24.7832 10.6952 24.2867 10.1772 23.656 9.79543C23.0388 9.40007 22.3478 9.20238 21.583 9.20238C20.8181 9.20238 20.1204 9.40007 19.4898 9.79543C18.8725 10.1772 18.3761 10.6952 18.0004 11.3496C17.6381 11.9904 17.4569 12.7061 17.4569 13.4968C17.4569 14.2876 17.6381 15.0101 18.0004 15.6645C18.3761 16.3053 18.8725 16.8233 19.4898 17.2187C20.1204 17.6004 20.8181 17.7913 21.583 17.7913Z" fill="white"/>
<path d="M6.01798 19.7953C4.9177 19.7953 3.91135 19.5158 2.99893 18.9568C2.0865 18.3843 1.35522 17.6208 0.805081 16.6665C0.26836 15.7122 0 14.6556 0 13.4968C0 12.3379 0.26836 11.2814 0.805081 10.3271C1.35522 9.37273 2.0865 8.61609 2.99893 8.05713C3.91135 7.48454 4.9177 7.19824 6.01798 7.19824C6.8499 7.19824 7.62814 7.35502 8.35271 7.66859C9.0907 7.98215 9.72806 8.41841 10.2648 8.97737V7.36184H12.2775V19.6317H10.2648V18.0162C9.72806 18.5615 9.0907 18.9977 8.35271 19.3249C7.62814 19.6385 6.8499 19.7953 6.01798 19.7953ZM6.29976 17.7912C7.06458 17.7912 7.75561 17.6003 8.37284 17.2186C9.00349 16.8233 9.49995 16.3052 9.86224 15.6644C10.2379 15.01 10.4258 14.2875 10.4258 13.4968C10.4258 12.706 10.2379 11.9903 9.86224 11.3495C9.49995 10.6951 9.00349 10.1771 8.37284 9.79536C7.75561 9.4 7.06458 9.20232 6.29976 9.20232C5.53493 9.20232 4.83719 9.4 4.20655 9.79536C3.58932 10.1771 3.09285 10.6951 2.71715 11.3495C2.35486 11.9903 2.17372 12.706 2.17372 13.4968C2.17372 14.2875 2.35486 15.01 2.71715 15.6644C3.09285 16.3052 3.58932 16.8233 4.20655 17.2186C4.83719 17.6003 5.53493 17.7912 6.29976 17.7912Z" fill="white"/>
<path d="M6.01798 19.7953C4.9177 19.7953 3.91135 19.5158 2.99893 18.9568C2.0865 18.3843 1.35522 17.6208 0.805081 16.6665C0.26836 15.7122 0 14.6556 0 13.4968C0 12.3379 0.26836 11.2814 0.805081 10.3271C1.35522 9.37273 2.0865 8.61609 2.99893 8.05713C3.91135 7.48454 4.9177 7.19824 6.01798 7.19824C6.8499 7.19824 7.62814 7.35502 8.35271 7.66859C9.0907 7.98215 9.72806 8.41841 10.2648 8.97737V7.36184H12.2775V19.6317H10.2648V18.0162C9.72806 18.5615 9.0907 18.9977 8.35271 19.3249C7.62814 19.6385 6.8499 19.7953 6.01798 19.7953ZM6.29976 17.7912C7.06458 17.7912 7.75561 17.6003 8.37284 17.2186C9.00349 16.8233 9.49995 16.3052 9.86224 15.6644C10.2379 15.01 10.4258 14.2875 10.4258 13.4968C10.4258 12.706 10.2379 11.9903 9.86224 11.3495C9.49995 10.6951 9.00349 10.1771 8.37284 9.79536C7.75561 9.4 7.06458 9.20232 6.29976 9.20232C5.53493 9.20232 4.83719 9.4 4.20655 9.79536C3.58932 10.1771 3.09285 10.6951 2.71715 11.3495C2.35486 11.9903 2.17372 12.706 2.17372 13.4968C2.17372 14.2875 2.35486 15.01 2.71715 15.6644C3.09285 16.3052 3.58932 16.8233 4.20655 17.2186C4.83719 17.6003 5.53493 17.7912 6.29976 17.7912Z" fill="white"/>
</svg>
