<svg width="442" height="92" viewBox="0 0 442 92" fill="none" xmlns="http://www.w3.org/2000/svg">
<path d="M429.934 90.3058V33.8645H439.933V90.3058H429.934ZM434.934 23.7051C433.082 23.7051 431.508 23.0466 430.212 21.7296C428.916 20.4127 428.268 18.8135 428.268 16.9321C428.268 14.988 428.916 13.3889 430.212 12.1346C431.508 10.8177 433.082 10.1592 434.934 10.1592C436.847 10.1592 438.421 10.8177 439.655 12.1346C440.952 13.3889 441.6 14.988 441.6 16.9321C441.6 18.8135 440.952 20.4127 439.655 21.7296C438.421 23.0466 436.847 23.7051 434.934 23.7051Z" fill="#C5CDE3"/>
<path d="M383.421 91.0582C378.36 91.0582 373.73 89.7726 369.533 87.2014C365.336 84.5675 361.972 81.0556 359.442 76.6657C356.973 72.2758 355.738 67.4156 355.738 62.085C355.738 56.7544 356.973 51.8942 359.442 47.5043C361.972 43.1145 365.336 39.6339 369.533 37.0627C373.73 34.4288 378.36 33.1118 383.421 33.1118C387.248 33.1118 390.828 33.833 394.161 35.2754C397.556 36.7178 400.487 38.7246 402.956 41.2958V33.8644H412.215V90.3057H402.956V82.8742C400.487 85.3827 397.556 87.3895 394.161 88.8946C390.828 90.337 387.248 91.0582 383.421 91.0582ZM384.717 81.8395C388.235 81.8395 391.414 80.9615 394.253 79.2055C397.154 77.3869 399.438 75.0038 401.105 72.0563C402.833 69.0461 403.697 65.7223 403.697 62.085C403.697 58.4477 402.833 55.1553 401.105 52.2078C399.438 49.1976 397.154 46.8145 394.253 45.0586C391.414 43.2399 388.235 42.3306 384.717 42.3306C381.199 42.3306 377.989 43.2399 375.088 45.0586C372.249 46.8145 369.965 49.1976 368.237 52.2078C366.571 55.1553 365.737 58.4477 365.737 62.085C365.737 65.7223 366.571 69.0461 368.237 72.0563C369.965 75.0038 372.249 77.3869 375.088 79.2055C377.989 80.9615 381.199 81.8395 384.717 81.8395Z" fill="#C5CDE3"/>
<path d="M347.673 91.435C345.636 91.435 343.908 90.7451 342.488 89.3655C341.13 87.9231 340.451 86.1671 340.451 84.0976C340.451 82.0281 341.13 80.3035 342.488 78.9238C343.908 77.4814 345.636 76.7603 347.673 76.7603C349.771 76.7603 351.5 77.4814 352.857 78.9238C354.215 80.3035 354.894 82.0281 354.894 84.0976C354.894 86.1671 354.215 87.9231 352.857 89.3655C351.5 90.7451 349.771 91.435 347.673 91.435Z" fill="#C5CDE3"/>
<path d="M318.953 90.3061L295.992 59.2634L314.88 33.8648H330.711L312.195 58.0405L336.266 90.3061H318.953ZM282.197 90.3061V0H296.733V90.3061H282.197Z" fill="#C5CDE3"/>
<path d="M261.519 92.0006C258.001 92.0006 254.39 91.4049 250.687 90.2133C246.984 88.9591 244.021 87.2031 241.799 84.9455L245.502 70.647C247.292 73.2809 249.699 75.5386 252.724 77.42C255.81 79.2386 258.989 80.1479 262.26 80.1479C264.729 80.1479 266.519 79.6462 267.63 78.6428C268.803 77.5767 269.389 76.2911 269.389 74.786C269.389 73.0928 268.803 71.8699 267.63 71.1173C266.457 70.3021 265.284 69.6749 264.112 69.236L256.427 66.3198C254.822 65.63 252.94 64.7207 250.78 63.5918C248.619 62.4003 246.737 60.7384 245.132 58.6062C243.589 56.4112 242.817 53.5578 242.817 50.0459C242.817 46.8476 243.589 43.9001 245.132 41.2035C246.675 38.5068 248.897 36.3432 251.798 34.7127C254.761 33.0195 258.31 32.1729 262.445 32.1729C266.149 32.1729 269.667 32.8313 273 34.1483C276.394 35.4025 278.956 36.9704 280.684 38.8517L277.259 52.7739C275.283 50.0146 272.907 47.8823 270.13 46.3772C267.352 44.8094 264.667 44.0255 262.075 44.0255C259.914 44.0255 258.31 44.5272 257.26 45.5306C256.211 46.4713 255.686 47.6001 255.686 48.9171C255.686 49.9205 256.057 50.8612 256.797 51.7392C257.538 52.6171 258.742 53.3697 260.408 53.9968L267.63 56.8189C269.543 57.5087 271.642 58.4808 273.926 59.735C276.209 60.9265 278.154 62.6198 279.758 64.8147C281.425 67.0097 282.258 70.0199 282.258 73.8453C282.258 79.2386 280.314 83.6285 276.425 87.015C272.599 90.3387 267.63 92.0006 261.519 92.0006Z" fill="#C5CDE3"/>
<path d="M210.587 91.6236C205.526 91.6236 200.897 90.3066 196.699 87.6727C192.502 84.976 189.138 81.4014 186.608 76.9488C184.139 72.4335 182.904 67.4792 182.904 62.0859C182.904 56.6927 184.139 51.7697 186.608 47.3171C189.138 42.8018 192.502 39.2272 196.699 36.5933C200.897 33.8967 205.526 32.5483 210.587 32.5483C214.229 32.5483 217.593 33.2068 220.679 34.5238C223.765 35.8407 226.388 37.6908 228.548 40.0738V33.8653H241.232V90.3066H228.548V84.0981C226.388 86.4184 223.765 88.2684 220.679 89.6481C217.593 90.9651 214.229 91.6236 210.587 91.6236ZM212.346 78.548C215.309 78.548 217.963 77.7954 220.308 76.2903C222.716 74.7852 224.629 72.8098 226.049 70.364C227.468 67.8555 228.178 65.0961 228.178 62.0859C228.178 59.0757 227.468 56.3478 226.049 53.902C224.629 51.3935 222.716 49.3867 220.308 47.8816C217.963 46.3765 215.34 45.6239 212.439 45.6239C209.476 45.6239 206.791 46.3765 204.384 47.8816C202.038 49.3867 200.156 51.3935 198.736 53.902C197.317 56.3478 196.607 59.0757 196.607 62.0859C196.607 65.0961 197.317 67.8555 198.736 70.364C200.156 72.8098 202.038 74.7852 204.384 76.2903C206.791 77.7954 209.445 78.548 212.346 78.548Z" fill="#C5CDE3"/>
<path d="M139.688 19.4726V5.64453H196.812V19.4726H175.981V90.3065H160.519V19.4726H139.688Z" fill="#C5CDE3"/>
<path d="M97.9874 91.0586C92.9261 91.0586 88.2969 89.773 84.0997 87.2018C79.9026 84.5679 76.5387 81.056 74.0081 76.6661C71.5391 72.2762 70.3047 67.416 70.3047 62.0854C70.3047 56.7549 71.5391 51.8946 74.0081 47.5047C76.5387 43.1149 79.9026 39.6343 84.0997 37.0631C88.2969 34.4292 92.9261 33.1122 97.9874 33.1122C101.629 33.1122 105.055 33.7707 108.264 35.0877C111.474 36.4046 114.313 38.2233 116.782 40.5437V0H126.781V90.3061H117.523V82.8746C115.054 85.3831 112.122 87.3899 108.727 88.895C105.394 90.3374 101.814 91.0586 97.9874 91.0586ZM99.2836 81.8399C102.802 81.8399 105.98 80.9619 108.82 79.2059C111.721 77.3873 114.004 75.0042 115.671 72.0567C117.399 69.0465 118.263 65.7227 118.263 62.0854C118.263 58.4481 117.399 55.1557 115.671 52.2082C114.004 49.198 111.721 46.8149 108.82 45.059C105.98 43.2403 102.802 42.331 99.2836 42.331C95.7654 42.331 92.5558 43.2403 89.6548 45.059C86.8156 46.8149 84.5318 49.198 82.8036 52.2082C81.1371 55.1557 80.3038 58.4481 80.3038 62.0854C80.3038 65.7227 81.1371 69.0465 82.8036 72.0567C84.5318 75.0042 86.8156 77.3873 89.6548 79.2059C92.5558 80.9619 95.7654 81.8399 99.2836 81.8399Z" fill="#C5CDE3"/>
<path d="M27.6827 91.0582C22.6214 91.0582 17.9922 89.7726 13.7951 87.2014C9.5979 84.5675 6.23401 81.0556 3.70337 76.6657C1.23446 72.2758 0 67.4156 0 62.085C0 56.7544 1.23446 51.8942 3.70337 47.5043C6.23401 43.1145 9.5979 39.6339 13.7951 37.0627C17.9922 34.4288 22.6214 33.1118 27.6827 33.1118C31.5095 33.1118 35.0894 33.833 38.4225 35.2754C41.8172 36.7178 44.7491 38.7246 47.218 41.2958V33.8644H56.4764V90.3057H47.218V82.8742C44.7491 85.3827 41.8172 87.3895 38.4225 88.8946C35.0894 90.337 31.5095 91.0582 27.6827 91.0582ZM28.9789 81.8395C32.4971 81.8395 35.6758 80.9615 38.5151 79.2055C41.416 77.3869 43.6998 75.0038 45.3663 72.0563C47.0945 69.0461 47.9587 65.7223 47.9587 62.085C47.9587 58.4477 47.0945 55.1553 45.3663 52.2078C43.6998 49.1976 41.416 46.8145 38.5151 45.0586C35.6758 43.2399 32.4971 42.3306 28.9789 42.3306C25.4607 42.3306 22.2511 43.2399 19.3501 45.0586C16.5109 46.8145 14.2271 49.1976 12.4989 52.2078C10.8324 55.1553 9.9991 58.4477 9.9991 62.085C9.9991 65.7223 10.8324 69.0461 12.4989 72.0563C14.2271 75.0038 16.5109 77.3869 19.3501 79.2055C22.2511 80.9615 25.4607 81.8395 28.9789 81.8395Z" fill="#C5CDE3"/>
</svg>
