<svg width="469" height="94" viewBox="0 0 469 94" fill="none" xmlns="http://www.w3.org/2000/svg">
<g opacity="0.25">
<path d="M456.145 91.9182V34.4695H466.486V91.9182H456.145ZM461.316 24.1287C459.401 24.1287 457.773 23.4585 456.433 22.118C455.092 20.7776 454.422 19.1499 454.422 17.2349C454.422 15.2561 455.092 13.6284 456.433 12.3518C457.773 11.0113 459.401 10.3411 461.316 10.3411C463.294 10.3411 464.922 11.0113 466.199 12.3518C467.539 13.6284 468.21 15.2561 468.21 17.2349C468.21 19.1499 467.539 20.7776 466.199 22.118C464.922 23.4585 463.294 24.1287 461.316 24.1287Z" fill="url(#paint0_linear_11001_64)"/>
<path d="M408.043 92.684C402.808 92.684 398.021 91.3754 393.68 88.7583C389.34 86.0774 385.861 82.5028 383.244 78.0346C380.691 73.5664 379.414 68.6194 379.414 63.1937C379.414 57.768 380.691 52.821 383.244 48.3528C385.861 43.8845 389.34 40.3419 393.68 37.7248C398.021 35.0438 402.808 33.7034 408.043 33.7034C412 33.7034 415.702 34.4374 419.149 35.9056C422.66 37.3737 425.692 39.4163 428.245 42.0334V34.4694H437.82V91.918H428.245V84.3539C425.692 86.9072 422.66 88.9498 419.149 90.4818C415.702 91.9499 412 92.684 408.043 92.684ZM409.383 83.3007C413.022 83.3007 416.309 82.4071 419.245 80.6198C422.245 78.7687 424.607 76.343 426.33 73.3429C428.118 70.279 429.011 66.8959 429.011 63.1937C429.011 59.4914 428.118 56.1403 426.33 53.1402C424.607 50.0762 422.245 47.6506 419.245 45.8633C416.309 44.0122 413.022 43.0866 409.383 43.0866C405.745 43.0866 402.425 44.0122 399.425 45.8633C396.489 47.6506 394.127 50.0762 392.34 53.1402C390.617 56.1403 389.755 59.4914 389.755 63.1937C389.755 66.8959 390.617 70.279 392.34 73.3429C394.127 76.343 396.489 78.7687 399.425 80.6198C402.425 82.4071 405.745 83.3007 409.383 83.3007Z" fill="url(#paint1_linear_11001_64)"/>
<path d="M369.468 92.9367C367.362 92.9367 365.575 92.2345 364.106 90.8302C362.702 89.3621 362 87.5748 362 85.4683C362 83.3619 362.702 81.6065 364.106 80.2022C365.575 78.7341 367.362 78 369.468 78C371.639 78 373.426 78.7341 374.83 80.2022C376.235 81.6065 376.937 83.3619 376.937 85.4683C376.937 87.5748 376.235 89.3621 374.83 90.8302C373.426 92.2345 371.639 92.9367 369.468 92.9367Z" fill="url(#paint2_linear_11001_64)"/>
<path d="M338.473 91.9179L315.589 60.3211L334.451 34.4692H352.356L333.781 58.8849L358.101 91.9179H338.473ZM300.27 91.9179V0H316.93V91.9179H300.27Z" fill="url(#paint3_linear_11001_64)"/>
<path d="M278.024 93.8333C274.13 93.8333 270.172 93.1949 266.151 91.9183C262.193 90.6417 259.097 88.9182 256.863 86.7479L260.98 71.0453C262.832 73.5986 265.385 75.8327 268.64 77.7476C271.96 79.6626 275.375 80.6201 278.885 80.6201C281.247 80.6201 282.939 80.1732 283.96 79.2796C285.045 78.3859 285.588 77.3008 285.588 76.0242C285.588 74.556 285.045 73.5028 283.96 72.8645C282.875 72.1624 281.758 71.5879 280.609 71.141L272.566 68.0771C270.779 67.375 268.736 66.4175 266.438 65.2047C264.14 63.9919 262.129 62.2684 260.406 60.0343C258.746 57.8002 257.917 54.8639 257.917 51.2255C257.917 47.9062 258.746 44.8423 260.406 42.0337C262.066 39.2251 264.459 36.9591 267.587 35.2356C270.779 33.4483 274.609 32.5547 279.077 32.5547C283.226 32.5547 287.088 33.2568 290.662 34.6611C294.301 36.0654 296.95 37.6293 298.609 39.3528L294.779 54.4809C292.609 51.6723 290.024 49.534 287.024 48.0658C284.088 46.5339 281.279 45.7679 278.598 45.7679C276.555 45.7679 275.055 46.1828 274.098 47.0126C273.14 47.8424 272.662 48.7999 272.662 49.885C272.662 50.7148 272.981 51.5447 273.619 52.3745C274.321 53.1405 275.47 53.8426 277.066 54.4809L284.534 57.2576C286.705 58.0236 289.003 59.0449 291.428 60.3215C293.918 61.5982 296.024 63.3855 297.748 65.6834C299.471 67.9175 300.333 71.0134 300.333 74.9709C300.333 80.5243 298.258 85.0564 294.109 88.5671C290.024 92.0779 284.662 93.8333 278.024 93.8333Z" fill="url(#paint4_linear_11001_64)"/>
<path d="M223.842 93.4501C218.543 93.4501 213.724 92.0777 209.384 89.3329C205.043 86.5882 201.564 82.9498 198.947 78.4177C196.394 73.8218 195.117 68.7472 195.117 63.1938C195.117 57.6404 196.394 52.5658 198.947 47.9699C201.564 43.374 205.043 39.7356 209.384 37.0547C213.724 34.3099 218.543 32.9375 223.842 32.9375C227.544 32.9375 230.927 33.6077 233.991 34.9482C237.055 36.2248 239.672 38.0121 241.842 40.3101V34.4695H256.204V91.9181H241.842V86.0775C239.672 88.3755 237.055 90.1947 233.991 91.5351C230.927 92.8118 227.544 93.4501 223.842 93.4501ZM225.852 78.8007C228.661 78.8007 231.214 78.0985 233.512 76.6942C235.81 75.2899 237.629 73.4069 238.97 71.0451C240.374 68.6833 241.076 66.0662 241.076 63.1938C241.076 60.3214 240.374 57.7043 238.97 55.3425C237.629 52.9807 235.81 51.0977 233.512 49.6934C231.214 48.2891 228.661 47.5869 225.852 47.5869C223.044 47.5869 220.49 48.2891 218.192 49.6934C215.894 51.0977 214.043 52.9807 212.639 55.3425C211.299 57.7043 210.628 60.3214 210.628 63.1938C210.628 66.0662 211.299 68.6833 212.639 71.0451C214.043 73.4069 215.894 75.2899 218.192 76.6942C220.49 78.0985 223.044 78.8007 225.852 78.8007Z" fill="url(#paint5_linear_11001_64)"/>
<path d="M148.795 21.256V5.74487H208.733V21.256H187.669V91.9179H169.859V21.256H148.795Z" fill="url(#paint6_linear_11001_64)"/>
<path d="M105.865 92.6838C100.631 92.6838 95.8433 91.3753 91.5027 88.7582C87.1622 86.0773 83.6833 82.5027 81.0662 78.0344C78.513 73.5662 77.2363 68.6192 77.2363 63.1935C77.2363 57.7678 78.513 52.8209 81.0662 48.3526C83.6833 43.8844 87.1622 40.3417 91.5027 37.7246C95.8433 35.0437 100.631 33.7032 105.865 33.7032C109.631 33.7032 113.174 34.3735 116.493 35.7139C119.812 37.0544 122.748 38.9055 125.302 41.2673V0H135.642V91.9179H126.068V84.3538C123.514 86.9071 120.482 88.9497 116.972 90.4816C113.525 91.9498 109.822 92.6838 105.865 92.6838ZM107.205 83.3006C110.844 83.3006 114.131 82.4069 117.067 80.6196C120.068 78.7685 122.429 76.3429 124.153 73.3428C125.94 70.2789 126.834 66.8958 126.834 63.1935C126.834 59.4913 125.94 56.1401 124.153 53.14C122.429 50.0761 120.068 47.6505 117.067 45.8632C114.131 44.0121 110.844 43.0865 107.205 43.0865C103.567 43.0865 100.248 44.0121 97.2476 45.8632C94.3113 47.6505 91.9496 50.0761 90.1623 53.14C88.4388 56.1401 87.5771 59.4913 87.5771 63.1935C87.5771 66.8958 88.4388 70.2789 90.1623 73.3428C91.9496 76.3429 94.3113 78.7685 97.2476 80.6196C100.248 82.4069 103.567 83.3006 107.205 83.3006Z" fill="url(#paint7_linear_11001_64)"/>
<path d="M0 91.9177L36.4799 2.87231H36.6714L73.1513 91.9177H61.5658L51.4166 66.3531H21.256L11.011 91.9177H0ZM24.8944 57.2571H47.7781L40.98 40.214C40.1502 38.0437 39.3523 35.9053 38.5863 33.7988C37.8204 31.6924 37.0544 29.171 36.2884 26.2348C35.5224 29.171 34.7884 31.6924 34.0862 33.7988C33.3841 35.8415 32.5862 37.9798 31.6925 40.214L24.8944 57.2571Z" fill="url(#paint8_linear_11001_64)"/>
</g>
<defs>
<linearGradient id="paint0_linear_11001_64" x1="461.316" y1="10.3411" x2="461.316" y2="91.9182" gradientUnits="userSpaceOnUse">
<stop stop-color="#E2E8F8"/>
<stop offset="1" stop-color="#858992"/>
</linearGradient>
<linearGradient id="paint1_linear_11001_64" x1="408.617" y1="33.7034" x2="408.617" y2="92.684" gradientUnits="userSpaceOnUse">
<stop stop-color="#E2E8F8"/>
<stop offset="1" stop-color="#858992"/>
</linearGradient>
<linearGradient id="paint2_linear_11001_64" x1="369.468" y1="78" x2="369.468" y2="92.9367" gradientUnits="userSpaceOnUse">
<stop stop-color="#E2E8F8"/>
<stop offset="1" stop-color="#858992"/>
</linearGradient>
<linearGradient id="paint3_linear_11001_64" x1="329.185" y1="0" x2="329.185" y2="91.9179" gradientUnits="userSpaceOnUse">
<stop stop-color="#E2E8F8"/>
<stop offset="1" stop-color="#858992"/>
</linearGradient>
<linearGradient id="paint4_linear_11001_64" x1="278.598" y1="32.5547" x2="278.598" y2="93.8333" gradientUnits="userSpaceOnUse">
<stop stop-color="#E2E8F8"/>
<stop offset="1" stop-color="#858992"/>
</linearGradient>
<linearGradient id="paint5_linear_11001_64" x1="225.661" y1="32.9375" x2="225.661" y2="93.4501" gradientUnits="userSpaceOnUse">
<stop stop-color="#E2E8F8"/>
<stop offset="1" stop-color="#858992"/>
</linearGradient>
<linearGradient id="paint6_linear_11001_64" x1="178.764" y1="5.74487" x2="178.764" y2="91.9179" gradientUnits="userSpaceOnUse">
<stop stop-color="#E2E8F8"/>
<stop offset="1" stop-color="#858992"/>
</linearGradient>
<linearGradient id="paint7_linear_11001_64" x1="106.439" y1="0" x2="106.439" y2="92.6838" gradientUnits="userSpaceOnUse">
<stop stop-color="#E2E8F8"/>
<stop offset="1" stop-color="#858992"/>
</linearGradient>
<linearGradient id="paint8_linear_11001_64" x1="36.5757" y1="2.87231" x2="36.5757" y2="91.9177" gradientUnits="userSpaceOnUse">
<stop stop-color="#E2E8F8"/>
<stop offset="1" stop-color="#858992"/>
</linearGradient>
</defs>
</svg>
