<svg width="1440" height="7604" viewBox="0 0 1440 7604" fill="none" xmlns="http://www.w3.org/2000/svg">
<g clip-path="url(#clip0_21_8)">
<rect width="1440" height="7604" fill="#050506"/>
<g style="mix-blend-mode:overlay">
<mask id="mask0_21_8" style="mask-type:alpha" maskUnits="userSpaceOnUse" x="201" y="66" width="1038" height="868">
<g style="mix-blend-mode:soft-light">
<path d="M202 66.8945V933.105" stroke="#B3B3B3"/>
<path d="M259.555 66.8945V933.105" stroke="#B3B3B3"/>
<path d="M317.111 66.8945V933.105" stroke="#B3B3B3"/>
<path d="M374.668 66.8945V933.105" stroke="#B3B3B3"/>
<path d="M432.223 66.8945V933.105" stroke="#B3B3B3"/>
<path d="M489.777 66.8945V933.105" stroke="#B3B3B3"/>
<path d="M547.334 66.8945V933.105" stroke="#B3B3B3"/>
<path d="M604.889 66.8945V933.105" stroke="#B3B3B3"/>
<path d="M662.445 66.8945V933.105" stroke="#B3B3B3"/>
<path d="M720 66.8945V933.105" stroke="#B3B3B3"/>
<path d="M777.555 66.8945V933.105" stroke="#B3B3B3"/>
<path d="M835.111 66.8945V933.105" stroke="#B3B3B3"/>
<path d="M892.668 66.8945V933.105" stroke="#B3B3B3"/>
<path d="M950.223 66.8945V933.105" stroke="#B3B3B3"/>
<path d="M1007.78 66.8945V933.105" stroke="#B3B3B3"/>
<path d="M1065.33 66.8945V933.105" stroke="#B3B3B3"/>
<path d="M1122.89 66.8945V933.105" stroke="#B3B3B3"/>
<path d="M1180.45 66.8945V933.105" stroke="#B3B3B3"/>
<path d="M1238 66.8945V933.105" stroke="#B3B3B3"/>
<path d="M202 933.105H1238" stroke="#B3B3B3"/>
<path d="M202 884.983H1238" stroke="#B3B3B3"/>
<path d="M202 836.86H1238" stroke="#B3B3B3"/>
<path d="M202 788.737H1238" stroke="#B3B3B3"/>
<path d="M202 740.614H1238" stroke="#B3B3B3"/>
<path d="M202 692.491H1238" stroke="#B3B3B3"/>
<path d="M202 644.369H1238" stroke="#B3B3B3"/>
<path d="M202 596.246H1238" stroke="#B3B3B3"/>
<path d="M202 548.123H1238" stroke="#B3B3B3"/>
<path d="M202 500H1238" stroke="#B3B3B3"/>
<path d="M202 451.877H1238" stroke="#B3B3B3"/>
<path d="M202 403.754H1238" stroke="#B3B3B3"/>
<path d="M202 355.632H1238" stroke="#B3B3B3"/>
<path d="M202 307.509H1238" stroke="#B3B3B3"/>
<path d="M202 259.386H1238" stroke="#B3B3B3"/>
<path d="M202 211.263H1238" stroke="#B3B3B3"/>
<path d="M202 163.14H1238" stroke="#B3B3B3"/>
<path d="M202 115.018H1238" stroke="#B3B3B3"/>
<path d="M202 66.8945H1238" stroke="#B3B3B3"/>
</g>
</mask>
<g mask="url(#mask0_21_8)">
<g filter="url(#filter0_f_21_8)">
<circle cx="704" cy="578" r="523" fill="#D9D9D9"/>
</g>
</g>
</g>
<g style="mix-blend-mode:overlay">
<mask id="mask1_21_8" style="mask-type:alpha" maskUnits="userSpaceOnUse" x="403" y="6695" width="656" height="549">
<g style="mix-blend-mode:soft-light">
<path d="M404 6696V7242.82" stroke="#B3B3B3"/>
<path d="M440.332 6696V7242.82" stroke="#B3B3B3"/>
<path d="M476.666 6696V7242.82" stroke="#B3B3B3"/>
<path d="M513 6696V7242.82" stroke="#B3B3B3"/>
<path d="M549.334 6696V7242.82" stroke="#B3B3B3"/>
<path d="M585.666 6696V7242.82" stroke="#B3B3B3"/>
<path d="M622 6696V7242.82" stroke="#B3B3B3"/>
<path d="M658.334 6696V7242.82" stroke="#B3B3B3"/>
<path d="M694.666 6696V7242.82" stroke="#B3B3B3"/>
<path d="M731 6696V7242.82" stroke="#B3B3B3"/>
<path d="M767.334 6696V7242.82" stroke="#B3B3B3"/>
<path d="M803.666 6696V7242.82" stroke="#B3B3B3"/>
<path d="M840 6696V7242.82" stroke="#B3B3B3"/>
<path d="M876.334 6696V7242.82" stroke="#B3B3B3"/>
<path d="M912.668 6696V7242.82" stroke="#B3B3B3"/>
<path d="M949 6696V7242.82" stroke="#B3B3B3"/>
<path d="M985.334 6696V7242.82" stroke="#B3B3B3"/>
<path d="M1021.67 6696V7242.82" stroke="#B3B3B3"/>
<path d="M1058 6696V7242.82" stroke="#B3B3B3"/>
<path d="M404 7242.82H1058" stroke="#B3B3B3"/>
<path d="M404 7212.44H1058" stroke="#B3B3B3"/>
<path d="M404 7182.06H1058" stroke="#B3B3B3"/>
<path d="M404 7151.68H1058" stroke="#B3B3B3"/>
<path d="M404 7121.3H1058" stroke="#B3B3B3"/>
<path d="M404 7090.92H1058" stroke="#B3B3B3"/>
<path d="M404 7060.54H1058" stroke="#B3B3B3"/>
<path d="M404 7030.17H1058" stroke="#B3B3B3"/>
<path d="M404 6999.79H1058" stroke="#B3B3B3"/>
<path d="M404 6969.41H1058" stroke="#B3B3B3"/>
<path d="M404 6939.03H1058" stroke="#B3B3B3"/>
<path d="M404 6908.65H1058" stroke="#B3B3B3"/>
<path d="M404 6878.27H1058" stroke="#B3B3B3"/>
<path d="M404 6847.89H1058" stroke="#B3B3B3"/>
<path d="M404 6817.51H1058" stroke="#B3B3B3"/>
<path d="M404 6787.14H1058" stroke="#B3B3B3"/>
<path d="M404 6756.76H1058" stroke="#B3B3B3"/>
<path d="M404 6726.38H1058" stroke="#B3B3B3"/>
<path d="M404 6696H1058" stroke="#B3B3B3"/>
</g>
</mask>
<g mask="url(#mask1_21_8)">
<g filter="url(#filter1_f_21_8)">
<circle cx="720.901" cy="7018.65" r="330.156" fill="#D9D9D9"/>
</g>
</g>
</g>
<g filter="url(#filter2_f_21_8)">
<circle cx="60" cy="1455" r="315" fill="#263048"/>
</g>
<g style="mix-blend-mode:plus-lighter" filter="url(#filter3_f_21_8)">
<path d="M690.121 107H735.768L1059 602H349L690.121 107Z" fill="#263048"/>
</g>
<g style="mix-blend-mode:plus-lighter" filter="url(#filter4_f_21_8)">
<path d="M708.74 101H745.772L1008 632H432L708.74 101Z" fill="#0C0C0C"/>
</g>
<g style="mix-blend-mode:plus-lighter" filter="url(#filter5_f_21_8)">
<ellipse cx="709.5" cy="2179" rx="247.5" ry="119" fill="#D9D9D9"/>
<ellipse cx="709.5" cy="2179" rx="247.5" ry="119" fill="#263048"/>
</g>
<g style="mix-blend-mode:plus-lighter" filter="url(#filter6_f_21_8)">
<ellipse cx="720.5" cy="4388" rx="247.5" ry="119" fill="#D9D9D9"/>
<ellipse cx="720.5" cy="4388" rx="247.5" ry="119" fill="#263048"/>
</g>
<g style="mix-blend-mode:plus-lighter" filter="url(#filter7_f_21_8)">
<ellipse cx="720.5" cy="5462" rx="247.5" ry="119" fill="#D9D9D9"/>
<ellipse cx="720.5" cy="5462" rx="247.5" ry="119" fill="#263048"/>
</g>
<g style="mix-blend-mode:plus-lighter" filter="url(#filter8_f_21_8)">
<ellipse cx="414.5" cy="6289" rx="151.5" ry="73" fill="#D9D9D9"/>
<ellipse cx="414.5" cy="6289" rx="151.5" ry="73" fill="#263048"/>
</g>
<g style="mix-blend-mode:plus-lighter" filter="url(#filter9_f_21_8)">
<path d="M728.584 6764H766.13L1032 7203.26H448L728.584 6764Z" fill="#263048"/>
</g>
<g style="mix-blend-mode:plus-lighter" filter="url(#filter10_f_21_8)">
<path d="M675.177 6764H705.577L920.841 7235H448L675.177 6764Z" fill="#0C0C0C"/>
</g>
</g>
<defs>
<filter id="filter0_f_21_8" x="96.8" y="-29.2" width="1214.4" height="1214.4" filterUnits="userSpaceOnUse" color-interpolation-filters="sRGB">
<feFlood flood-opacity="0" result="BackgroundImageFix"/>
<feBlend mode="normal" in="SourceGraphic" in2="BackgroundImageFix" result="shape"/>
<feGaussianBlur stdDeviation="42.1" result="effect1_foregroundBlur_21_8"/>
</filter>
<filter id="filter1_f_21_8" x="306.544" y="6604.29" width="828.712" height="828.713" filterUnits="userSpaceOnUse" color-interpolation-filters="sRGB">
<feFlood flood-opacity="0" result="BackgroundImageFix"/>
<feBlend mode="normal" in="SourceGraphic" in2="BackgroundImageFix" result="shape"/>
<feGaussianBlur stdDeviation="42.1" result="effect1_foregroundBlur_21_8"/>
</filter>
<filter id="filter2_f_21_8" x="-1128.3" y="266.7" width="2376.6" height="2376.6" filterUnits="userSpaceOnUse" color-interpolation-filters="sRGB">
<feFlood flood-opacity="0" result="BackgroundImageFix"/>
<feBlend mode="normal" in="SourceGraphic" in2="BackgroundImageFix" result="shape"/>
<feGaussianBlur stdDeviation="436.65" result="effect1_foregroundBlur_21_8"/>
</filter>
<filter id="filter3_f_21_8" x="181.3" y="-60.7" width="1045.4" height="830.4" filterUnits="userSpaceOnUse" color-interpolation-filters="sRGB">
<feFlood flood-opacity="0" result="BackgroundImageFix"/>
<feBlend mode="normal" in="SourceGraphic" in2="BackgroundImageFix" result="shape"/>
<feGaussianBlur stdDeviation="83.85" result="effect1_foregroundBlur_21_8"/>
</filter>
<filter id="filter4_f_21_8" x="384.8" y="53.8" width="670.4" height="625.4" filterUnits="userSpaceOnUse" color-interpolation-filters="sRGB">
<feFlood flood-opacity="0" result="BackgroundImageFix"/>
<feBlend mode="normal" in="SourceGraphic" in2="BackgroundImageFix" result="shape"/>
<feGaussianBlur stdDeviation="23.6" result="effect1_foregroundBlur_21_8"/>
</filter>
<filter id="filter5_f_21_8" x="322.5" y="1920.5" width="774" height="517" filterUnits="userSpaceOnUse" color-interpolation-filters="sRGB">
<feFlood flood-opacity="0" result="BackgroundImageFix"/>
<feBlend mode="normal" in="SourceGraphic" in2="BackgroundImageFix" result="shape"/>
<feGaussianBlur stdDeviation="69.75" result="effect1_foregroundBlur_21_8"/>
</filter>
<filter id="filter6_f_21_8" x="333.5" y="4129.5" width="774" height="517" filterUnits="userSpaceOnUse" color-interpolation-filters="sRGB">
<feFlood flood-opacity="0" result="BackgroundImageFix"/>
<feBlend mode="normal" in="SourceGraphic" in2="BackgroundImageFix" result="shape"/>
<feGaussianBlur stdDeviation="69.75" result="effect1_foregroundBlur_21_8"/>
</filter>
<filter id="filter7_f_21_8" x="333.5" y="5203.5" width="774" height="517" filterUnits="userSpaceOnUse" color-interpolation-filters="sRGB">
<feFlood flood-opacity="0" result="BackgroundImageFix"/>
<feBlend mode="normal" in="SourceGraphic" in2="BackgroundImageFix" result="shape"/>
<feGaussianBlur stdDeviation="69.75" result="effect1_foregroundBlur_21_8"/>
</filter>
<filter id="filter8_f_21_8" x="123.5" y="6076.5" width="582" height="425" filterUnits="userSpaceOnUse" color-interpolation-filters="sRGB">
<feFlood flood-opacity="0" result="BackgroundImageFix"/>
<feBlend mode="normal" in="SourceGraphic" in2="BackgroundImageFix" result="shape"/>
<feGaussianBlur stdDeviation="69.75" result="effect1_foregroundBlur_21_8"/>
</filter>
<filter id="filter9_f_21_8" x="280.3" y="6596.3" width="919.4" height="774.657" filterUnits="userSpaceOnUse" color-interpolation-filters="sRGB">
<feFlood flood-opacity="0" result="BackgroundImageFix"/>
<feBlend mode="normal" in="SourceGraphic" in2="BackgroundImageFix" result="shape"/>
<feGaussianBlur stdDeviation="83.85" result="effect1_foregroundBlur_21_8"/>
</filter>
<filter id="filter10_f_21_8" x="400.8" y="6716.8" width="567.242" height="565.4" filterUnits="userSpaceOnUse" color-interpolation-filters="sRGB">
<feFlood flood-opacity="0" result="BackgroundImageFix"/>
<feBlend mode="normal" in="SourceGraphic" in2="BackgroundImageFix" result="shape"/>
<feGaussianBlur stdDeviation="23.6" result="effect1_foregroundBlur_21_8"/>
</filter>
<clipPath id="clip0_21_8">
<rect width="1440" height="7604" fill="white"/>
</clipPath>
</defs>
</svg>
