<svg width="45" height="45" viewBox="0 0 45 45" fill="none" xmlns="http://www.w3.org/2000/svg">
<g id="devicon:azure">
<path id="Vector" d="M15.0985 1.57145H28.2439L14.5981 42.0026C14.4579 42.4182 14.1909 42.7793 13.8347 43.0351C13.4784 43.2909 13.0509 43.4285 12.6123 43.4284H2.38229C2.05003 43.4284 1.72256 43.3493 1.42693 43.1976C1.1313 43.046 0.876 42.8262 0.682135 42.5564C0.488192 42.2866 0.361351 41.9744 0.312129 41.6458C0.262906 41.3172 0.29272 40.9816 0.399099 40.6669L13.1128 2.99696C13.253 2.58144 13.5201 2.22037 13.8763 1.96454C14.2325 1.70871 14.66 1.571 15.0985 1.5708V1.57145Z" fill="url(#paint0_linear_11001_377)"/>
<path id="Vector_2" d="M34.2001 28.6899H13.3549C13.161 28.6896 12.9716 28.7476 12.8112 28.8565C12.6509 28.9654 12.5271 29.1201 12.4559 29.3004C12.3848 29.4808 12.3697 29.6783 12.4125 29.8674C12.4553 30.0564 12.5542 30.2282 12.6961 30.3602L26.0906 42.8625C26.4808 43.226 26.9941 43.4282 27.5274 43.4285H39.3308L34.2001 28.6899Z" fill="#5C73AE"/>
<path id="Vector_3" d="M15.0972 1.57143C14.6538 1.56956 14.2214 1.70961 13.8633 1.9711C13.5052 2.23259 13.2401 2.6018 13.1069 3.02473L0.413602 40.6326C0.300363 40.9485 0.264857 41.2871 0.310085 41.6197C0.355314 41.9522 0.479948 42.269 0.673451 42.5432C0.866953 42.8174 1.12364 43.041 1.4218 43.1951C1.71996 43.3492 2.05083 43.4292 2.38645 43.4284H12.8807C13.2716 43.3586 13.6369 43.1863 13.9394 42.9291C14.2418 42.6719 14.4706 42.339 14.6022 41.9644L17.1334 34.5044L26.1753 42.9376C26.5542 43.251 27.0294 43.4243 27.521 43.4284H39.2806L34.1229 28.6899L19.0881 28.6934L28.29 1.57143H15.0972Z" fill="url(#paint1_linear_11001_377)"/>
<path id="Vector_4" d="M31.8871 2.99499C31.7469 2.58011 31.4802 2.21961 31.1245 1.96425C30.7687 1.70888 30.3418 1.57149 29.9039 1.57141H15.2539C15.6918 1.57156 16.1186 1.70898 16.4743 1.96434C16.83 2.2197 17.0966 2.58016 17.2368 2.99499L29.9508 40.6665C30.0572 40.9814 30.0871 41.317 30.038 41.6457C29.9889 41.9744 29.8622 42.2867 29.6684 42.5567C29.4746 42.8267 29.2193 43.0467 28.9236 43.1984C28.6278 43.3501 28.3002 43.4291 27.9679 43.429H42.6185C42.9508 43.4288 43.2782 43.3495 43.5737 43.1977C43.8692 43.0459 44.1244 42.826 44.3181 42.5561C44.5118 42.2861 44.6385 41.974 44.6877 41.6455C44.7369 41.3169 44.7072 40.9813 44.6011 40.6665L31.8871 2.99499Z" fill="#C7D7FF"/>
</g>
<defs>
<linearGradient id="paint0_linear_11001_377" x1="19.8898" y1="4.67321" x2="6.23816" y2="45.0029" gradientUnits="userSpaceOnUse">
<stop stop-color="#114A8B"/>
<stop offset="1" stop-color="#0669BC"/>
</linearGradient>
<linearGradient id="paint1_linear_11001_377" x1="19.7858" y1="1.57141" x2="19.7858" y2="43.4284" gradientUnits="userSpaceOnUse">
<stop stop-color="#C7D7FF"/>
<stop offset="1" stop-color="#788199"/>
</linearGradient>
</defs>
</svg>
