<svg width="45" height="45" viewBox="0 0 45 45" fill="none" xmlns="http://www.w3.org/2000/svg">
<g id="devicon-plain:visualstudio" clip-path="url(#clip0_11001_5)">
<path id="Vector" d="M33.0979 0.122314C33.0316 0.128408 32.9656 0.136851 32.8999 0.147627C32.7911 0.144473 32.6821 0.147642 32.5737 0.157119C32.4571 0.175052 32.3418 0.200297 32.2284 0.232705C32.1634 0.238881 32.0985 0.247323 32.034 0.258018C31.9352 0.297858 31.8387 0.343283 31.745 0.394072C31.6872 0.418988 31.6302 0.445839 31.5742 0.47458C31.3413 0.598413 31.1269 0.754394 30.9375 0.937939L15.9912 17.4635L7.26539 10.3127L6.5018 9.65704C6.41005 9.59423 6.31287 9.53975 6.21141 9.49427C6.15093 9.4553 6.08811 9.42007 6.02332 9.3888C5.95433 9.35765 5.8834 9.331 5.81098 9.30899C5.73675 9.28644 5.66112 9.26882 5.58457 9.25626C5.52565 9.25129 5.46651 9.24929 5.40738 9.25028C5.3481 9.23853 5.28826 9.22985 5.22809 9.22427C5.19673 9.23045 5.16554 9.23748 5.13457 9.24536C5.1095 9.24447 5.08442 9.24412 5.05934 9.24431C5.03257 9.25071 5.00596 9.25775 4.97953 9.2654C4.92281 9.26336 4.86603 9.26406 4.80938 9.26751C4.72368 9.28643 4.64032 9.31472 4.56082 9.35188L1.15277 10.7817C0.963686 10.8637 0.789524 10.9766 0.637383 11.1157C0.611615 11.1357 0.58641 11.1565 0.561797 11.1779C0.533436 11.2134 0.506463 11.25 0.480938 11.2876C0.395522 11.3827 0.320125 11.4864 0.255937 11.597C0.221625 11.651 0.190289 11.7069 0.16207 11.7643C0.150593 11.7962 0.140042 11.8285 0.13043 11.861C0.0938694 11.9648 0.0665753 12.0716 0.0488672 12.1802C0.029356 12.2398 0.0130437 12.3003 0 12.3616L0 32.6397C0.0130921 32.7006 0.0294042 32.7606 0.0488672 32.8197C0.0664532 32.9291 0.0937487 33.0366 0.13043 33.1411C0.140067 33.1731 0.150619 33.2049 0.16207 33.2363C0.190392 33.2939 0.221846 33.3499 0.256289 33.404C0.320275 33.5145 0.395435 33.618 0.480586 33.7131C0.506111 33.7506 0.533085 33.7872 0.561445 33.8227C0.586169 33.8443 0.611491 33.8652 0.637383 33.8853C0.78955 34.0243 0.96371 34.137 1.15277 34.219L4.56082 35.6484C4.75329 35.725 4.95718 35.769 5.1641 35.7785C5.22389 35.7804 5.28373 35.7792 5.3434 35.775C5.49474 35.77 5.64491 35.7466 5.79059 35.7054C5.85127 35.6905 5.91112 35.6724 5.96988 35.6512C6.16294 35.579 6.34269 35.4753 6.5018 35.3443L7.26539 34.6879L15.9912 27.5372L30.9375 44.0627C31.1351 44.2573 31.3605 44.4216 31.6062 44.5503C31.6758 44.5801 31.7467 44.6071 31.8185 44.6312L31.8206 44.6319C31.9721 44.7064 32.13 44.7671 32.2924 44.8133L32.3775 44.8179C32.5586 44.846 32.7421 44.8564 32.9252 44.8488C33.041 44.8576 33.1573 44.8593 33.2733 44.8537C33.5718 44.8179 33.8626 44.7345 34.1346 44.6066L43.4064 40.1488C43.4748 40.1156 43.5419 40.0797 43.6075 40.0412L43.6672 40.0039C43.7129 39.9759 43.7578 39.9466 43.8019 39.916L43.8655 39.8686C43.905 39.8393 43.9436 39.8091 43.9815 39.7779C44.0058 39.758 44.0297 39.7377 44.0532 39.717C44.0864 39.6873 44.1189 39.6569 44.1506 39.6256C44.1733 39.6037 44.1955 39.5815 44.2174 39.5588C44.2516 39.5229 44.2847 39.4861 44.3169 39.4484L44.3675 39.3901C44.3998 39.3497 44.431 39.3084 44.4611 39.2663L44.511 39.1985C44.5521 39.1379 44.5908 39.0758 44.627 39.0122L44.6586 38.9524C44.6833 38.9078 44.7067 38.8626 44.7289 38.8167C44.7427 38.7869 44.756 38.7569 44.7687 38.7267C44.7876 38.6827 44.8054 38.6383 44.8221 38.5934L44.8488 38.5179C44.8635 38.4752 44.8771 38.4322 44.8896 38.3888C44.8999 38.3534 44.9095 38.3178 44.9184 38.282C44.9277 38.2421 44.9362 38.202 44.9437 38.1617C44.9505 38.1297 44.9567 38.0976 44.9624 38.0654C44.9703 38.0151 44.9769 37.9646 44.9821 37.9139L44.9898 37.8506L44.9905 37.8425C44.9968 37.7661 45 37.6896 45 37.6129V7.38841C45 7.31155 44.9968 7.23473 44.9905 7.15813L44.9842 7.10259C44.9784 7.04282 44.9706 6.98326 44.961 6.92399L44.949 6.86423C44.9394 6.81201 44.9282 6.76008 44.9156 6.70849C44.9076 6.67693 44.8991 6.64552 44.89 6.61427C44.8787 6.57534 44.8667 6.53666 44.8537 6.49825C44.8425 6.46345 44.8305 6.42887 44.8179 6.39454C44.8022 6.35373 44.7855 6.31329 44.768 6.27325C44.7567 6.24576 44.745 6.21846 44.7328 6.19134C44.7097 6.14331 44.6852 6.09594 44.6593 6.04931L44.6231 5.98075C44.5866 5.91738 44.5477 5.85546 44.5064 5.79513L44.4691 5.74591C44.4379 5.70162 44.4055 5.65824 44.3718 5.61583C44.3502 5.59013 44.3281 5.56481 44.3057 5.53989C44.2776 5.50712 44.2487 5.47501 44.2192 5.44356C44.1969 5.42056 44.1743 5.39794 44.1513 5.37571C44.1193 5.34423 44.0864 5.31352 44.0529 5.2836C44.0296 5.26282 44.0059 5.24243 43.9819 5.22243C43.944 5.19131 43.9053 5.16118 43.8659 5.13208L43.8019 5.08462C43.7578 5.05405 43.7129 5.02474 43.6672 4.99673L43.6075 4.95946C43.5419 4.9209 43.4748 4.88501 43.4064 4.85188L34.1346 0.393721C33.8742 0.269443 33.5963 0.185966 33.3105 0.146221C33.2705 0.145598 33.2304 0.145833 33.1903 0.146924C33.1596 0.138197 33.1288 0.129993 33.0979 0.122314ZM33.75 12.9754V32.0252L22.1298 22.5007L33.75 12.9754ZM5.625 16.0762L11.4353 22.5007L5.625 28.9248V16.0769V16.0762Z" fill="url(#paint0_radial_11001_5)"/>
</g>
<defs>
<radialGradient id="paint0_radial_11001_5" cx="0" cy="0" r="1" gradientUnits="userSpaceOnUse" gradientTransform="translate(22.5 22.4896) rotate(89.7321) scale(24.3721 24.5164)">
<stop stop-color="#C7D7FF"/>
<stop offset="1" stop-color="#788199"/>
</radialGradient>
<clipPath id="clip0_11001_5">
<rect width="45" height="45" fill="white"/>
</clipPath>
</defs>
</svg>
