<svg width="430" height="81" viewBox="0 0 430 81" fill="none" xmlns="http://www.w3.org/2000/svg">
<path d="M21.9181 2.98V6.328H11.2981V13.708H19.5781V17.056H11.2981V28H7.19414V2.98H21.9181ZM43.9015 17.596C43.9015 18.34 43.8535 19.012 43.7575 19.612H28.6015C28.7215 21.196 29.3095 22.468 30.3655 23.428C31.4215 24.388 32.7175 24.868 34.2535 24.868C36.4615 24.868 38.0215 23.944 38.9335 22.096H43.3615C42.7615 23.92 41.6695 25.42 40.0855 26.596C38.5255 27.748 36.5815 28.324 34.2535 28.324C32.3575 28.324 30.6535 27.904 29.1415 27.064C27.6535 26.2 26.4775 25 25.6135 23.464C24.7735 21.904 24.3535 20.104 24.3535 18.064C24.3535 16.024 24.7615 14.236 25.5775 12.7C26.4175 11.14 27.5815 9.94 29.0695 9.1C30.5815 8.26 32.3095 7.84 34.2535 7.84C36.1255 7.84 37.7935 8.248 39.2575 9.064C40.7215 9.88 41.8615 11.032 42.6775 12.52C43.4935 13.984 43.9015 15.676 43.9015 17.596ZM39.6175 16.3C39.5935 14.788 39.0535 13.576 37.9975 12.664C36.9415 11.752 35.6335 11.296 34.0735 11.296C32.6575 11.296 31.4455 11.752 30.4375 12.664C29.4295 13.552 28.8295 14.764 28.6375 16.3H39.6175ZM46.5722 17.992C46.5722 16 46.9802 14.236 47.7962 12.7C48.6362 11.164 49.7642 9.976 51.1802 9.136C52.6202 8.272 54.2042 7.84 55.9322 7.84C57.4922 7.84 58.8482 8.152 60.0002 8.776C61.1762 9.376 62.1122 10.132 62.8082 11.044V8.164H66.9482V28H62.8082V25.048C62.1122 25.984 61.1642 26.764 59.9642 27.388C58.7642 28.012 57.3962 28.324 55.8602 28.324C54.1562 28.324 52.5962 27.892 51.1802 27.028C49.7642 26.14 48.6362 24.916 47.7962 23.356C46.9802 21.772 46.5722 19.984 46.5722 17.992ZM62.8082 18.064C62.8082 16.696 62.5202 15.508 61.9442 14.5C61.3922 13.492 60.6602 12.724 59.7482 12.196C58.8362 11.668 57.8522 11.404 56.7962 11.404C55.7402 11.404 54.7562 11.668 53.8442 12.196C52.9322 12.7 52.1882 13.456 51.6122 14.464C51.0602 15.448 50.7842 16.624 50.7842 17.992C50.7842 19.36 51.0602 20.56 51.6122 21.592C52.1882 22.624 52.9322 23.416 53.8442 23.968C54.7802 24.496 55.7642 24.76 56.7962 24.76C57.8522 24.76 58.8362 24.496 59.7482 23.968C60.6602 23.44 61.3922 22.672 61.9442 21.664C62.5202 20.632 62.8082 19.432 62.8082 18.064ZM77.1267 11.512V22.492C77.1267 23.236 77.2947 23.776 77.6307 24.112C77.9907 24.424 78.5907 24.58 79.4307 24.58H81.9507V28H78.7107C76.8627 28 75.4467 27.568 74.4627 26.704C73.4787 25.84 72.9867 24.436 72.9867 22.492V11.512H70.6467V8.164H72.9867V3.232H77.1267V8.164H81.9507V11.512H77.1267ZM103.697 8.164V28H99.5932V25.66C98.9452 26.476 98.0932 27.124 97.0372 27.604C96.0052 28.06 94.9012 28.288 93.7252 28.288C92.1652 28.288 90.7612 27.964 89.5132 27.316C88.2892 26.668 87.3172 25.708 86.5972 24.436C85.9012 23.164 85.5532 21.628 85.5532 19.828V8.164H89.6212V19.216C89.6212 20.992 90.0652 22.36 90.9532 23.32C91.8412 24.256 93.0532 24.724 94.5892 24.724C96.1252 24.724 97.3372 24.256 98.2252 23.32C99.1372 22.36 99.5932 20.992 99.5932 19.216V8.164H103.697ZM113.216 11.044C113.816 10.036 114.608 9.256 115.592 8.704C116.6 8.128 117.788 7.84 119.156 7.84V12.088H118.112C116.504 12.088 115.28 12.496 114.44 13.312C113.624 14.128 113.216 15.544 113.216 17.56V28H109.112V8.164H113.216V11.044ZM141.109 17.596C141.109 18.34 141.061 19.012 140.965 19.612H125.809C125.929 21.196 126.517 22.468 127.573 23.428C128.629 24.388 129.925 24.868 131.461 24.868C133.669 24.868 135.229 23.944 136.141 22.096H140.569C139.969 23.92 138.877 25.42 137.293 26.596C135.733 27.748 133.789 28.324 131.461 28.324C129.565 28.324 127.861 27.904 126.349 27.064C124.861 26.2 123.685 25 122.821 23.464C121.981 21.904 121.561 20.104 121.561 18.064C121.561 16.024 121.969 14.236 122.785 12.7C123.625 11.14 124.789 9.94 126.277 9.1C127.789 8.26 129.517 7.84 131.461 7.84C133.333 7.84 135.001 8.248 136.465 9.064C137.929 9.88 139.069 11.032 139.885 12.52C140.701 13.984 141.109 15.676 141.109 17.596ZM136.825 16.3C136.801 14.788 136.261 13.576 135.205 12.664C134.149 11.752 132.841 11.296 131.281 11.296C129.865 11.296 128.653 11.752 127.645 12.664C126.637 13.552 126.037 14.764 125.845 16.3H136.825ZM158.603 11.08C159.299 10.168 160.247 9.4 161.447 8.776C162.647 8.152 164.003 7.84 165.515 7.84C167.243 7.84 168.815 8.272 170.231 9.136C171.671 9.976 172.799 11.164 173.615 12.7C174.431 14.236 174.839 16 174.839 17.992C174.839 19.984 174.431 21.772 173.615 23.356C172.799 24.916 171.671 26.14 170.231 27.028C168.815 27.892 167.243 28.324 165.515 28.324C164.003 28.324 162.659 28.024 161.483 27.424C160.307 26.8 159.347 26.032 158.603 25.12V37.432H154.499V8.164H158.603V11.08ZM170.663 17.992C170.663 16.624 170.375 15.448 169.799 14.464C169.247 13.456 168.503 12.7 167.567 12.196C166.655 11.668 165.671 11.404 164.615 11.404C163.583 11.404 162.599 11.668 161.663 12.196C160.751 12.724 160.007 13.492 159.431 14.5C158.879 15.508 158.603 16.696 158.603 18.064C158.603 19.432 158.879 20.632 159.431 21.664C160.007 22.672 160.751 23.44 161.663 23.968C162.599 24.496 163.583 24.76 164.615 24.76C165.671 24.76 166.655 24.496 167.567 23.968C168.503 23.416 169.247 22.624 169.799 21.592C170.375 20.56 170.663 19.36 170.663 17.992ZM177.529 17.992C177.529 16 177.937 14.236 178.753 12.7C179.593 11.164 180.721 9.976 182.137 9.136C183.577 8.272 185.161 7.84 186.889 7.84C188.449 7.84 189.805 8.152 190.957 8.776C192.133 9.376 193.069 10.132 193.765 11.044V8.164H197.905V28H193.765V25.048C193.069 25.984 192.121 26.764 190.921 27.388C189.721 28.012 188.353 28.324 186.817 28.324C185.113 28.324 183.553 27.892 182.137 27.028C180.721 26.14 179.593 24.916 178.753 23.356C177.937 21.772 177.529 19.984 177.529 17.992ZM193.765 18.064C193.765 16.696 193.477 15.508 192.901 14.5C192.349 13.492 191.617 12.724 190.705 12.196C189.793 11.668 188.809 11.404 187.753 11.404C186.697 11.404 185.713 11.668 184.801 12.196C183.889 12.7 183.145 13.456 182.569 14.464C182.017 15.448 181.741 16.624 181.741 17.992C181.741 19.36 182.017 20.56 182.569 21.592C183.145 22.624 183.889 23.416 184.801 23.968C185.737 24.496 186.721 24.76 187.753 24.76C188.809 24.76 189.793 24.496 190.705 23.968C191.617 23.44 192.349 22.672 192.901 21.664C193.477 20.632 193.765 19.432 193.765 18.064ZM201.928 18.064C201.928 16.024 202.336 14.236 203.152 12.7C203.992 11.14 205.144 9.94 206.608 9.1C208.072 8.26 209.752 7.84 211.648 7.84C214.048 7.84 216.028 8.416 217.588 9.568C219.172 10.696 220.24 12.316 220.792 14.428H216.364C216.004 13.444 215.428 12.676 214.636 12.124C213.844 11.572 212.848 11.296 211.648 11.296C209.968 11.296 208.624 11.896 207.616 13.096C206.632 14.272 206.14 15.928 206.14 18.064C206.14 20.2 206.632 21.868 207.616 23.068C208.624 24.268 209.968 24.868 211.648 24.868C214.024 24.868 215.596 23.824 216.364 21.736H220.792C220.216 23.752 219.136 25.36 217.552 26.56C215.968 27.736 214 28.324 211.648 28.324C209.752 28.324 208.072 27.904 206.608 27.064C205.144 26.2 203.992 25 203.152 23.464C202.336 21.904 201.928 20.104 201.928 18.064ZM232.73 18.1L241.874 28H236.33L228.986 19.468V28H224.882V1.36H228.986V16.84L236.186 8.164H241.874L232.73 18.1ZM262.995 17.596C262.995 18.34 262.947 19.012 262.851 19.612H247.695C247.815 21.196 248.403 22.468 249.459 23.428C250.515 24.388 251.811 24.868 253.347 24.868C255.555 24.868 257.115 23.944 258.027 22.096H262.455C261.855 23.92 260.763 25.42 259.179 26.596C257.619 27.748 255.675 28.324 253.347 28.324C251.451 28.324 249.747 27.904 248.235 27.064C246.747 26.2 245.571 25 244.707 23.464C243.867 21.904 243.447 20.104 243.447 18.064C243.447 16.024 243.855 14.236 244.671 12.7C245.511 11.14 246.675 9.94 248.163 9.1C249.675 8.26 251.403 7.84 253.347 7.84C255.219 7.84 256.887 8.248 258.351 9.064C259.815 9.88 260.955 11.032 261.771 12.52C262.587 13.984 262.995 15.676 262.995 17.596ZM258.711 16.3C258.687 14.788 258.147 13.576 257.091 12.664C256.035 11.752 254.727 11.296 253.167 11.296C251.751 11.296 250.539 11.752 249.531 12.664C248.523 13.552 247.923 14.764 247.731 16.3H258.711ZM265.666 17.992C265.666 16 266.074 14.236 266.89 12.7C267.73 11.164 268.858 9.976 270.274 9.136C271.714 8.272 273.31 7.84 275.062 7.84C276.358 7.84 277.63 8.128 278.878 8.704C280.15 9.256 281.158 10 281.902 10.936V1.36H286.042V28H281.902V25.012C281.23 25.972 280.294 26.764 279.094 27.388C277.918 28.012 276.562 28.324 275.026 28.324C273.298 28.324 271.714 27.892 270.274 27.028C268.858 26.14 267.73 24.916 266.89 23.356C266.074 21.772 265.666 19.984 265.666 17.992ZM281.902 18.064C281.902 16.696 281.614 15.508 281.038 14.5C280.486 13.492 279.754 12.724 278.842 12.196C277.93 11.668 276.946 11.404 275.89 11.404C274.834 11.404 273.85 11.668 272.938 12.196C272.026 12.7 271.282 13.456 270.706 14.464C270.154 15.448 269.878 16.624 269.878 17.992C269.878 19.36 270.154 20.56 270.706 21.592C271.282 22.624 272.026 23.416 272.938 23.968C273.874 24.496 274.858 24.76 275.89 24.76C276.946 24.76 277.93 24.496 278.842 23.968C279.754 23.44 280.486 22.672 281.038 21.664C281.614 20.632 281.902 19.432 281.902 18.064ZM309.1 11.512H305.428V28H301.288V11.512H298.948V8.164H301.288V6.76C301.288 4.48 301.888 2.824 303.088 1.792C304.312 0.735999 306.22 0.207999 308.812 0.207999V3.628C307.564 3.628 306.688 3.868 306.184 4.348C305.68 4.804 305.428 5.608 305.428 6.76V8.164H309.1V11.512ZM321.341 28.324C319.469 28.324 317.777 27.904 316.265 27.064C314.753 26.2 313.565 25 312.701 23.464C311.837 21.904 311.405 20.104 311.405 18.064C311.405 16.048 311.849 14.26 312.737 12.7C313.625 11.14 314.837 9.94 316.373 9.1C317.909 8.26 319.625 7.84 321.521 7.84C323.417 7.84 325.133 8.26 326.669 9.1C328.205 9.94 329.417 11.14 330.305 12.7C331.193 14.26 331.637 16.048 331.637 18.064C331.637 20.08 331.181 21.868 330.269 23.428C329.357 24.988 328.109 26.2 326.525 27.064C324.965 27.904 323.237 28.324 321.341 28.324ZM321.341 24.76C322.397 24.76 323.381 24.508 324.293 24.004C325.229 23.5 325.985 22.744 326.561 21.736C327.137 20.728 327.425 19.504 327.425 18.064C327.425 16.624 327.149 15.412 326.597 14.428C326.045 13.42 325.313 12.664 324.401 12.16C323.489 11.656 322.505 11.404 321.449 11.404C320.393 11.404 319.409 11.656 318.497 12.16C317.609 12.664 316.901 13.42 316.373 14.428C315.845 15.412 315.581 16.624 315.581 18.064C315.581 20.2 316.121 21.856 317.201 23.032C318.305 24.184 319.685 24.76 321.341 24.76ZM339.798 11.044C340.398 10.036 341.19 9.256 342.174 8.704C343.182 8.128 344.37 7.84 345.738 7.84V12.088H344.694C343.086 12.088 341.862 12.496 341.022 13.312C340.206 14.128 339.798 15.544 339.798 17.56V28H335.694V8.164H339.798V11.044ZM363.65 11.512V22.492C363.65 23.236 363.818 23.776 364.154 24.112C364.514 24.424 365.114 24.58 365.954 24.58H368.474V28H365.234C363.386 28 361.97 27.568 360.986 26.704C360.002 25.84 359.51 24.436 359.51 22.492V11.512H357.17V8.164H359.51V3.232H363.65V8.164H368.474V11.512H363.65ZM382.517 7.84C384.029 7.84 385.373 8.164 386.549 8.812C387.749 9.46 388.685 10.42 389.357 11.692C390.053 12.964 390.401 14.5 390.401 16.3V28H386.333V16.912C386.333 15.136 385.889 13.78 385.001 12.844C384.113 11.884 382.901 11.404 381.365 11.404C379.829 11.404 378.605 11.884 377.693 12.844C376.805 13.78 376.361 15.136 376.361 16.912V28H372.257V1.36H376.361V10.468C377.057 9.628 377.933 8.98 378.989 8.524C380.069 8.068 381.245 7.84 382.517 7.84ZM413.816 17.596C413.816 18.34 413.768 19.012 413.672 19.612H398.516C398.636 21.196 399.224 22.468 400.28 23.428C401.336 24.388 402.632 24.868 404.168 24.868C406.376 24.868 407.936 23.944 408.848 22.096H413.276C412.676 23.92 411.584 25.42 410 26.596C408.44 27.748 406.496 28.324 404.168 28.324C402.272 28.324 400.568 27.904 399.056 27.064C397.568 26.2 396.392 25 395.528 23.464C394.688 21.904 394.268 20.104 394.268 18.064C394.268 16.024 394.676 14.236 395.492 12.7C396.332 11.14 397.496 9.94 398.984 9.1C400.496 8.26 402.224 7.84 404.168 7.84C406.04 7.84 407.708 8.248 409.172 9.064C410.636 9.88 411.776 11.032 412.592 12.52C413.408 13.984 413.816 15.676 413.816 17.596ZM409.532 16.3C409.508 14.788 408.968 13.576 407.912 12.664C406.856 11.752 405.548 11.296 403.988 11.296C402.572 11.296 401.36 11.752 400.352 12.664C399.344 13.552 398.744 14.764 398.552 16.3H409.532Z" fill="white"/>
<path d="M24.5089 50.84C26.0689 50.84 27.4609 51.164 28.6849 51.812C29.9329 52.46 30.9049 53.42 31.6009 54.692C32.3209 55.964 32.6809 57.5 32.6809 59.3V71H28.6129V59.912C28.6129 58.136 28.1689 56.78 27.2809 55.844C26.3929 54.884 25.1809 54.404 23.6449 54.404C22.1089 54.404 20.8849 54.884 19.9729 55.844C19.0849 56.78 18.6409 58.136 18.6409 59.912V71H14.5729V59.912C14.5729 58.136 14.1289 56.78 13.2409 55.844C12.3529 54.884 11.1409 54.404 9.60488 54.404C8.06888 54.404 6.84488 54.884 5.93288 55.844C5.04488 56.78 4.60088 58.136 4.60088 59.912V71H0.496875V51.164H4.60088V53.432C5.27288 52.616 6.12488 51.98 7.15688 51.524C8.18888 51.068 9.29288 50.84 10.4689 50.84C12.0529 50.84 13.4689 51.176 14.7169 51.848C15.9649 52.52 16.9249 53.492 17.5969 54.764C18.1969 53.564 19.1329 52.616 20.4049 51.92C21.6769 51.2 23.0449 50.84 24.5089 50.84ZM46.5071 71.324C44.6351 71.324 42.9431 70.904 41.4311 70.064C39.9191 69.2 38.7311 68 37.8671 66.464C37.0031 64.904 36.5711 63.104 36.5711 61.064C36.5711 59.048 37.0151 57.26 37.9031 55.7C38.7911 54.14 40.0031 52.94 41.5391 52.1C43.0751 51.26 44.7911 50.84 46.6871 50.84C48.5831 50.84 50.2991 51.26 51.8351 52.1C53.3711 52.94 54.5831 54.14 55.4711 55.7C56.3591 57.26 56.8031 59.048 56.8031 61.064C56.8031 63.08 56.3471 64.868 55.4351 66.428C54.5231 67.988 53.2751 69.2 51.6911 70.064C50.1311 70.904 48.4031 71.324 46.5071 71.324ZM46.5071 67.76C47.5631 67.76 48.5471 67.508 49.4591 67.004C50.3951 66.5 51.1511 65.744 51.7271 64.736C52.3031 63.728 52.5911 62.504 52.5911 61.064C52.5911 59.624 52.3151 58.412 51.7631 57.428C51.2111 56.42 50.4791 55.664 49.5671 55.16C48.6551 54.656 47.6711 54.404 46.6151 54.404C45.5591 54.404 44.5751 54.656 43.6631 55.16C42.7751 55.664 42.0671 56.42 41.5391 57.428C41.0111 58.412 40.7471 59.624 40.7471 61.064C40.7471 63.2 41.2871 64.856 42.3671 66.032C43.4711 67.184 44.8511 67.76 46.5071 67.76ZM68.0602 71.324C66.5002 71.324 65.0962 71.048 63.8482 70.496C62.6242 69.92 61.6522 69.152 60.9322 68.192C60.2122 67.208 59.8282 66.116 59.7802 64.916H64.0282C64.1002 65.756 64.4962 66.464 65.2162 67.04C65.9602 67.592 66.8842 67.868 67.9882 67.868C69.1402 67.868 70.0282 67.652 70.6522 67.22C71.3002 66.764 71.6242 66.188 71.6242 65.492C71.6242 64.748 71.2642 64.196 70.5442 63.836C69.8482 63.476 68.7322 63.08 67.1962 62.648C65.7082 62.24 64.4962 61.844 63.5602 61.46C62.6242 61.076 61.8082 60.488 61.1122 59.696C60.4402 58.904 60.1042 57.86 60.1042 56.564C60.1042 55.508 60.4162 54.548 61.0402 53.684C61.6642 52.796 62.5522 52.1 63.7042 51.596C64.8802 51.092 66.2242 50.84 67.7362 50.84C69.9922 50.84 71.8042 51.416 73.1722 52.568C74.5642 53.696 75.3082 55.244 75.4042 57.212H71.3002C71.2282 56.324 70.8682 55.616 70.2202 55.088C69.5722 54.56 68.6962 54.296 67.5922 54.296C66.5122 54.296 65.6842 54.5 65.1082 54.908C64.5322 55.316 64.2442 55.856 64.2442 56.528C64.2442 57.056 64.4362 57.5 64.8202 57.86C65.2042 58.22 65.6722 58.508 66.2242 58.724C66.7762 58.916 67.5922 59.168 68.6722 59.48C70.1122 59.864 71.2882 60.26 72.2002 60.668C73.1362 61.052 73.9402 61.628 74.6122 62.396C75.2842 63.164 75.6322 64.184 75.6562 65.456C75.6562 66.584 75.3442 67.592 74.7202 68.48C74.0962 69.368 73.2082 70.064 72.0562 70.568C70.9282 71.072 69.5962 71.324 68.0602 71.324ZM84.8786 54.512V65.492C84.8786 66.236 85.0466 66.776 85.3826 67.112C85.7426 67.424 86.3426 67.58 87.1826 67.58H89.7026V71H86.4626C84.6146 71 83.1986 70.568 82.2146 69.704C81.2306 68.84 80.7386 67.436 80.7386 65.492V54.512H78.3986V51.164H80.7386V46.232H84.8786V51.164H89.7026V54.512H84.8786ZM106.941 54.08C107.637 53.168 108.585 52.4 109.785 51.776C110.985 51.152 112.341 50.84 113.853 50.84C115.581 50.84 117.153 51.272 118.569 52.136C120.009 52.976 121.137 54.164 121.953 55.7C122.769 57.236 123.177 59 123.177 60.992C123.177 62.984 122.769 64.772 121.953 66.356C121.137 67.916 120.009 69.14 118.569 70.028C117.153 70.892 115.581 71.324 113.853 71.324C112.341 71.324 110.997 71.024 109.821 70.424C108.645 69.8 107.685 69.032 106.941 68.12V80.432H102.837V51.164H106.941V54.08ZM119.001 60.992C119.001 59.624 118.713 58.448 118.137 57.464C117.585 56.456 116.841 55.7 115.905 55.196C114.993 54.668 114.009 54.404 112.953 54.404C111.921 54.404 110.937 54.668 110.001 55.196C109.089 55.724 108.345 56.492 107.769 57.5C107.217 58.508 106.941 59.696 106.941 61.064C106.941 62.432 107.217 63.632 107.769 64.664C108.345 65.672 109.089 66.44 110.001 66.968C110.937 67.496 111.921 67.76 112.953 67.76C114.009 67.76 114.993 67.496 115.905 66.968C116.841 66.416 117.585 65.624 118.137 64.592C118.713 63.56 119.001 62.36 119.001 60.992ZM131.339 54.044C131.939 53.036 132.731 52.256 133.715 51.704C134.723 51.128 135.911 50.84 137.279 50.84V55.088H136.235C134.627 55.088 133.403 55.496 132.563 56.312C131.747 57.128 131.339 58.544 131.339 60.56V71H127.235V51.164H131.339V54.044ZM149.656 71.324C147.784 71.324 146.092 70.904 144.58 70.064C143.068 69.2 141.88 68 141.016 66.464C140.152 64.904 139.72 63.104 139.72 61.064C139.72 59.048 140.164 57.26 141.052 55.7C141.94 54.14 143.152 52.94 144.688 52.1C146.224 51.26 147.94 50.84 149.836 50.84C151.732 50.84 153.448 51.26 154.984 52.1C156.52 52.94 157.732 54.14 158.62 55.7C159.508 57.26 159.952 59.048 159.952 61.064C159.952 63.08 159.496 64.868 158.584 66.428C157.672 67.988 156.424 69.2 154.84 70.064C153.28 70.904 151.552 71.324 149.656 71.324ZM149.656 67.76C150.712 67.76 151.696 67.508 152.608 67.004C153.544 66.5 154.3 65.744 154.876 64.736C155.452 63.728 155.74 62.504 155.74 61.064C155.74 59.624 155.464 58.412 154.912 57.428C154.36 56.42 153.628 55.664 152.716 55.16C151.804 54.656 150.82 54.404 149.764 54.404C148.708 54.404 147.724 54.656 146.812 55.16C145.924 55.664 145.216 56.42 144.688 57.428C144.16 58.412 143.896 59.624 143.896 61.064C143.896 63.2 144.436 64.856 145.516 66.032C146.62 67.184 148 67.76 149.656 67.76ZM162.641 60.992C162.641 59 163.049 57.236 163.865 55.7C164.705 54.164 165.833 52.976 167.249 52.136C168.689 51.272 170.285 50.84 172.037 50.84C173.333 50.84 174.605 51.128 175.853 51.704C177.125 52.256 178.133 53 178.877 53.936V44.36H183.017V71H178.877V68.012C178.205 68.972 177.269 69.764 176.069 70.388C174.893 71.012 173.537 71.324 172.001 71.324C170.273 71.324 168.689 70.892 167.249 70.028C165.833 69.14 164.705 67.916 163.865 66.356C163.049 64.772 162.641 62.984 162.641 60.992ZM178.877 61.064C178.877 59.696 178.589 58.508 178.013 57.5C177.461 56.492 176.729 55.724 175.817 55.196C174.905 54.668 173.921 54.404 172.865 54.404C171.809 54.404 170.825 54.668 169.913 55.196C169.001 55.7 168.257 56.456 167.681 57.464C167.129 58.448 166.853 59.624 166.853 60.992C166.853 62.36 167.129 63.56 167.681 64.592C168.257 65.624 169.001 66.416 169.913 66.968C170.849 67.496 171.833 67.76 172.865 67.76C173.921 67.76 174.905 67.496 175.817 66.968C176.729 66.44 177.461 65.672 178.013 64.664C178.589 63.632 178.877 62.432 178.877 61.064ZM206.371 51.164V71H202.267V68.66C201.619 69.476 200.767 70.124 199.711 70.604C198.679 71.06 197.575 71.288 196.399 71.288C194.839 71.288 193.435 70.964 192.187 70.316C190.963 69.668 189.991 68.708 189.271 67.436C188.575 66.164 188.227 64.628 188.227 62.828V51.164H192.295V62.216C192.295 63.992 192.739 65.36 193.627 66.32C194.515 67.256 195.727 67.724 197.263 67.724C198.799 67.724 200.011 67.256 200.899 66.32C201.811 65.36 202.267 63.992 202.267 62.216V51.164H206.371ZM210.418 61.064C210.418 59.024 210.826 57.236 211.642 55.7C212.482 54.14 213.634 52.94 215.098 52.1C216.562 51.26 218.242 50.84 220.138 50.84C222.538 50.84 224.518 51.416 226.078 52.568C227.662 53.696 228.73 55.316 229.282 57.428H224.854C224.494 56.444 223.918 55.676 223.126 55.124C222.334 54.572 221.338 54.296 220.138 54.296C218.458 54.296 217.114 54.896 216.106 56.096C215.122 57.272 214.63 58.928 214.63 61.064C214.63 63.2 215.122 64.868 216.106 66.068C217.114 67.268 218.458 67.868 220.138 67.868C222.514 67.868 224.086 66.824 224.854 64.736H229.282C228.706 66.752 227.626 68.36 226.042 69.56C224.458 70.736 222.49 71.324 220.138 71.324C218.242 71.324 216.562 70.904 215.098 70.064C213.634 69.2 212.482 68 211.642 66.464C210.826 64.904 210.418 63.104 210.418 61.064ZM238.16 54.512V65.492C238.16 66.236 238.328 66.776 238.664 67.112C239.024 67.424 239.624 67.58 240.464 67.58H242.984V71H239.744C237.896 71 236.48 70.568 235.496 69.704C234.512 68.84 234.02 67.436 234.02 65.492V54.512H231.68V51.164H234.02V46.232H238.16V51.164H242.984V54.512H238.16ZM248.854 48.536C248.11 48.536 247.486 48.284 246.982 47.78C246.478 47.276 246.226 46.652 246.226 45.908C246.226 45.164 246.478 44.54 246.982 44.036C247.486 43.532 248.11 43.28 248.854 43.28C249.574 43.28 250.186 43.532 250.69 44.036C251.194 44.54 251.446 45.164 251.446 45.908C251.446 46.652 251.194 47.276 250.69 47.78C250.186 48.284 249.574 48.536 248.854 48.536ZM250.87 51.164V71H246.766V51.164H250.87ZM263.927 67.328L269.543 51.164H273.899L266.339 71H261.443L253.919 51.164H258.311L263.927 67.328ZM295.181 60.596C295.181 61.34 295.133 62.012 295.037 62.612H279.881C280.001 64.196 280.589 65.468 281.645 66.428C282.701 67.388 283.997 67.868 285.533 67.868C287.741 67.868 289.301 66.944 290.213 65.096H294.641C294.041 66.92 292.949 68.42 291.365 69.596C289.805 70.748 287.861 71.324 285.533 71.324C283.637 71.324 281.933 70.904 280.421 70.064C278.933 69.2 277.757 68 276.893 66.464C276.053 64.904 275.633 63.104 275.633 61.064C275.633 59.024 276.041 57.236 276.857 55.7C277.697 54.14 278.861 52.94 280.349 52.1C281.861 51.26 283.589 50.84 285.533 50.84C287.405 50.84 289.073 51.248 290.537 52.064C292.001 52.88 293.141 54.032 293.957 55.52C294.773 56.984 295.181 58.676 295.181 60.596ZM290.897 59.3C290.873 57.788 290.333 56.576 289.277 55.664C288.221 54.752 286.913 54.296 285.353 54.296C283.937 54.296 282.725 54.752 281.717 55.664C280.709 56.552 280.109 57.764 279.917 59.3H290.897ZM313.359 54.512V65.492C313.359 66.236 313.527 66.776 313.863 67.112C314.223 67.424 314.823 67.58 315.663 67.58H318.183V71H314.943C313.095 71 311.679 70.568 310.695 69.704C309.711 68.84 309.219 67.436 309.219 65.492V54.512H306.879V51.164H309.219V46.232H313.359V51.164H318.183V54.512H313.359ZM340.146 60.596C340.146 61.34 340.098 62.012 340.002 62.612H324.846C324.966 64.196 325.554 65.468 326.61 66.428C327.666 67.388 328.962 67.868 330.498 67.868C332.706 67.868 334.266 66.944 335.178 65.096H339.606C339.006 66.92 337.914 68.42 336.33 69.596C334.77 70.748 332.826 71.324 330.498 71.324C328.602 71.324 326.898 70.904 325.386 70.064C323.898 69.2 322.722 68 321.858 66.464C321.018 64.904 320.598 63.104 320.598 61.064C320.598 59.024 321.006 57.236 321.822 55.7C322.662 54.14 323.826 52.94 325.314 52.1C326.826 51.26 328.554 50.84 330.498 50.84C332.37 50.84 334.038 51.248 335.502 52.064C336.966 52.88 338.106 54.032 338.922 55.52C339.738 56.984 340.146 58.676 340.146 60.596ZM335.862 59.3C335.838 57.788 335.298 56.576 334.242 55.664C333.186 54.752 331.878 54.296 330.318 54.296C328.902 54.296 327.69 54.752 326.682 55.664C325.674 56.552 325.074 57.764 324.882 59.3H335.862ZM342.816 60.992C342.816 59 343.224 57.236 344.04 55.7C344.88 54.164 346.008 52.976 347.424 52.136C348.864 51.272 350.448 50.84 352.176 50.84C353.736 50.84 355.092 51.152 356.244 51.776C357.42 52.376 358.356 53.132 359.052 54.044V51.164H363.192V71H359.052V68.048C358.356 68.984 357.408 69.764 356.208 70.388C355.008 71.012 353.64 71.324 352.104 71.324C350.4 71.324 348.84 70.892 347.424 70.028C346.008 69.14 344.88 67.916 344.04 66.356C343.224 64.772 342.816 62.984 342.816 60.992ZM359.052 61.064C359.052 59.696 358.764 58.508 358.188 57.5C357.636 56.492 356.904 55.724 355.992 55.196C355.08 54.668 354.096 54.404 353.04 54.404C351.984 54.404 351 54.668 350.088 55.196C349.176 55.7 348.432 56.456 347.856 57.464C347.304 58.448 347.028 59.624 347.028 60.992C347.028 62.36 347.304 63.56 347.856 64.592C348.432 65.624 349.176 66.416 350.088 66.968C351.024 67.496 352.008 67.76 353.04 67.76C354.096 67.76 355.08 67.496 355.992 66.968C356.904 66.44 357.636 65.672 358.188 64.664C358.764 63.632 359.052 62.432 359.052 61.064ZM392.595 50.84C394.155 50.84 395.547 51.164 396.771 51.812C398.019 52.46 398.991 53.42 399.687 54.692C400.407 55.964 400.767 57.5 400.767 59.3V71H396.699V59.912C396.699 58.136 396.255 56.78 395.367 55.844C394.479 54.884 393.267 54.404 391.731 54.404C390.195 54.404 388.971 54.884 388.059 55.844C387.171 56.78 386.727 58.136 386.727 59.912V71H382.659V59.912C382.659 58.136 382.215 56.78 381.327 55.844C380.439 54.884 379.227 54.404 377.691 54.404C376.155 54.404 374.931 54.884 374.019 55.844C373.131 56.78 372.687 58.136 372.687 59.912V71H368.583V51.164H372.687V53.432C373.359 52.616 374.211 51.98 375.243 51.524C376.275 51.068 377.379 50.84 378.555 50.84C380.139 50.84 381.555 51.176 382.803 51.848C384.051 52.52 385.011 53.492 385.683 54.764C386.283 53.564 387.219 52.616 388.491 51.92C389.763 51.2 391.131 50.84 392.595 50.84ZM413.189 71.324C411.629 71.324 410.225 71.048 408.977 70.496C407.753 69.92 406.781 69.152 406.061 68.192C405.341 67.208 404.957 66.116 404.909 64.916H409.157C409.229 65.756 409.625 66.464 410.345 67.04C411.089 67.592 412.013 67.868 413.117 67.868C414.269 67.868 415.157 67.652 415.781 67.22C416.429 66.764 416.753 66.188 416.753 65.492C416.753 64.748 416.393 64.196 415.673 63.836C414.977 63.476 413.861 63.08 412.325 62.648C410.837 62.24 409.625 61.844 408.689 61.46C407.753 61.076 406.937 60.488 406.241 59.696C405.569 58.904 405.233 57.86 405.233 56.564C405.233 55.508 405.545 54.548 406.169 53.684C406.793 52.796 407.681 52.1 408.833 51.596C410.009 51.092 411.353 50.84 412.865 50.84C415.121 50.84 416.933 51.416 418.301 52.568C419.693 53.696 420.437 55.244 420.533 57.212H416.429C416.357 56.324 415.997 55.616 415.349 55.088C414.701 54.56 413.825 54.296 412.721 54.296C411.641 54.296 410.813 54.5 410.237 54.908C409.661 55.316 409.373 55.856 409.373 56.528C409.373 57.056 409.565 57.5 409.949 57.86C410.333 58.22 410.801 58.508 411.353 58.724C411.905 58.916 412.721 59.168 413.801 59.48C415.241 59.864 416.417 60.26 417.329 60.668C418.265 61.052 419.069 61.628 419.741 62.396C420.413 63.164 420.761 64.184 420.785 65.456C420.785 66.584 420.473 67.592 419.849 68.48C419.225 69.368 418.337 70.064 417.185 70.568C416.057 71.072 414.725 71.324 413.189 71.324ZM426.876 71.252C426.132 71.252 425.508 71 425.004 70.496C424.5 69.992 424.248 69.368 424.248 68.624C424.248 67.88 424.5 67.256 425.004 66.752C425.508 66.248 426.132 65.996 426.876 65.996C427.596 65.996 428.208 66.248 428.712 66.752C429.216 67.256 429.468 67.88 429.468 68.624C429.468 69.368 429.216 69.992 428.712 70.496C428.208 71 427.596 71.252 426.876 71.252Z" fill="url(#paint0_linear_58_13849)"/>
<defs>
<linearGradient id="paint0_linear_58_13849" x1="-32" y1="35.5" x2="461" y2="35.5" gradientUnits="userSpaceOnUse">
<stop stop-color="#7687B5"/>
<stop offset="0.42" stop-color="#91B0FF"/>
<stop offset="1" stop-color="#E2E8F8"/>
</linearGradient>
</defs>
</svg>
