<svg width="96" height="34" viewBox="0 0 96 34" fill="none" xmlns="http://www.w3.org/2000/svg">
<rect width="96" height="34" rx="15" fill="url(#paint0_linear_123_55555)" fill-opacity="0.15"/>
<rect x="0.5" y="0.5" width="95" height="33" rx="14.5" stroke="white" stroke-opacity="0.05"/>
<path d="M28.4443 20.07C27.9776 20.07 27.5576 19.99 27.1843 19.83C26.811 19.6633 26.5176 19.43 26.3043 19.13C26.091 18.83 25.9843 18.48 25.9843 18.08H27.2043C27.231 18.38 27.3476 18.6267 27.5543 18.82C27.7676 19.0133 28.0643 19.11 28.4443 19.11C28.8376 19.11 29.1443 19.0167 29.3643 18.83C29.5843 18.6367 29.6943 18.39 29.6943 18.09C29.6943 17.8567 29.6243 17.6667 29.4843 17.52C29.351 17.3733 29.181 17.26 28.9743 17.18C28.7743 17.1 28.4943 17.0133 28.1343 16.92C27.681 16.8 27.311 16.68 27.0243 16.56C26.7443 16.4333 26.5043 16.24 26.3043 15.98C26.1043 15.72 26.0043 15.3733 26.0043 14.94C26.0043 14.54 26.1043 14.19 26.3043 13.89C26.5043 13.59 26.7843 13.36 27.1443 13.2C27.5043 13.04 27.921 12.96 28.3943 12.96C29.0676 12.96 29.6176 13.13 30.0443 13.47C30.4776 13.8033 30.7176 14.2633 30.7643 14.85H29.5043C29.4843 14.5967 29.3643 14.38 29.1443 14.2C28.9243 14.02 28.6343 13.93 28.2743 13.93C27.9476 13.93 27.681 14.0133 27.4743 14.18C27.2676 14.3467 27.1643 14.5867 27.1643 14.9C27.1643 15.1133 27.2276 15.29 27.3543 15.43C27.4876 15.5633 27.6543 15.67 27.8543 15.75C28.0543 15.83 28.3276 15.9167 28.6743 16.01C29.1343 16.1367 29.5076 16.2633 29.7943 16.39C30.0876 16.5167 30.3343 16.7133 30.5343 16.98C30.741 17.24 30.8443 17.59 30.8443 18.03C30.8443 18.3833 30.7476 18.7167 30.5543 19.03C30.3676 19.3433 30.091 19.5967 29.7243 19.79C29.3643 19.9767 28.9376 20.07 28.4443 20.07ZM33.3295 13.97V16.01H35.7295V16.94H33.3295V19.07H36.0295V20H32.1895V13.04H36.0295V13.97H33.3295ZM41.0436 20L39.4436 17.22H38.5736V20H37.4336V13.05H39.8336C40.3669 13.05 40.8169 13.1433 41.1836 13.33C41.5569 13.5167 41.8336 13.7667 42.0136 14.08C42.2003 14.3933 42.2936 14.7433 42.2936 15.13C42.2936 15.5833 42.1603 15.9967 41.8936 16.37C41.6336 16.7367 41.2303 16.9867 40.6836 17.12L42.4036 20H41.0436ZM38.5736 16.31H39.8336C40.2603 16.31 40.5803 16.2033 40.7936 15.99C41.0136 15.7767 41.1236 15.49 41.1236 15.13C41.1236 14.77 41.0169 14.49 40.8036 14.29C40.5903 14.0833 40.2669 13.98 39.8336 13.98H38.5736V16.31ZM49.742 13.05L47.132 20H45.812L43.192 13.05H44.412L46.472 18.83L48.542 13.05H49.742ZM51.8353 13.05V20H50.6953V13.05H51.8353ZM52.952 16.51C52.952 15.83 53.1087 15.22 53.422 14.68C53.742 14.14 54.172 13.72 54.712 13.42C55.2587 13.1133 55.8554 12.96 56.502 12.96C57.242 12.96 57.8987 13.1433 58.472 13.51C59.052 13.87 59.472 14.3833 59.732 15.05H58.362C58.182 14.6833 57.932 14.41 57.612 14.23C57.292 14.05 56.922 13.96 56.502 13.96C56.042 13.96 55.632 14.0633 55.272 14.27C54.912 14.4767 54.6287 14.7733 54.422 15.16C54.222 15.5467 54.122 15.9967 54.122 16.51C54.122 17.0233 54.222 17.4733 54.422 17.86C54.6287 18.2467 54.912 18.5467 55.272 18.76C55.632 18.9667 56.042 19.07 56.502 19.07C56.922 19.07 57.292 18.98 57.612 18.8C57.932 18.62 58.182 18.3467 58.362 17.98H59.732C59.472 18.6467 59.052 19.16 58.472 19.52C57.8987 19.88 57.242 20.06 56.502 20.06C55.8487 20.06 55.252 19.91 54.712 19.61C54.172 19.3033 53.742 18.88 53.422 18.34C53.1087 17.8 52.952 17.19 52.952 16.51ZM62.2064 13.97V16.01H64.6064V16.94H62.2064V19.07H64.9064V20H61.0664V13.04H64.9064V13.97H62.2064ZM68.6005 20.07C68.1339 20.07 67.7139 19.99 67.3405 19.83C66.9672 19.6633 66.6739 19.43 66.4605 19.13C66.2472 18.83 66.1405 18.48 66.1405 18.08H67.3605C67.3872 18.38 67.5039 18.6267 67.7105 18.82C67.9239 19.0133 68.2205 19.11 68.6005 19.11C68.9939 19.11 69.3005 19.0167 69.5205 18.83C69.7405 18.6367 69.8505 18.39 69.8505 18.09C69.8505 17.8567 69.7805 17.6667 69.6405 17.52C69.5072 17.3733 69.3372 17.26 69.1305 17.18C68.9305 17.1 68.6505 17.0133 68.2905 16.92C67.8372 16.8 67.4672 16.68 67.1805 16.56C66.9005 16.4333 66.6605 16.24 66.4605 15.98C66.2605 15.72 66.1605 15.3733 66.1605 14.94C66.1605 14.54 66.2605 14.19 66.4605 13.89C66.6605 13.59 66.9405 13.36 67.3005 13.2C67.6605 13.04 68.0772 12.96 68.5505 12.96C69.2239 12.96 69.7739 13.13 70.2005 13.47C70.6339 13.8033 70.8739 14.2633 70.9205 14.85H69.6605C69.6405 14.5967 69.5205 14.38 69.3005 14.2C69.0805 14.02 68.7905 13.93 68.4305 13.93C68.1039 13.93 67.8372 14.0133 67.6305 14.18C67.4239 14.3467 67.3205 14.5867 67.3205 14.9C67.3205 15.1133 67.3839 15.29 67.5105 15.43C67.6439 15.5633 67.8105 15.67 68.0105 15.75C68.2105 15.83 68.4839 15.9167 68.8305 16.01C69.2905 16.1367 69.6639 16.2633 69.9505 16.39C70.2439 16.5167 70.4905 16.7133 70.6905 16.98C70.8972 17.24 71.0005 17.59 71.0005 18.03C71.0005 18.3833 70.9039 18.7167 70.7105 19.03C70.5239 19.3433 70.2472 19.5967 69.8805 19.79C69.5205 19.9767 69.0939 20.07 68.6005 20.07Z" fill="white"/>
<defs>
<linearGradient id="paint0_linear_123_55555" x1="0" y1="17" x2="96" y2="17" gradientUnits="userSpaceOnUse">
<stop stop-color="#8E8D8D"/>
<stop offset="1" stop-color="#282828"/>
</linearGradient>
</defs>
</svg>
