<svg width="163" height="38" viewBox="0 0 163 38" fill="none" xmlns="http://www.w3.org/2000/svg">
<g clip-path="url(#clip0_97_16606)">
<rect x="1" y="1" width="161" height="36" rx="18" fill="#7687B5" fill-opacity="0.29"/>
<path d="M26.4007 13.848V15.032H23.3607V25H21.9047V15.032H18.8487V13.848H26.4007ZM29.6489 17.656C29.9049 17.1547 30.2676 16.7653 30.7369 16.488C31.2169 16.2107 31.7983 16.072 32.4809 16.072V17.576H32.0969C30.4649 17.576 29.6489 18.4613 29.6489 20.232V25H28.1929V16.232H29.6489V17.656ZM41.7137 16.232L36.4337 29.128H34.9297L36.6577 24.904L33.1217 16.232H34.7377L37.4897 23.336L40.2097 16.232H41.7137ZM56.2109 25H54.7549L48.8989 16.12V25H47.4429V13.832H48.8989L54.7549 22.696V13.832H56.2109V25ZM62.5169 25.144C61.6956 25.144 60.9489 24.9573 60.2769 24.584C59.6156 24.2107 59.0929 23.6827 58.7089 23C58.3356 22.3067 58.1489 21.5067 58.1489 20.6C58.1489 19.704 58.3409 18.9147 58.7249 18.232C59.1196 17.5387 59.6529 17.0107 60.3249 16.648C60.9969 16.2747 61.7489 16.088 62.5809 16.088C63.4129 16.088 64.1649 16.2747 64.8369 16.648C65.5089 17.0107 66.0369 17.5333 66.4209 18.216C66.8156 18.8987 67.0129 19.6933 67.0129 20.6C67.0129 21.5067 66.8103 22.3067 66.4049 23C66.0103 23.6827 65.4716 24.2107 64.7889 24.584C64.1063 24.9573 63.3489 25.144 62.5169 25.144ZM62.5169 23.864C63.0396 23.864 63.5303 23.7413 63.9889 23.496C64.4476 23.2507 64.8156 22.8827 65.0929 22.392C65.3809 21.9013 65.5249 21.304 65.5249 20.6C65.5249 19.896 65.3863 19.2987 65.1089 18.808C64.8316 18.3173 64.4689 17.9547 64.0209 17.72C63.5729 17.4747 63.0876 17.352 62.5649 17.352C62.0316 17.352 61.5409 17.4747 61.0929 17.72C60.6556 17.9547 60.3036 18.3173 60.0369 18.808C59.7703 19.2987 59.6369 19.896 59.6369 20.6C59.6369 21.3147 59.7649 21.9173 60.0209 22.408C60.2876 22.8987 60.6396 23.2667 61.0769 23.512C61.5143 23.7467 61.9943 23.864 62.5169 23.864ZM80.6073 16.232L77.8713 25H76.3673L74.2553 18.04L72.1433 25H70.6393L67.8873 16.232H69.3753L71.3913 23.592L73.5673 16.232H75.0553L77.1833 23.608L79.1673 16.232H80.6073ZM89.8859 17.432H88.0459V25H86.5899V17.432H85.4539V16.232H86.5899V15.608C86.5899 14.6267 86.8406 13.912 87.3419 13.464C87.8539 13.0053 88.6699 12.776 89.7899 12.776V13.992C89.1499 13.992 88.6966 14.12 88.4299 14.376C88.1739 14.6213 88.0459 15.032 88.0459 15.608V16.232H89.8859V17.432ZM95.4076 25.144C94.5862 25.144 93.8396 24.9573 93.1676 24.584C92.5062 24.2107 91.9836 23.6827 91.5996 23C91.2262 22.3067 91.0396 21.5067 91.0396 20.6C91.0396 19.704 91.2316 18.9147 91.6156 18.232C92.0102 17.5387 92.5436 17.0107 93.2156 16.648C93.8876 16.2747 94.6396 16.088 95.4716 16.088C96.3036 16.088 97.0556 16.2747 97.7276 16.648C98.3996 17.0107 98.9276 17.5333 99.3116 18.216C99.7062 18.8987 99.9036 19.6933 99.9036 20.6C99.9036 21.5067 99.7009 22.3067 99.2956 23C98.9009 23.6827 98.3622 24.2107 97.6796 24.584C96.9969 24.9573 96.2396 25.144 95.4076 25.144ZM95.4076 23.864C95.9302 23.864 96.4209 23.7413 96.8796 23.496C97.3382 23.2507 97.7062 22.8827 97.9836 22.392C98.2716 21.9013 98.4156 21.304 98.4156 20.6C98.4156 19.896 98.2769 19.2987 97.9996 18.808C97.7222 18.3173 97.3596 17.9547 96.9116 17.72C96.4636 17.4747 95.9782 17.352 95.4556 17.352C94.9222 17.352 94.4316 17.4747 93.9836 17.72C93.5462 17.9547 93.1942 18.3173 92.9276 18.808C92.6609 19.2987 92.5276 19.896 92.5276 20.6C92.5276 21.3147 92.6556 21.9173 92.9116 22.408C93.1782 22.8987 93.5302 23.2667 93.9676 23.512C94.4049 23.7467 94.8849 23.864 95.4076 23.864ZM103.274 17.656C103.53 17.1547 103.893 16.7653 104.362 16.488C104.842 16.2107 105.423 16.072 106.106 16.072V17.576H105.722C104.09 17.576 103.274 18.4613 103.274 20.232V25H101.818V16.232H103.274V17.656ZM118.356 13.848V15.032H113.508V18.792H117.444V19.976H113.508V25H112.052V13.848H118.356ZM121.571 17.656C121.827 17.1547 122.189 16.7653 122.659 16.488C123.139 16.2107 123.72 16.072 124.403 16.072V17.576H124.019C122.387 17.576 121.571 18.4613 121.571 20.232V25H120.115V16.232H121.571V17.656ZM134.084 20.28C134.084 20.5573 134.068 20.8507 134.036 21.16H127.028C127.081 22.024 127.374 22.7013 127.908 23.192C128.452 23.672 129.108 23.912 129.876 23.912C130.505 23.912 131.028 23.768 131.444 23.48C131.87 23.1813 132.169 22.7867 132.34 22.296H133.908C133.673 23.1387 133.204 23.8267 132.5 24.36C131.796 24.8827 130.921 25.144 129.876 25.144C129.044 25.144 128.297 24.9573 127.636 24.584C126.985 24.2107 126.473 23.6827 126.1 23C125.726 22.3067 125.54 21.5067 125.54 20.6C125.54 19.6933 125.721 18.8987 126.084 18.216C126.446 17.5333 126.953 17.0107 127.604 16.648C128.265 16.2747 129.022 16.088 129.876 16.088C130.708 16.088 131.444 16.2693 132.084 16.632C132.724 16.9947 133.214 17.496 133.556 18.136C133.908 18.7653 134.084 19.48 134.084 20.28ZM132.58 19.976C132.58 19.4213 132.457 18.9467 132.212 18.552C131.966 18.1467 131.63 17.8427 131.204 17.64C130.788 17.4267 130.324 17.32 129.812 17.32C129.076 17.32 128.446 17.5547 127.924 18.024C127.412 18.4933 127.118 19.144 127.044 19.976H132.58ZM144.005 20.28C144.005 20.5573 143.989 20.8507 143.957 21.16H136.949C137.003 22.024 137.296 22.7013 137.829 23.192C138.373 23.672 139.029 23.912 139.797 23.912C140.427 23.912 140.949 23.768 141.365 23.48C141.792 23.1813 142.091 22.7867 142.261 22.296H143.829C143.595 23.1387 143.125 23.8267 142.421 24.36C141.717 24.8827 140.843 25.144 139.797 25.144C138.965 25.144 138.219 24.9573 137.557 24.584C136.907 24.2107 136.395 23.6827 136.021 23C135.648 22.3067 135.461 21.5067 135.461 20.6C135.461 19.6933 135.643 18.8987 136.005 18.216C136.368 17.5333 136.875 17.0107 137.525 16.648C138.187 16.2747 138.944 16.088 139.797 16.088C140.629 16.088 141.365 16.2693 142.005 16.632C142.645 16.9947 143.136 17.496 143.477 18.136C143.829 18.7653 144.005 19.48 144.005 20.28ZM142.501 19.976C142.501 19.4213 142.379 18.9467 142.133 18.552C141.888 18.1467 141.552 17.8427 141.125 17.64C140.709 17.4267 140.245 17.32 139.733 17.32C138.997 17.32 138.368 17.5547 137.845 18.024C137.333 18.4933 137.04 19.144 136.965 19.976H142.501Z" fill="#E2E8F8"/>
<g filter="url(#filter0_f_97_16606)">
<ellipse cx="81.5" cy="49" rx="35.5" ry="5" fill="#E6EDFF"/>
</g>
</g>
<rect x="0.5" y="0.5" width="162" height="37" rx="18.5" stroke="#7687B5"/>
<defs>
<filter id="filter0_f_97_16606" x="19.8" y="17.8" width="123.4" height="62.4" filterUnits="userSpaceOnUse" color-interpolation-filters="sRGB">
<feFlood flood-opacity="0" result="BackgroundImageFix"/>
<feBlend mode="normal" in="SourceGraphic" in2="BackgroundImageFix" result="shape"/>
<feGaussianBlur stdDeviation="13.1" result="effect1_foregroundBlur_97_16606"/>
</filter>
<clipPath id="clip0_97_16606">
<rect x="1" y="1" width="161" height="36" rx="18" fill="white"/>
</clipPath>
</defs>
</svg>
