<svg width="154" height="34" viewBox="0 0 154 34" fill="none" xmlns="http://www.w3.org/2000/svg">
<rect width="154" height="34" rx="15" fill="url(#paint0_linear_123_56374)" fill-opacity="0.15"/>
<rect x="0.5" y="0.5" width="153" height="33" rx="14.5" stroke="white" stroke-opacity="0.05"/>
<path d="M18.3775 18.58H15.4675L14.9675 20H13.7775L16.2675 13.04H17.5875L20.0775 20H18.8775L18.3775 18.58ZM18.0575 17.65L16.9275 14.42L15.7875 17.65H18.0575ZM22.3002 13.05V20H21.1602V13.05H22.3002ZM28.6645 13.05C29.4045 13.05 30.0512 13.1933 30.6045 13.48C31.1645 13.76 31.5945 14.1667 31.8945 14.7C32.2012 15.2267 32.3545 15.8433 32.3545 16.55C32.3545 17.2567 32.2012 17.87 31.8945 18.39C31.5945 18.91 31.1645 19.31 30.6045 19.59C30.0512 19.8633 29.4045 20 28.6645 20H26.3945V13.05H28.6645ZM28.6645 19.07C29.4779 19.07 30.1012 18.85 30.5345 18.41C30.9679 17.97 31.1845 17.35 31.1845 16.55C31.1845 15.7433 30.9679 15.1133 30.5345 14.66C30.1012 14.2067 29.4779 13.98 28.6645 13.98H27.5345V19.07H28.6645ZM34.6244 13.97V16.01H37.0244V16.94H34.6244V19.07H37.3244V20H33.4844V13.04H37.3244V13.97H34.6244ZM44.7185 13.05L42.1085 20H40.7885L38.1685 13.05H39.3885L41.4485 18.83L43.5185 13.05H44.7185ZM46.8119 13.97V16.01H49.2119V16.94H46.8119V19.07H49.5119V20H45.6719V13.04H49.5119V13.97H46.8119ZM52.056 19.08H54.406V20H50.916V13.05H52.056V19.08ZM58.5294 20.07C57.8827 20.07 57.286 19.92 56.7394 19.62C56.1994 19.3133 55.7694 18.89 55.4494 18.35C55.136 17.8033 54.9794 17.19 54.9794 16.51C54.9794 15.83 55.136 15.22 55.4494 14.68C55.7694 14.14 56.1994 13.72 56.7394 13.42C57.286 13.1133 57.8827 12.96 58.5294 12.96C59.1827 12.96 59.7794 13.1133 60.3194 13.42C60.866 13.72 61.296 14.14 61.6094 14.68C61.9227 15.22 62.0794 15.83 62.0794 16.51C62.0794 17.19 61.9227 17.8033 61.6094 18.35C61.296 18.89 60.866 19.3133 60.3194 19.62C59.7794 19.92 59.1827 20.07 58.5294 20.07ZM58.5294 19.08C58.9894 19.08 59.3994 18.9767 59.7594 18.77C60.1194 18.5567 60.3994 18.2567 60.5994 17.87C60.806 17.4767 60.9094 17.0233 60.9094 16.51C60.9094 15.9967 60.806 15.5467 60.5994 15.16C60.3994 14.7733 60.1194 14.4767 59.7594 14.27C59.3994 14.0633 58.9894 13.96 58.5294 13.96C58.0694 13.96 57.6594 14.0633 57.2994 14.27C56.9394 14.4767 56.656 14.7733 56.4494 15.16C56.2494 15.5467 56.1494 15.9967 56.1494 16.51C56.1494 17.0233 56.2494 17.4767 56.4494 17.87C56.656 18.2567 56.9394 18.5567 57.2994 18.77C57.6594 18.9767 58.0694 19.08 58.5294 19.08ZM68.0612 15.12C68.0612 15.4733 67.9778 15.8067 67.8112 16.12C67.6445 16.4333 67.3778 16.69 67.0112 16.89C66.6445 17.0833 66.1745 17.18 65.6012 17.18H64.3412V20H63.2012V13.05H65.6012C66.1345 13.05 66.5845 13.1433 66.9512 13.33C67.3245 13.51 67.6012 13.7567 67.7812 14.07C67.9678 14.3833 68.0612 14.7333 68.0612 15.12ZM65.6012 16.25C66.0345 16.25 66.3578 16.1533 66.5712 15.96C66.7845 15.76 66.8912 15.48 66.8912 15.12C66.8912 14.36 66.4612 13.98 65.6012 13.98H64.3412V16.25H65.6012ZM76.4684 13.05V20H75.3284V15.24L73.2084 20H72.4184L70.2884 15.24V20H69.1484V13.05H70.3784L72.8184 18.5L75.2484 13.05H76.4684ZM79.1068 13.97V16.01H81.5068V16.94H79.1068V19.07H81.8068V20H77.9668V13.04H81.8068V13.97H79.1068ZM88.9209 20H87.7809L84.3509 14.81V20H83.2109V13.04H84.3509L87.7809 18.22V13.04H88.9209V20ZM94.908 13.05V13.98H93.058V20H91.918V13.98H90.058V13.05H94.908ZM103.52 15.12C103.52 15.4733 103.437 15.8067 103.27 16.12C103.103 16.4333 102.837 16.69 102.47 16.89C102.103 17.0833 101.633 17.18 101.06 17.18H99.8002V20H98.6602V13.05H101.06C101.593 13.05 102.043 13.1433 102.41 13.33C102.783 13.51 103.06 13.7567 103.24 14.07C103.427 14.3833 103.52 14.7333 103.52 15.12ZM101.06 16.25C101.493 16.25 101.817 16.1533 102.03 15.96C102.243 15.76 102.35 15.48 102.35 15.12C102.35 14.36 101.92 13.98 101.06 13.98H99.8002V16.25H101.06ZM108.797 18.58H105.887L105.387 20H104.197L106.687 13.04H108.007L110.497 20H109.297L108.797 18.58ZM108.477 17.65L107.347 14.42L106.207 17.65H108.477ZM115.19 20L113.59 17.22H112.72V20H111.58V13.05H113.98C114.513 13.05 114.963 13.1433 115.33 13.33C115.703 13.5167 115.98 13.7667 116.16 14.08C116.347 14.3933 116.44 14.7433 116.44 15.13C116.44 15.5833 116.307 15.9967 116.04 16.37C115.78 16.7367 115.377 16.9867 114.83 17.12L116.55 20H115.19ZM112.72 16.31H113.98C114.407 16.31 114.727 16.2033 114.94 15.99C115.16 15.7767 115.27 15.49 115.27 15.13C115.27 14.77 115.163 14.49 114.95 14.29C114.737 14.0833 114.413 13.98 113.98 13.98H112.72V16.31ZM122.388 13.05V13.98H120.538V20H119.398V13.98H117.538V13.05H122.388ZM129.253 20H128.113L124.683 14.81V20H123.543V13.04H124.683L128.113 18.22V13.04H129.253V20ZM131.89 13.97V16.01H134.29V16.94H131.89V19.07H134.59V20H130.75V13.04H134.59V13.97H131.89ZM139.604 20L138.004 17.22H137.134V20H135.994V13.05H138.394C138.927 13.05 139.377 13.1433 139.744 13.33C140.117 13.5167 140.394 13.7667 140.574 14.08C140.761 14.3933 140.854 14.7433 140.854 15.13C140.854 15.5833 140.721 15.9967 140.454 16.37C140.194 16.7367 139.791 16.9867 139.244 17.12L140.964 20H139.604ZM137.134 16.31H138.394C138.821 16.31 139.141 16.2033 139.354 15.99C139.574 15.7767 139.684 15.49 139.684 15.13C139.684 14.77 139.577 14.49 139.364 14.29C139.151 14.0833 138.827 13.98 138.394 13.98H137.134V16.31Z" fill="white"/>
<defs>
<linearGradient id="paint0_linear_123_56374" x1="0" y1="17" x2="154" y2="17" gradientUnits="userSpaceOnUse">
<stop stop-color="#8E8D8D"/>
<stop offset="1" stop-color="#282828"/>
</linearGradient>
</defs>
</svg>
