<svg width="96" height="34" viewBox="0 0 96 34" fill="none" xmlns="http://www.w3.org/2000/svg">
<rect width="96" height="34" rx="15" fill="url(#paint0_linear_123_55951)" fill-opacity="0.15"/>
<rect x="0.5" y="0.5" width="95" height="33" rx="14.5" stroke="white" stroke-opacity="0.05"/>
<path d="M18.6599 13.05V13.98H16.8099V20H15.6699V13.98H13.8099V13.05H18.6599ZM20.9545 13.97V16.01H23.3545V16.94H20.9545V19.07H23.6545V20H19.8145V13.04H23.6545V13.97H20.9545ZM27.3486 20.07C26.8819 20.07 26.4619 19.99 26.0886 19.83C25.7153 19.6633 25.4219 19.43 25.2086 19.13C24.9953 18.83 24.8886 18.48 24.8886 18.08H26.1086C26.1353 18.38 26.2519 18.6267 26.4586 18.82C26.6719 19.0133 26.9686 19.11 27.3486 19.11C27.7419 19.11 28.0486 19.0167 28.2686 18.83C28.4886 18.6367 28.5986 18.39 28.5986 18.09C28.5986 17.8567 28.5286 17.6667 28.3886 17.52C28.2553 17.3733 28.0853 17.26 27.8786 17.18C27.6786 17.1 27.3986 17.0133 27.0386 16.92C26.5853 16.8 26.2153 16.68 25.9286 16.56C25.6486 16.4333 25.4086 16.24 25.2086 15.98C25.0086 15.72 24.9086 15.3733 24.9086 14.94C24.9086 14.54 25.0086 14.19 25.2086 13.89C25.4086 13.59 25.6886 13.36 26.0486 13.2C26.4086 13.04 26.8253 12.96 27.2986 12.96C27.9719 12.96 28.5219 13.13 28.9486 13.47C29.3819 13.8033 29.6219 14.2633 29.6686 14.85H28.4086C28.3886 14.5967 28.2686 14.38 28.0486 14.2C27.8286 14.02 27.5386 13.93 27.1786 13.93C26.8519 13.93 26.5853 14.0133 26.3786 14.18C26.1719 14.3467 26.0686 14.5867 26.0686 14.9C26.0686 15.1133 26.1319 15.29 26.2586 15.43C26.3919 15.5633 26.5586 15.67 26.7586 15.75C26.9586 15.83 27.2319 15.9167 27.5786 16.01C28.0386 16.1367 28.4119 16.2633 28.6986 16.39C28.9919 16.5167 29.2386 16.7133 29.4386 16.98C29.6453 17.24 29.7486 17.59 29.7486 18.03C29.7486 18.3833 29.6519 18.7167 29.4586 19.03C29.2719 19.3433 28.9953 19.5967 28.6286 19.79C28.2686 19.9767 27.8419 20.07 27.3486 20.07ZM35.5838 13.05V13.98H33.7338V20H32.5938V13.98H30.7338V13.05H35.5838ZM37.8783 13.05V20H36.7383V13.05H37.8783ZM45.085 20H43.945L40.515 14.81V20H39.375V13.04H40.515L43.945 18.22V13.04H45.085V20ZM49.752 20.07C49.1054 20.07 48.5087 19.92 47.962 19.62C47.422 19.3133 46.992 18.89 46.672 18.35C46.3587 17.8033 46.202 17.19 46.202 16.51C46.202 15.83 46.3587 15.22 46.672 14.68C46.992 14.14 47.422 13.72 47.962 13.42C48.5087 13.1133 49.1054 12.96 49.752 12.96C50.4054 12.96 51.002 13.1133 51.542 13.42C52.0887 13.72 52.5187 14.14 52.832 14.68C53.1454 15.22 53.302 15.83 53.302 16.51C53.302 17.19 53.1454 17.8033 52.832 18.35C52.5187 18.89 52.0887 19.3133 51.542 19.62C51.002 19.92 50.4054 20.07 49.752 20.07ZM49.752 19.08C50.212 19.08 50.622 18.9767 50.982 18.77C51.342 18.5567 51.622 18.2567 51.822 17.87C52.0287 17.4767 52.132 17.0233 52.132 16.51C52.132 15.9967 52.0287 15.5467 51.822 15.16C51.622 14.7733 51.342 14.4767 50.982 14.27C50.622 14.0633 50.212 13.96 49.752 13.96C49.292 13.96 48.882 14.0633 48.522 14.27C48.162 14.4767 47.8787 14.7733 47.672 15.16C47.472 15.5467 47.372 15.9967 47.372 16.51C47.372 17.0233 47.472 17.4767 47.672 17.87C47.8787 18.2567 48.162 18.5567 48.522 18.77C48.882 18.9767 49.292 19.08 49.752 19.08ZM61.7438 13.05V20H60.6038V15.24L58.4838 20H57.6938L55.5638 15.24V20H54.4238V13.05H55.6538L58.0938 18.5L60.5238 13.05H61.7438ZM64.3822 13.05V20H63.2422V13.05H64.3822ZM70.0689 18.58H67.1589L66.6589 20H65.4689L67.9589 13.04H69.2789L71.7689 20H70.5689L70.0689 18.58ZM69.7489 17.65L68.6189 14.42L67.4789 17.65H69.7489ZM73.9916 19.08H76.3416V20H72.8516V13.05H73.9916V19.08ZM79.5849 20.07C79.1183 20.07 78.6983 19.99 78.3249 19.83C77.9516 19.6633 77.6583 19.43 77.4449 19.13C77.2316 18.83 77.1249 18.48 77.1249 18.08H78.3449C78.3716 18.38 78.4883 18.6267 78.6949 18.82C78.9083 19.0133 79.2049 19.11 79.5849 19.11C79.9783 19.11 80.2849 19.0167 80.5049 18.83C80.7249 18.6367 80.8349 18.39 80.8349 18.09C80.8349 17.8567 80.7649 17.6667 80.6249 17.52C80.4916 17.3733 80.3216 17.26 80.1149 17.18C79.9149 17.1 79.6349 17.0133 79.2749 16.92C78.8216 16.8 78.4516 16.68 78.1649 16.56C77.8849 16.4333 77.6449 16.24 77.4449 15.98C77.2449 15.72 77.1449 15.3733 77.1449 14.94C77.1449 14.54 77.2449 14.19 77.4449 13.89C77.6449 13.59 77.9249 13.36 78.2849 13.2C78.6449 13.04 79.0616 12.96 79.5349 12.96C80.2083 12.96 80.7583 13.13 81.1849 13.47C81.6183 13.8033 81.8583 14.2633 81.9049 14.85H80.6449C80.6249 14.5967 80.5049 14.38 80.2849 14.2C80.0649 14.02 79.7749 13.93 79.4149 13.93C79.0883 13.93 78.8216 14.0133 78.6149 14.18C78.4083 14.3467 78.3049 14.5867 78.3049 14.9C78.3049 15.1133 78.3683 15.29 78.4949 15.43C78.6283 15.5633 78.7949 15.67 78.9949 15.75C79.1949 15.83 79.4683 15.9167 79.8149 16.01C80.2749 16.1367 80.6483 16.2633 80.9349 16.39C81.2283 16.5167 81.4749 16.7133 81.6749 16.98C81.8816 17.24 81.9849 17.59 81.9849 18.03C81.9849 18.3833 81.8883 18.7167 81.6949 19.03C81.5083 19.3433 81.2316 19.5967 80.8649 19.79C80.5049 19.9767 80.0783 20.07 79.5849 20.07Z" fill="white"/>
<defs>
<linearGradient id="paint0_linear_123_55951" x1="0" y1="17" x2="96" y2="17" gradientUnits="userSpaceOnUse">
<stop stop-color="#8E8D8D"/>
<stop offset="1" stop-color="#282828"/>
</linearGradient>
</defs>
</svg>
