<svg width="96" height="34" viewBox="0 0 96 34" fill="none" xmlns="http://www.w3.org/2000/svg">
<rect width="96" height="34" rx="15" fill="url(#paint0_linear_123_55551)" fill-opacity="0.15"/>
<rect x="0.5" y="0.5" width="95" height="33" rx="14.5" stroke="white" stroke-opacity="0.05"/>
<path d="M29.0851 13.05V13.98H26.1351V16.03H28.4351V16.96H26.1351V20H24.9951V13.05H29.0851ZM31.2816 13.97V16.01H33.6816V16.94H31.2816V19.07H33.9816V20H30.1416V13.04H33.9816V13.97H31.2816ZM39.5757 18.58H36.6657L36.1657 20H34.9757L37.4657 13.04H38.7857L41.2757 20H40.0757L39.5757 18.58ZM39.2557 17.65L38.1257 14.42L36.9857 17.65H39.2557ZM46.8484 13.05V13.98H44.9984V20H43.8584V13.98H41.9984V13.05H46.8484ZM49.1329 13.05V17.48C49.1329 18.0067 49.2696 18.4033 49.5429 18.67C49.8229 18.9367 50.2096 19.07 50.7029 19.07C51.2029 19.07 51.5896 18.9367 51.8629 18.67C52.1429 18.4033 52.2829 18.0067 52.2829 17.48V13.05H53.4229V17.46C53.4229 18.0267 53.2996 18.5067 53.0529 18.9C52.8063 19.2933 52.4763 19.5867 52.0629 19.78C51.6496 19.9733 51.1929 20.07 50.6929 20.07C50.1929 20.07 49.7363 19.9733 49.3229 19.78C48.9163 19.5867 48.5929 19.2933 48.3529 18.9C48.1129 18.5067 47.9929 18.0267 47.9929 17.46V13.05H49.1329ZM58.5172 20L56.9172 17.22H56.0472V20H54.9072V13.05H57.3072C57.8406 13.05 58.2906 13.1433 58.6572 13.33C59.0306 13.5167 59.3072 13.7667 59.4872 14.08C59.6739 14.3933 59.7672 14.7433 59.7672 15.13C59.7672 15.5833 59.6339 15.9967 59.3672 16.37C59.1072 16.7367 58.7039 16.9867 58.1572 17.12L59.8772 20H58.5172ZM56.0472 16.31H57.3072C57.7339 16.31 58.0539 16.2033 58.2672 15.99C58.4872 15.7767 58.5972 15.49 58.5972 15.13C58.5972 14.77 58.4906 14.49 58.2772 14.29C58.0639 14.0833 57.7406 13.98 57.3072 13.98H56.0472V16.31ZM62.3656 13.97V16.01H64.7656V16.94H62.3656V19.07H65.0656V20H61.2256V13.04H65.0656V13.97H62.3656ZM68.7597 20.07C68.2931 20.07 67.8731 19.99 67.4997 19.83C67.1264 19.6633 66.8331 19.43 66.6197 19.13C66.4064 18.83 66.2997 18.48 66.2997 18.08H67.5197C67.5464 18.38 67.6631 18.6267 67.8697 18.82C68.0831 19.0133 68.3797 19.11 68.7597 19.11C69.1531 19.11 69.4597 19.0167 69.6797 18.83C69.8997 18.6367 70.0097 18.39 70.0097 18.09C70.0097 17.8567 69.9397 17.6667 69.7997 17.52C69.6664 17.3733 69.4964 17.26 69.2897 17.18C69.0897 17.1 68.8097 17.0133 68.4497 16.92C67.9964 16.8 67.6264 16.68 67.3397 16.56C67.0597 16.4333 66.8197 16.24 66.6197 15.98C66.4197 15.72 66.3197 15.3733 66.3197 14.94C66.3197 14.54 66.4197 14.19 66.6197 13.89C66.8197 13.59 67.0997 13.36 67.4597 13.2C67.8197 13.04 68.2364 12.96 68.7097 12.96C69.3831 12.96 69.9331 13.13 70.3597 13.47C70.7931 13.8033 71.0331 14.2633 71.0797 14.85H69.8197C69.7997 14.5967 69.6797 14.38 69.4597 14.2C69.2397 14.02 68.9497 13.93 68.5897 13.93C68.2631 13.93 67.9964 14.0133 67.7897 14.18C67.5831 14.3467 67.4797 14.5867 67.4797 14.9C67.4797 15.1133 67.5431 15.29 67.6697 15.43C67.8031 15.5633 67.9697 15.67 68.1697 15.75C68.3697 15.83 68.6431 15.9167 68.9897 16.01C69.4497 16.1367 69.8231 16.2633 70.1097 16.39C70.4031 16.5167 70.6497 16.7133 70.8497 16.98C71.0564 17.24 71.1597 17.59 71.1597 18.03C71.1597 18.3833 71.0631 18.7167 70.8697 19.03C70.6831 19.3433 70.4064 19.5967 70.0397 19.79C69.6797 19.9767 69.2531 20.07 68.7597 20.07Z" fill="white"/>
<defs>
<linearGradient id="paint0_linear_123_55551" x1="0" y1="17" x2="96" y2="17" gradientUnits="userSpaceOnUse">
<stop stop-color="#8E8D8D"/>
<stop offset="1" stop-color="#282828"/>
</linearGradient>
</defs>
</svg>
