<svg width="96" height="34" viewBox="0 0 96 34" fill="none" xmlns="http://www.w3.org/2000/svg">
<rect width="96" height="34" rx="15" fill="url(#paint0_linear_123_56118)" fill-opacity="0.15"/>
<rect x="0.5" y="0.5" width="95" height="33" rx="14.5" stroke="white" stroke-opacity="0.05"/>
<path d="M16.7118 16.51C16.7118 15.83 16.8685 15.22 17.1818 14.68C17.5018 14.14 17.9318 13.72 18.4718 13.42C19.0185 13.1133 19.6151 12.96 20.2618 12.96C21.0018 12.96 21.6585 13.1433 22.2318 13.51C22.8118 13.87 23.2318 14.3833 23.4918 15.05H22.1218C21.9418 14.6833 21.6918 14.41 21.3718 14.23C21.0518 14.05 20.6818 13.96 20.2618 13.96C19.8018 13.96 19.3918 14.0633 19.0318 14.27C18.6718 14.4767 18.3885 14.7733 18.1818 15.16C17.9818 15.5467 17.8818 15.9967 17.8818 16.51C17.8818 17.0233 17.9818 17.4733 18.1818 17.86C18.3885 18.2467 18.6718 18.5467 19.0318 18.76C19.3918 18.9667 19.8018 19.07 20.2618 19.07C20.6818 19.07 21.0518 18.98 21.3718 18.8C21.6918 18.62 21.9418 18.3467 22.1218 17.98H23.4918C23.2318 18.6467 22.8118 19.16 22.2318 19.52C21.6585 19.88 21.0018 20.06 20.2618 20.06C19.6085 20.06 19.0118 19.91 18.4718 19.61C17.9318 19.3033 17.5018 18.88 17.1818 18.34C16.8685 17.8 16.7118 17.19 16.7118 16.51ZM27.9962 20.07C27.3495 20.07 26.7528 19.92 26.2062 19.62C25.6662 19.3133 25.2362 18.89 24.9162 18.35C24.6028 17.8033 24.4462 17.19 24.4462 16.51C24.4462 15.83 24.6028 15.22 24.9162 14.68C25.2362 14.14 25.6662 13.72 26.2062 13.42C26.7528 13.1133 27.3495 12.96 27.9962 12.96C28.6495 12.96 29.2462 13.1133 29.7862 13.42C30.3328 13.72 30.7628 14.14 31.0762 14.68C31.3895 15.22 31.5462 15.83 31.5462 16.51C31.5462 17.19 31.3895 17.8033 31.0762 18.35C30.7628 18.89 30.3328 19.3133 29.7862 19.62C29.2462 19.92 28.6495 20.07 27.9962 20.07ZM27.9962 19.08C28.4562 19.08 28.8662 18.9767 29.2262 18.77C29.5862 18.5567 29.8662 18.2567 30.0662 17.87C30.2728 17.4767 30.3762 17.0233 30.3762 16.51C30.3762 15.9967 30.2728 15.5467 30.0662 15.16C29.8662 14.7733 29.5862 14.4767 29.2262 14.27C28.8662 14.0633 28.4562 13.96 27.9962 13.96C27.5362 13.96 27.1262 14.0633 26.7662 14.27C26.4062 14.4767 26.1228 14.7733 25.9162 15.16C25.7162 15.5467 25.6162 15.9967 25.6162 16.51C25.6162 17.0233 25.7162 17.4767 25.9162 17.87C26.1228 18.2567 26.4062 18.5567 26.7662 18.77C27.1262 18.9767 27.5362 19.08 27.9962 19.08ZM38.378 20H37.238L33.808 14.81V20H32.668V13.04H33.808L37.238 18.22V13.04H38.378V20ZM44.365 13.05V13.98H42.515V20H41.375V13.98H39.515V13.05H44.365ZM49.7095 18.58H46.7995L46.2995 20H45.1095L47.5995 13.04H48.9195L51.4095 20H50.2095L49.7095 18.58ZM49.3895 17.65L48.2595 14.42L47.1195 17.65H49.3895ZM52.1122 16.51C52.1122 15.83 52.2689 15.22 52.5822 14.68C52.9022 14.14 53.3322 13.72 53.8722 13.42C54.4189 13.1133 55.0155 12.96 55.6622 12.96C56.4022 12.96 57.0589 13.1433 57.6322 13.51C58.2122 13.87 58.6322 14.3833 58.8922 15.05H57.5222C57.3422 14.6833 57.0922 14.41 56.7722 14.23C56.4522 14.05 56.0822 13.96 55.6622 13.96C55.2022 13.96 54.7922 14.0633 54.4322 14.27C54.0722 14.4767 53.7889 14.7733 53.5822 15.16C53.3822 15.5467 53.2822 15.9967 53.2822 16.51C53.2822 17.0233 53.3822 17.4733 53.5822 17.86C53.7889 18.2467 54.0722 18.5467 54.4322 18.76C54.7922 18.9667 55.2022 19.07 55.6622 19.07C56.0822 19.07 56.4522 18.98 56.7722 18.8C57.0922 18.62 57.3422 18.3467 57.5222 17.98H58.8922C58.6322 18.6467 58.2122 19.16 57.6322 19.52C57.0589 19.88 56.4022 20.06 55.6622 20.06C55.0089 20.06 54.4122 19.91 53.8722 19.61C53.3322 19.3033 52.9022 18.88 52.5822 18.34C52.2689 17.8 52.1122 17.19 52.1122 16.51ZM64.7166 13.05V13.98H62.8666V20H61.7266V13.98H59.8666V13.05H64.7166ZM69.5988 13.05V17.48C69.5988 18.0067 69.7354 18.4033 70.0088 18.67C70.2888 18.9367 70.6754 19.07 71.1688 19.07C71.6688 19.07 72.0554 18.9367 72.3288 18.67C72.6088 18.4033 72.7488 18.0067 72.7488 17.48V13.05H73.8888V17.46C73.8888 18.0267 73.7654 18.5067 73.5188 18.9C73.2721 19.2933 72.9421 19.5867 72.5288 19.78C72.1154 19.9733 71.6588 20.07 71.1588 20.07C70.6588 20.07 70.2021 19.9733 69.7888 19.78C69.3821 19.5867 69.0588 19.2933 68.8188 18.9C68.5788 18.5067 68.4588 18.0267 68.4588 17.46V13.05H69.5988ZM77.663 20.07C77.1964 20.07 76.7764 19.99 76.403 19.83C76.0297 19.6633 75.7364 19.43 75.523 19.13C75.3097 18.83 75.203 18.48 75.203 18.08H76.423C76.4497 18.38 76.5664 18.6267 76.773 18.82C76.9864 19.0133 77.283 19.11 77.663 19.11C78.0564 19.11 78.363 19.0167 78.583 18.83C78.803 18.6367 78.913 18.39 78.913 18.09C78.913 17.8567 78.843 17.6667 78.703 17.52C78.5697 17.3733 78.3997 17.26 78.193 17.18C77.993 17.1 77.713 17.0133 77.353 16.92C76.8997 16.8 76.5297 16.68 76.243 16.56C75.963 16.4333 75.723 16.24 75.523 15.98C75.323 15.72 75.223 15.3733 75.223 14.94C75.223 14.54 75.323 14.19 75.523 13.89C75.723 13.59 76.003 13.36 76.363 13.2C76.723 13.04 77.1397 12.96 77.613 12.96C78.2864 12.96 78.8364 13.13 79.263 13.47C79.6964 13.8033 79.9364 14.2633 79.983 14.85H78.723C78.703 14.5967 78.583 14.38 78.363 14.2C78.143 14.02 77.853 13.93 77.493 13.93C77.1664 13.93 76.8997 14.0133 76.693 14.18C76.4864 14.3467 76.383 14.5867 76.383 14.9C76.383 15.1133 76.4464 15.29 76.573 15.43C76.7064 15.5633 76.873 15.67 77.073 15.75C77.273 15.83 77.5464 15.9167 77.893 16.01C78.353 16.1367 78.7264 16.2633 79.013 16.39C79.3064 16.5167 79.553 16.7133 79.753 16.98C79.9597 17.24 80.063 17.59 80.063 18.03C80.063 18.3833 79.9664 18.7167 79.773 19.03C79.5864 19.3433 79.3097 19.5967 78.943 19.79C78.583 19.9767 78.1564 20.07 77.663 20.07Z" fill="white"/>
<defs>
<linearGradient id="paint0_linear_123_56118" x1="0" y1="17" x2="96" y2="17" gradientUnits="userSpaceOnUse">
<stop stop-color="#8E8D8D"/>
<stop offset="1" stop-color="#282828"/>
</linearGradient>
</defs>
</svg>
