<svg width="96" height="34" viewBox="0 0 96 34" fill="none" xmlns="http://www.w3.org/2000/svg">
<rect width="96" height="34" rx="15" fill="url(#paint0_linear_123_55557)" fill-opacity="0.15"/>
<rect x="0.5" y="0.5" width="95" height="33" rx="14.5" stroke="white" stroke-opacity="0.05"/>
<path d="M38.8073 15.12C38.8073 15.4733 38.7239 15.8067 38.5573 16.12C38.3906 16.4333 38.1239 16.69 37.7573 16.89C37.3906 17.0833 36.9206 17.18 36.3473 17.18H35.0873V20H33.9473V13.05H36.3473C36.8806 13.05 37.3306 13.1433 37.6973 13.33C38.0706 13.51 38.3473 13.7567 38.5273 14.07C38.7139 14.3833 38.8073 14.7333 38.8073 15.12ZM36.3473 16.25C36.7806 16.25 37.1039 16.1533 37.3173 15.96C37.5306 15.76 37.6373 15.48 37.6373 15.12C37.6373 14.36 37.2073 13.98 36.3473 13.98H35.0873V16.25H36.3473ZM41.0345 19.08H43.3845V20H39.8945V13.05H41.0345V19.08ZM48.5279 18.58H45.6179L45.1179 20H43.9279L46.4179 13.04H47.7379L50.2279 20H49.0279L48.5279 18.58ZM48.2079 17.65L47.0779 14.42L45.9379 17.65H48.2079ZM57.0205 20H55.8805L52.4505 14.81V20H51.3105V13.04H52.4505L55.8805 18.22V13.04H57.0205V20ZM60.8076 20.07C60.3409 20.07 59.9209 19.99 59.5476 19.83C59.1742 19.6633 58.8809 19.43 58.6676 19.13C58.4542 18.83 58.3476 18.48 58.3476 18.08H59.5676C59.5942 18.38 59.7109 18.6267 59.9176 18.82C60.1309 19.0133 60.4276 19.11 60.8076 19.11C61.2009 19.11 61.5076 19.0167 61.7276 18.83C61.9476 18.6367 62.0576 18.39 62.0576 18.09C62.0576 17.8567 61.9876 17.6667 61.8476 17.52C61.7142 17.3733 61.5442 17.26 61.3376 17.18C61.1376 17.1 60.8576 17.0133 60.4976 16.92C60.0442 16.8 59.6742 16.68 59.3876 16.56C59.1076 16.4333 58.8676 16.24 58.6676 15.98C58.4676 15.72 58.3676 15.3733 58.3676 14.94C58.3676 14.54 58.4676 14.19 58.6676 13.89C58.8676 13.59 59.1476 13.36 59.5076 13.2C59.8676 13.04 60.2842 12.96 60.7576 12.96C61.4309 12.96 61.9809 13.13 62.4076 13.47C62.8409 13.8033 63.0809 14.2633 63.1276 14.85H61.8676C61.8476 14.5967 61.7276 14.38 61.5076 14.2C61.2876 14.02 60.9976 13.93 60.6376 13.93C60.3109 13.93 60.0442 14.0133 59.8376 14.18C59.6309 14.3467 59.5276 14.5867 59.5276 14.9C59.5276 15.1133 59.5909 15.29 59.7176 15.43C59.8509 15.5633 60.0176 15.67 60.2176 15.75C60.4176 15.83 60.6909 15.9167 61.0376 16.01C61.4976 16.1367 61.8709 16.2633 62.1576 16.39C62.4509 16.5167 62.6976 16.7133 62.8976 16.98C63.1042 17.24 63.2076 17.59 63.2076 18.03C63.2076 18.3833 63.1109 18.7167 62.9176 19.03C62.7309 19.3433 62.4542 19.5967 62.0876 19.79C61.7276 19.9767 61.3009 20.07 60.8076 20.07Z" fill="white"/>
<defs>
<linearGradient id="paint0_linear_123_55557" x1="0" y1="17" x2="96" y2="17" gradientUnits="userSpaceOnUse">
<stop stop-color="#8E8D8D"/>
<stop offset="1" stop-color="#282828"/>
</linearGradient>
</defs>
</svg>
