<svg width="348" height="72" viewBox="0 0 348 72" fill="none" xmlns="http://www.w3.org/2000/svg">
<path d="M5.01494 2.98V28H0.910938V2.98H5.01494ZM20.4111 7.84C21.9711 7.84 23.3631 8.164 24.5871 8.812C25.8351 9.46 26.8071 10.42 27.5031 11.692C28.1991 12.964 28.5471 14.5 28.5471 16.3V28H24.4791V16.912C24.4791 15.136 24.0351 13.78 23.1471 12.844C22.2591 11.884 21.0471 11.404 19.5111 11.404C17.9751 11.404 16.7511 11.884 15.8391 12.844C14.9511 13.78 14.5071 15.136 14.5071 16.912V28H10.4031V8.164H14.5071V10.432C15.1791 9.616 16.0311 8.98 17.0631 8.524C18.1191 8.068 19.2351 7.84 20.4111 7.84ZM43.79 7.84C45.35 7.84 46.742 8.164 47.966 8.812C49.214 9.46 50.186 10.42 50.882 11.692C51.578 12.964 51.926 14.5 51.926 16.3V28H47.858V16.912C47.858 15.136 47.414 13.78 46.526 12.844C45.638 11.884 44.426 11.404 42.89 11.404C41.354 11.404 40.13 11.884 39.218 12.844C38.33 13.78 37.886 15.136 37.886 16.912V28H33.782V8.164H37.886V10.432C38.558 9.616 39.41 8.98 40.442 8.524C41.498 8.068 42.614 7.84 43.79 7.84ZM65.7649 28.324C63.8929 28.324 62.2009 27.904 60.6889 27.064C59.1769 26.2 57.9889 25 57.1249 23.464C56.2609 21.904 55.8289 20.104 55.8289 18.064C55.8289 16.048 56.2729 14.26 57.1609 12.7C58.0489 11.14 59.2609 9.94 60.7969 9.1C62.3329 8.26 64.0489 7.84 65.9449 7.84C67.8409 7.84 69.5569 8.26 71.0929 9.1C72.6289 9.94 73.8409 11.14 74.7289 12.7C75.6169 14.26 76.0609 16.048 76.0609 18.064C76.0609 20.08 75.6049 21.868 74.6929 23.428C73.7809 24.988 72.5329 26.2 70.9489 27.064C69.3889 27.904 67.6609 28.324 65.7649 28.324ZM65.7649 24.76C66.8209 24.76 67.8049 24.508 68.7169 24.004C69.6529 23.5 70.4089 22.744 70.9849 21.736C71.5609 20.728 71.8489 19.504 71.8489 18.064C71.8489 16.624 71.5729 15.412 71.0209 14.428C70.4689 13.42 69.7369 12.664 68.8249 12.16C67.9129 11.656 66.9289 11.404 65.8729 11.404C64.8169 11.404 63.8329 11.656 62.9209 12.16C62.0329 12.664 61.3249 13.42 60.7969 14.428C60.2689 15.412 60.0049 16.624 60.0049 18.064C60.0049 20.2 60.5449 21.856 61.6249 23.032C62.7289 24.184 64.1089 24.76 65.7649 24.76ZM87.786 24.328L93.402 8.164H97.758L90.198 28H85.302L77.778 8.164H82.17L87.786 24.328ZM99.4922 17.992C99.4922 16 99.9002 14.236 100.716 12.7C101.556 11.164 102.684 9.976 104.1 9.136C105.54 8.272 107.124 7.84 108.852 7.84C110.412 7.84 111.768 8.152 112.92 8.776C114.096 9.376 115.032 10.132 115.728 11.044V8.164H119.868V28H115.728V25.048C115.032 25.984 114.084 26.764 112.884 27.388C111.684 28.012 110.316 28.324 108.78 28.324C107.076 28.324 105.516 27.892 104.1 27.028C102.684 26.14 101.556 24.916 100.716 23.356C99.9002 21.772 99.4922 19.984 99.4922 17.992ZM115.728 18.064C115.728 16.696 115.44 15.508 114.864 14.5C114.312 13.492 113.58 12.724 112.668 12.196C111.756 11.668 110.772 11.404 109.716 11.404C108.66 11.404 107.676 11.668 106.764 12.196C105.852 12.7 105.108 13.456 104.532 14.464C103.98 15.448 103.704 16.624 103.704 17.992C103.704 19.36 103.98 20.56 104.532 21.592C105.108 22.624 105.852 23.416 106.764 23.968C107.7 24.496 108.684 24.76 109.716 24.76C110.772 24.76 111.756 24.496 112.668 23.968C113.58 23.44 114.312 22.672 114.864 21.664C115.44 20.632 115.728 19.432 115.728 18.064ZM130.047 11.512V22.492C130.047 23.236 130.215 23.776 130.551 24.112C130.911 24.424 131.511 24.58 132.351 24.58H134.871V28H131.631C129.783 28 128.367 27.568 127.383 26.704C126.399 25.84 125.907 24.436 125.907 22.492V11.512H123.567V8.164H125.907V3.232H130.047V8.164H134.871V11.512H130.047ZM140.741 5.536C139.997 5.536 139.373 5.284 138.869 4.78C138.365 4.276 138.113 3.652 138.113 2.908C138.113 2.164 138.365 1.54 138.869 1.036C139.373 0.531999 139.997 0.279999 140.741 0.279999C141.461 0.279999 142.073 0.531999 142.577 1.036C143.081 1.54 143.333 2.164 143.333 2.908C143.333 3.652 143.081 4.276 142.577 4.78C142.073 5.284 141.461 5.536 140.741 5.536ZM142.757 8.164V28H138.653V8.164H142.757ZM155.813 24.328L161.429 8.164H165.785L158.225 28H153.329L145.805 8.164H150.197L155.813 24.328ZM187.068 17.596C187.068 18.34 187.02 19.012 186.924 19.612H171.768C171.888 21.196 172.476 22.468 173.532 23.428C174.588 24.388 175.884 24.868 177.42 24.868C179.628 24.868 181.188 23.944 182.1 22.096H186.527C185.928 23.92 184.836 25.42 183.252 26.596C181.692 27.748 179.748 28.324 177.42 28.324C175.524 28.324 173.82 27.904 172.308 27.064C170.82 26.2 169.644 25 168.78 23.464C167.94 21.904 167.52 20.104 167.52 18.064C167.52 16.024 167.928 14.236 168.744 12.7C169.584 11.14 170.748 9.94 172.236 9.1C173.748 8.26 175.476 7.84 177.42 7.84C179.292 7.84 180.96 8.248 182.424 9.064C183.888 9.88 185.028 11.032 185.844 12.52C186.66 13.984 187.068 15.676 187.068 17.596ZM182.784 16.3C182.76 14.788 182.22 13.576 181.164 12.664C180.108 11.752 178.8 11.296 177.24 11.296C175.824 11.296 174.612 11.752 173.604 12.664C172.596 13.552 171.996 14.764 171.804 16.3H182.784ZM208.702 28.252C207.022 28.252 205.51 27.964 204.166 27.388C202.822 26.788 201.766 25.948 200.998 24.868C200.23 23.788 199.846 22.528 199.846 21.088H204.238C204.334 22.168 204.754 23.056 205.498 23.752C206.266 24.448 207.334 24.796 208.702 24.796C210.118 24.796 211.222 24.46 212.014 23.788C212.806 23.092 213.202 22.204 213.202 21.124C213.202 20.284 212.95 19.6 212.446 19.072C211.966 18.544 211.354 18.136 210.61 17.848C209.89 17.56 208.882 17.248 207.586 16.912C205.954 16.48 204.622 16.048 203.59 15.616C202.582 15.16 201.718 14.464 200.998 13.528C200.278 12.592 199.918 11.344 199.918 9.784C199.918 8.344 200.278 7.084 200.998 6.004C201.718 4.924 202.726 4.096 204.022 3.52C205.318 2.944 206.818 2.656 208.522 2.656C210.946 2.656 212.926 3.268 214.462 4.492C216.022 5.692 216.886 7.348 217.054 9.46H212.518C212.446 8.548 212.014 7.768 211.222 7.12C210.43 6.472 209.386 6.148 208.09 6.148C206.914 6.148 205.954 6.448 205.21 7.048C204.466 7.648 204.094 8.512 204.094 9.64C204.094 10.408 204.322 11.044 204.778 11.548C205.258 12.028 205.858 12.412 206.578 12.7C207.298 12.988 208.282 13.3 209.53 13.636C211.186 14.092 212.53 14.548 213.562 15.004C214.618 15.46 215.506 16.168 216.226 17.128C216.97 18.064 217.342 19.324 217.342 20.908C217.342 22.18 216.994 23.38 216.298 24.508C215.626 25.636 214.63 26.548 213.31 27.244C212.014 27.916 210.478 28.252 208.702 28.252ZM240.364 17.596C240.364 18.34 240.316 19.012 240.22 19.612H225.064C225.184 21.196 225.772 22.468 226.828 23.428C227.884 24.388 229.18 24.868 230.716 24.868C232.924 24.868 234.484 23.944 235.396 22.096H239.824C239.224 23.92 238.132 25.42 236.548 26.596C234.988 27.748 233.044 28.324 230.716 28.324C228.82 28.324 227.116 27.904 225.604 27.064C224.116 26.2 222.94 25 222.076 23.464C221.236 21.904 220.816 20.104 220.816 18.064C220.816 16.024 221.224 14.236 222.04 12.7C222.88 11.14 224.044 9.94 225.532 9.1C227.044 8.26 228.772 7.84 230.716 7.84C232.588 7.84 234.256 8.248 235.72 9.064C237.184 9.88 238.324 11.032 239.14 12.52C239.956 13.984 240.364 15.676 240.364 17.596ZM236.08 16.3C236.056 14.788 235.516 13.576 234.46 12.664C233.404 11.752 232.096 11.296 230.536 11.296C229.12 11.296 227.908 11.752 226.9 12.664C225.892 13.552 225.292 14.764 225.1 16.3H236.08ZM248.507 11.044C249.107 10.036 249.899 9.256 250.883 8.704C251.891 8.128 253.079 7.84 254.447 7.84V12.088H253.403C251.795 12.088 250.571 12.496 249.731 13.312C248.915 14.128 248.507 15.544 248.507 17.56V28H244.403V8.164H248.507V11.044ZM265.888 24.328L271.504 8.164H275.86L268.3 28H263.404L255.88 8.164H260.272L265.888 24.328ZM281.05 5.536C280.306 5.536 279.682 5.284 279.178 4.78C278.674 4.276 278.422 3.652 278.422 2.908C278.422 2.164 278.674 1.54 279.178 1.036C279.682 0.531999 280.306 0.279999 281.05 0.279999C281.77 0.279999 282.382 0.531999 282.886 1.036C283.39 1.54 283.642 2.164 283.642 2.908C283.642 3.652 283.39 4.276 282.886 4.78C282.382 5.284 281.77 5.536 281.05 5.536ZM283.066 8.164V28H278.962V8.164H283.066ZM287.086 18.064C287.086 16.024 287.494 14.236 288.31 12.7C289.15 11.14 290.302 9.94 291.766 9.1C293.23 8.26 294.91 7.84 296.806 7.84C299.206 7.84 301.186 8.416 302.746 9.568C304.33 10.696 305.398 12.316 305.95 14.428H301.522C301.162 13.444 300.586 12.676 299.794 12.124C299.002 11.572 298.006 11.296 296.806 11.296C295.126 11.296 293.782 11.896 292.774 13.096C291.79 14.272 291.298 15.928 291.298 18.064C291.298 20.2 291.79 21.868 292.774 23.068C293.782 24.268 295.126 24.868 296.806 24.868C299.182 24.868 300.754 23.824 301.522 21.736H305.95C305.374 23.752 304.294 25.36 302.71 26.56C301.126 27.736 299.158 28.324 296.806 28.324C294.91 28.324 293.23 27.904 291.766 27.064C290.302 26.2 289.15 25 288.31 23.464C287.494 21.904 287.086 20.104 287.086 18.064ZM328.22 17.596C328.22 18.34 328.172 19.012 328.076 19.612H312.92C313.04 21.196 313.628 22.468 314.684 23.428C315.74 24.388 317.036 24.868 318.572 24.868C320.78 24.868 322.34 23.944 323.252 22.096H327.68C327.08 23.92 325.988 25.42 324.404 26.596C322.844 27.748 320.9 28.324 318.572 28.324C316.676 28.324 314.972 27.904 313.46 27.064C311.972 26.2 310.796 25 309.932 23.464C309.092 21.904 308.672 20.104 308.672 18.064C308.672 16.024 309.08 14.236 309.896 12.7C310.736 11.14 311.9 9.94 313.388 9.1C314.9 8.26 316.628 7.84 318.572 7.84C320.444 7.84 322.112 8.248 323.576 9.064C325.04 9.88 326.18 11.032 326.996 12.52C327.812 13.984 328.22 15.676 328.22 17.596ZM323.936 16.3C323.912 14.788 323.372 13.576 322.316 12.664C321.26 11.752 319.952 11.296 318.392 11.296C316.976 11.296 315.764 11.752 314.756 12.664C313.748 13.552 313.148 14.764 312.956 16.3H323.936ZM339.459 28.324C337.899 28.324 336.495 28.048 335.247 27.496C334.023 26.92 333.051 26.152 332.331 25.192C331.611 24.208 331.227 23.116 331.179 21.916H335.427C335.499 22.756 335.895 23.464 336.615 24.04C337.359 24.592 338.283 24.868 339.387 24.868C340.539 24.868 341.427 24.652 342.051 24.22C342.699 23.764 343.023 23.188 343.023 22.492C343.023 21.748 342.663 21.196 341.943 20.836C341.247 20.476 340.131 20.08 338.595 19.648C337.107 19.24 335.895 18.844 334.959 18.46C334.023 18.076 333.207 17.488 332.511 16.696C331.839 15.904 331.503 14.86 331.503 13.564C331.503 12.508 331.815 11.548 332.439 10.684C333.063 9.796 333.951 9.1 335.103 8.596C336.279 8.092 337.623 7.84 339.135 7.84C341.391 7.84 343.203 8.416 344.571 9.568C345.963 10.696 346.707 12.244 346.803 14.212H342.699C342.627 13.324 342.267 12.616 341.619 12.088C340.971 11.56 340.095 11.296 338.991 11.296C337.911 11.296 337.083 11.5 336.507 11.908C335.931 12.316 335.643 12.856 335.643 13.528C335.643 14.056 335.835 14.5 336.219 14.86C336.603 15.22 337.071 15.508 337.623 15.724C338.175 15.916 338.991 16.168 340.071 16.48C341.511 16.864 342.687 17.26 343.599 17.668C344.535 18.052 345.339 18.628 346.011 19.396C346.683 20.164 347.031 21.184 347.055 22.456C347.055 23.584 346.743 24.592 346.119 25.48C345.495 26.368 344.607 27.064 343.455 27.568C342.327 28.072 340.995 28.324 339.459 28.324Z" fill="white"/>
<path d="M89.9281 54.512H86.2561V71H82.1161V54.512H79.7761V51.164H82.1161V49.76C82.1161 47.48 82.7161 45.824 83.9161 44.792C85.1401 43.736 87.0481 43.208 89.6401 43.208V46.628C88.3921 46.628 87.5161 46.868 87.0121 47.348C86.5081 47.804 86.2561 48.608 86.2561 49.76V51.164H89.9281V54.512ZM102.169 71.324C100.297 71.324 98.6052 70.904 97.0932 70.064C95.5812 69.2 94.3932 68 93.5292 66.464C92.6652 64.904 92.2332 63.104 92.2332 61.064C92.2332 59.048 92.6772 57.26 93.5652 55.7C94.4532 54.14 95.6652 52.94 97.2012 52.1C98.7372 51.26 100.453 50.84 102.349 50.84C104.245 50.84 105.961 51.26 107.497 52.1C109.033 52.94 110.245 54.14 111.133 55.7C112.021 57.26 112.465 59.048 112.465 61.064C112.465 63.08 112.009 64.868 111.097 66.428C110.185 67.988 108.937 69.2 107.353 70.064C105.793 70.904 104.065 71.324 102.169 71.324ZM102.169 67.76C103.225 67.76 104.209 67.508 105.121 67.004C106.057 66.5 106.813 65.744 107.389 64.736C107.965 63.728 108.253 62.504 108.253 61.064C108.253 59.624 107.977 58.412 107.425 57.428C106.873 56.42 106.141 55.664 105.229 55.16C104.317 54.656 103.333 54.404 102.277 54.404C101.221 54.404 100.237 54.656 99.3252 55.16C98.4372 55.664 97.7292 56.42 97.2012 57.428C96.6732 58.412 96.4092 59.624 96.4092 61.064C96.4092 63.2 96.9492 64.856 98.0292 66.032C99.1332 67.184 100.513 67.76 102.169 67.76ZM120.626 54.044C121.226 53.036 122.018 52.256 123.002 51.704C124.01 51.128 125.198 50.84 126.566 50.84V55.088H125.522C123.914 55.088 122.69 55.496 121.85 56.312C121.034 57.128 120.626 58.544 120.626 60.56V71H116.522V51.164H120.626V54.044ZM157.798 53.18C157.15 51.932 156.25 50.996 155.098 50.372C153.946 49.724 152.614 49.4 151.102 49.4C149.446 49.4 147.97 49.772 146.674 50.516C145.378 51.26 144.358 52.316 143.614 53.684C142.894 55.052 142.534 56.636 142.534 58.436C142.534 60.236 142.894 61.832 143.614 63.224C144.358 64.592 145.378 65.648 146.674 66.392C147.97 67.136 149.446 67.508 151.102 67.508C153.334 67.508 155.146 66.884 156.538 65.636C157.93 64.388 158.782 62.696 159.094 60.56H149.698V57.284H163.486V60.488C163.222 62.432 162.526 64.22 161.398 65.852C160.294 67.484 158.842 68.792 157.042 69.776C155.266 70.736 153.286 71.216 151.102 71.216C148.75 71.216 146.602 70.676 144.658 69.596C142.714 68.492 141.166 66.968 140.014 65.024C138.886 63.08 138.322 60.884 138.322 58.436C138.322 55.988 138.886 53.792 140.014 51.848C141.166 49.904 142.714 48.392 144.658 47.312C146.626 46.208 148.774 45.656 151.102 45.656C153.766 45.656 156.13 46.316 158.194 47.636C160.282 48.932 161.794 50.78 162.73 53.18H157.798ZM171.638 54.044C172.238 53.036 173.03 52.256 174.014 51.704C175.022 51.128 176.21 50.84 177.578 50.84V55.088H176.534C174.926 55.088 173.702 55.496 172.862 56.312C172.046 57.128 171.638 58.544 171.638 60.56V71H167.534V51.164H171.638V54.044ZM189.954 71.324C188.082 71.324 186.39 70.904 184.878 70.064C183.366 69.2 182.178 68 181.314 66.464C180.45 64.904 180.018 63.104 180.018 61.064C180.018 59.048 180.462 57.26 181.35 55.7C182.238 54.14 183.45 52.94 184.986 52.1C186.522 51.26 188.238 50.84 190.134 50.84C192.03 50.84 193.746 51.26 195.282 52.1C196.818 52.94 198.03 54.14 198.918 55.7C199.806 57.26 200.25 59.048 200.25 61.064C200.25 63.08 199.794 64.868 198.882 66.428C197.97 67.988 196.722 69.2 195.138 70.064C193.578 70.904 191.85 71.324 189.954 71.324ZM189.954 67.76C191.01 67.76 191.994 67.508 192.906 67.004C193.842 66.5 194.598 65.744 195.174 64.736C195.75 63.728 196.038 62.504 196.038 61.064C196.038 59.624 195.762 58.412 195.21 57.428C194.658 56.42 193.926 55.664 193.014 55.16C192.102 54.656 191.118 54.404 190.062 54.404C189.006 54.404 188.022 54.656 187.11 55.16C186.222 55.664 185.514 56.42 184.986 57.428C184.458 58.412 184.194 59.624 184.194 61.064C184.194 63.2 184.734 64.856 185.814 66.032C186.918 67.184 188.298 67.76 189.954 67.76ZM230.947 51.164L224.791 71H220.471L216.475 56.348L212.479 71H208.159L201.967 51.164H206.143L210.283 67.112L214.495 51.164H218.779L222.811 67.04L226.915 51.164H230.947ZM238.802 54.512V65.492C238.802 66.236 238.97 66.776 239.306 67.112C239.666 67.424 240.266 67.58 241.106 67.58H243.626V71H240.386C238.538 71 237.122 70.568 236.138 69.704C235.154 68.84 234.662 67.436 234.662 65.492V54.512H232.322V51.164H234.662V46.232H238.802V51.164H243.626V54.512H238.802ZM257.669 50.84C259.181 50.84 260.525 51.164 261.701 51.812C262.901 52.46 263.837 53.42 264.509 54.692C265.205 55.964 265.553 57.5 265.553 59.3V71H261.485V59.912C261.485 58.136 261.041 56.78 260.153 55.844C259.265 54.884 258.053 54.404 256.517 54.404C254.981 54.404 253.757 54.884 252.845 55.844C251.957 56.78 251.513 58.136 251.513 59.912V71H247.409V44.36H251.513V53.468C252.209 52.628 253.085 51.98 254.141 51.524C255.221 51.068 256.397 50.84 257.669 50.84Z" fill="white"/>
<path d="M89.9281 54.512H86.2561V71H82.1161V54.512H79.7761V51.164H82.1161V49.76C82.1161 47.48 82.7161 45.824 83.9161 44.792C85.1401 43.736 87.0481 43.208 89.6401 43.208V46.628C88.3921 46.628 87.5161 46.868 87.0121 47.348C86.5081 47.804 86.2561 48.608 86.2561 49.76V51.164H89.9281V54.512ZM102.169 71.324C100.297 71.324 98.6052 70.904 97.0932 70.064C95.5812 69.2 94.3932 68 93.5292 66.464C92.6652 64.904 92.2332 63.104 92.2332 61.064C92.2332 59.048 92.6772 57.26 93.5652 55.7C94.4532 54.14 95.6652 52.94 97.2012 52.1C98.7372 51.26 100.453 50.84 102.349 50.84C104.245 50.84 105.961 51.26 107.497 52.1C109.033 52.94 110.245 54.14 111.133 55.7C112.021 57.26 112.465 59.048 112.465 61.064C112.465 63.08 112.009 64.868 111.097 66.428C110.185 67.988 108.937 69.2 107.353 70.064C105.793 70.904 104.065 71.324 102.169 71.324ZM102.169 67.76C103.225 67.76 104.209 67.508 105.121 67.004C106.057 66.5 106.813 65.744 107.389 64.736C107.965 63.728 108.253 62.504 108.253 61.064C108.253 59.624 107.977 58.412 107.425 57.428C106.873 56.42 106.141 55.664 105.229 55.16C104.317 54.656 103.333 54.404 102.277 54.404C101.221 54.404 100.237 54.656 99.3252 55.16C98.4372 55.664 97.7292 56.42 97.2012 57.428C96.6732 58.412 96.4092 59.624 96.4092 61.064C96.4092 63.2 96.9492 64.856 98.0292 66.032C99.1332 67.184 100.513 67.76 102.169 67.76ZM120.626 54.044C121.226 53.036 122.018 52.256 123.002 51.704C124.01 51.128 125.198 50.84 126.566 50.84V55.088H125.522C123.914 55.088 122.69 55.496 121.85 56.312C121.034 57.128 120.626 58.544 120.626 60.56V71H116.522V51.164H120.626V54.044ZM157.798 53.18C157.15 51.932 156.25 50.996 155.098 50.372C153.946 49.724 152.614 49.4 151.102 49.4C149.446 49.4 147.97 49.772 146.674 50.516C145.378 51.26 144.358 52.316 143.614 53.684C142.894 55.052 142.534 56.636 142.534 58.436C142.534 60.236 142.894 61.832 143.614 63.224C144.358 64.592 145.378 65.648 146.674 66.392C147.97 67.136 149.446 67.508 151.102 67.508C153.334 67.508 155.146 66.884 156.538 65.636C157.93 64.388 158.782 62.696 159.094 60.56H149.698V57.284H163.486V60.488C163.222 62.432 162.526 64.22 161.398 65.852C160.294 67.484 158.842 68.792 157.042 69.776C155.266 70.736 153.286 71.216 151.102 71.216C148.75 71.216 146.602 70.676 144.658 69.596C142.714 68.492 141.166 66.968 140.014 65.024C138.886 63.08 138.322 60.884 138.322 58.436C138.322 55.988 138.886 53.792 140.014 51.848C141.166 49.904 142.714 48.392 144.658 47.312C146.626 46.208 148.774 45.656 151.102 45.656C153.766 45.656 156.13 46.316 158.194 47.636C160.282 48.932 161.794 50.78 162.73 53.18H157.798ZM171.638 54.044C172.238 53.036 173.03 52.256 174.014 51.704C175.022 51.128 176.21 50.84 177.578 50.84V55.088H176.534C174.926 55.088 173.702 55.496 172.862 56.312C172.046 57.128 171.638 58.544 171.638 60.56V71H167.534V51.164H171.638V54.044ZM189.954 71.324C188.082 71.324 186.39 70.904 184.878 70.064C183.366 69.2 182.178 68 181.314 66.464C180.45 64.904 180.018 63.104 180.018 61.064C180.018 59.048 180.462 57.26 181.35 55.7C182.238 54.14 183.45 52.94 184.986 52.1C186.522 51.26 188.238 50.84 190.134 50.84C192.03 50.84 193.746 51.26 195.282 52.1C196.818 52.94 198.03 54.14 198.918 55.7C199.806 57.26 200.25 59.048 200.25 61.064C200.25 63.08 199.794 64.868 198.882 66.428C197.97 67.988 196.722 69.2 195.138 70.064C193.578 70.904 191.85 71.324 189.954 71.324ZM189.954 67.76C191.01 67.76 191.994 67.508 192.906 67.004C193.842 66.5 194.598 65.744 195.174 64.736C195.75 63.728 196.038 62.504 196.038 61.064C196.038 59.624 195.762 58.412 195.21 57.428C194.658 56.42 193.926 55.664 193.014 55.16C192.102 54.656 191.118 54.404 190.062 54.404C189.006 54.404 188.022 54.656 187.11 55.16C186.222 55.664 185.514 56.42 184.986 57.428C184.458 58.412 184.194 59.624 184.194 61.064C184.194 63.2 184.734 64.856 185.814 66.032C186.918 67.184 188.298 67.76 189.954 67.76ZM230.947 51.164L224.791 71H220.471L216.475 56.348L212.479 71H208.159L201.967 51.164H206.143L210.283 67.112L214.495 51.164H218.779L222.811 67.04L226.915 51.164H230.947ZM238.802 54.512V65.492C238.802 66.236 238.97 66.776 239.306 67.112C239.666 67.424 240.266 67.58 241.106 67.58H243.626V71H240.386C238.538 71 237.122 70.568 236.138 69.704C235.154 68.84 234.662 67.436 234.662 65.492V54.512H232.322V51.164H234.662V46.232H238.802V51.164H243.626V54.512H238.802ZM257.669 50.84C259.181 50.84 260.525 51.164 261.701 51.812C262.901 52.46 263.837 53.42 264.509 54.692C265.205 55.964 265.553 57.5 265.553 59.3V71H261.485V59.912C261.485 58.136 261.041 56.78 260.153 55.844C259.265 54.884 258.053 54.404 256.517 54.404C254.981 54.404 253.757 54.884 252.845 55.844C251.957 56.78 251.513 58.136 251.513 59.912V71H247.409V44.36H251.513V53.468C252.209 52.628 253.085 51.98 254.141 51.524C255.221 51.068 256.397 50.84 257.669 50.84Z" fill="url(#paint0_linear_97_16453)"/>
<defs>
<linearGradient id="paint0_linear_97_16453" x1="-73" y1="35.5" x2="420" y2="35.5" gradientUnits="userSpaceOnUse">
<stop stop-color="#7687B5"/>
<stop offset="0.42" stop-color="#91B0FF"/>
<stop offset="1" stop-color="#E2E8F8"/>
</linearGradient>
</defs>
</svg>
