<svg width="329" height="81" viewBox="0 0 329 81" fill="none" xmlns="http://www.w3.org/2000/svg">
<path d="M17.5202 10.432C17.5202 11.704 17.2202 12.904 16.6202 14.032C16.0202 15.16 15.0602 16.084 13.7402 16.804C12.4202 17.5 10.7282 17.848 8.66422 17.848H4.12822V28H0.0242189V2.98H8.66422C10.5842 2.98 12.2042 3.316 13.5242 3.988C14.8682 4.636 15.8642 5.524 16.5122 6.652C17.1842 7.78 17.5202 9.04 17.5202 10.432ZM8.66422 14.5C10.2242 14.5 11.3882 14.152 12.1562 13.456C12.9242 12.736 13.3082 11.728 13.3082 10.432C13.3082 7.696 11.7602 6.328 8.66422 6.328H4.12822V14.5H8.66422ZM25.5384 11.044C26.1384 10.036 26.9304 9.256 27.9144 8.704C28.9224 8.128 30.1104 7.84 31.4784 7.84V12.088H30.4344C28.8264 12.088 27.6024 12.496 26.7624 13.312C25.9464 14.128 25.5384 15.544 25.5384 17.56V28H21.4344V8.164H25.5384V11.044ZM37.3388 5.536C36.5948 5.536 35.9708 5.284 35.4668 4.78C34.9628 4.276 34.7108 3.652 34.7108 2.908C34.7108 2.164 34.9628 1.54 35.4668 1.036C35.9708 0.531999 36.5948 0.279999 37.3388 0.279999C38.0588 0.279999 38.6708 0.531999 39.1748 1.036C39.6788 1.54 39.9308 2.164 39.9308 2.908C39.9308 3.652 39.6788 4.276 39.1748 4.78C38.6708 5.284 38.0588 5.536 37.3388 5.536ZM39.3548 8.164V28H35.2508V8.164H39.3548ZM43.375 18.064C43.375 16.024 43.783 14.236 44.599 12.7C45.439 11.14 46.591 9.94 48.055 9.1C49.519 8.26 51.199 7.84 53.095 7.84C55.495 7.84 57.475 8.416 59.035 9.568C60.619 10.696 61.687 12.316 62.239 14.428H57.811C57.451 13.444 56.875 12.676 56.083 12.124C55.291 11.572 54.295 11.296 53.095 11.296C51.415 11.296 50.071 11.896 49.063 13.096C48.079 14.272 47.587 15.928 47.587 18.064C47.587 20.2 48.079 21.868 49.063 23.068C50.071 24.268 51.415 24.868 53.095 24.868C55.471 24.868 57.043 23.824 57.811 21.736H62.239C61.663 23.752 60.583 25.36 58.999 26.56C57.415 27.736 55.447 28.324 53.095 28.324C51.199 28.324 49.519 27.904 48.055 27.064C46.591 26.2 45.439 25 44.599 23.464C43.783 21.904 43.375 20.104 43.375 18.064ZM68.4169 5.536C67.6729 5.536 67.0489 5.284 66.5449 4.78C66.0409 4.276 65.7889 3.652 65.7889 2.908C65.7889 2.164 66.0409 1.54 66.5449 1.036C67.0489 0.531999 67.6729 0.279999 68.4169 0.279999C69.1369 0.279999 69.7489 0.531999 70.2529 1.036C70.7569 1.54 71.0089 2.164 71.0089 2.908C71.0089 3.652 70.7569 4.276 70.2529 4.78C69.7489 5.284 69.1369 5.536 68.4169 5.536ZM70.4329 8.164V28H66.3289V8.164H70.4329ZM85.8291 7.84C87.3891 7.84 88.7811 8.164 90.0051 8.812C91.2531 9.46 92.2251 10.42 92.9211 11.692C93.6171 12.964 93.9651 14.5 93.9651 16.3V28H89.8971V16.912C89.8971 15.136 89.4531 13.78 88.5651 12.844C87.6771 11.884 86.4651 11.404 84.9291 11.404C83.3931 11.404 82.1691 11.884 81.2571 12.844C80.3691 13.78 79.9251 15.136 79.9251 16.912V28H75.8211V8.164H79.9251V10.432C80.5971 9.616 81.4491 8.98 82.4811 8.524C83.5371 8.068 84.6531 7.84 85.8291 7.84ZM107.192 7.84C108.728 7.84 110.084 8.152 111.26 8.776C112.46 9.376 113.396 10.132 114.068 11.044V8.164H118.208V28.324C118.208 30.148 117.824 31.768 117.056 33.184C116.288 34.624 115.172 35.752 113.708 36.568C112.268 37.384 110.54 37.792 108.524 37.792C105.836 37.792 103.604 37.156 101.828 35.884C100.052 34.636 99.044 32.932 98.804 30.772H102.872C103.184 31.804 103.844 32.632 104.852 33.256C105.884 33.904 107.108 34.228 108.524 34.228C110.18 34.228 111.512 33.724 112.52 32.716C113.552 31.708 114.068 30.244 114.068 28.324V25.012C113.372 25.948 112.424 26.74 111.224 27.388C110.048 28.012 108.704 28.324 107.192 28.324C105.464 28.324 103.88 27.892 102.44 27.028C101.024 26.14 99.896 24.916 99.056 23.356C98.24 21.772 97.832 19.984 97.832 17.992C97.832 16 98.24 14.236 99.056 12.7C99.896 11.164 101.024 9.976 102.44 9.136C103.88 8.272 105.464 7.84 107.192 7.84ZM114.068 18.064C114.068 16.696 113.78 15.508 113.204 14.5C112.652 13.492 111.92 12.724 111.008 12.196C110.096 11.668 109.112 11.404 108.056 11.404C107 11.404 106.016 11.668 105.104 12.196C104.192 12.7 103.448 13.456 102.872 14.464C102.32 15.448 102.044 16.624 102.044 17.992C102.044 19.36 102.32 20.56 102.872 21.592C103.448 22.624 104.192 23.416 105.104 23.968C106.04 24.496 107.024 24.76 108.056 24.76C109.112 24.76 110.096 24.496 111.008 23.968C111.92 23.44 112.652 22.672 113.204 21.664C113.78 20.632 114.068 19.432 114.068 18.064ZM137.738 11.512V22.492C137.738 23.236 137.906 23.776 138.242 24.112C138.602 24.424 139.202 24.58 140.042 24.58H142.562V28H139.322C137.474 28 136.058 27.568 135.074 26.704C134.09 25.84 133.598 24.436 133.598 22.492V11.512H131.258V8.164H133.598V3.232H137.738V8.164H142.562V11.512H137.738ZM156.605 7.84C158.117 7.84 159.461 8.164 160.637 8.812C161.837 9.46 162.773 10.42 163.445 11.692C164.141 12.964 164.489 14.5 164.489 16.3V28H160.421V16.912C160.421 15.136 159.977 13.78 159.089 12.844C158.201 11.884 156.989 11.404 155.453 11.404C153.917 11.404 152.693 11.884 151.781 12.844C150.893 13.78 150.449 15.136 150.449 16.912V28H146.345V1.36H150.449V10.468C151.145 9.628 152.021 8.98 153.077 8.524C154.157 8.068 155.333 7.84 156.605 7.84ZM168.355 17.992C168.355 16 168.763 14.236 169.579 12.7C170.419 11.164 171.547 9.976 172.963 9.136C174.403 8.272 175.987 7.84 177.715 7.84C179.275 7.84 180.631 8.152 181.783 8.776C182.959 9.376 183.895 10.132 184.591 11.044V8.164H188.731V28H184.591V25.048C183.895 25.984 182.947 26.764 181.747 27.388C180.547 28.012 179.179 28.324 177.643 28.324C175.939 28.324 174.379 27.892 172.963 27.028C171.547 26.14 170.419 24.916 169.579 23.356C168.763 21.772 168.355 19.984 168.355 17.992ZM184.591 18.064C184.591 16.696 184.303 15.508 183.727 14.5C183.175 13.492 182.443 12.724 181.531 12.196C180.619 11.668 179.635 11.404 178.579 11.404C177.523 11.404 176.539 11.668 175.627 12.196C174.715 12.7 173.971 13.456 173.395 14.464C172.843 15.448 172.567 16.624 172.567 17.992C172.567 19.36 172.843 20.56 173.395 21.592C173.971 22.624 174.715 23.416 175.627 23.968C176.563 24.496 177.547 24.76 178.579 24.76C179.635 24.76 180.619 24.496 181.531 23.968C182.443 23.44 183.175 22.672 183.727 21.664C184.303 20.632 184.591 19.432 184.591 18.064ZM198.91 11.512V22.492C198.91 23.236 199.078 23.776 199.414 24.112C199.774 24.424 200.374 24.58 201.214 24.58H203.734V28H200.494C198.646 28 197.23 27.568 196.246 26.704C195.262 25.84 194.77 24.436 194.77 22.492V11.512H192.43V8.164H194.77V3.232H198.91V8.164H203.734V11.512H198.91ZM224.068 28.324C222.508 28.324 221.104 28.048 219.856 27.496C218.632 26.92 217.66 26.152 216.94 25.192C216.22 24.208 215.836 23.116 215.788 21.916H220.036C220.108 22.756 220.504 23.464 221.224 24.04C221.968 24.592 222.892 24.868 223.996 24.868C225.148 24.868 226.036 24.652 226.66 24.22C227.308 23.764 227.632 23.188 227.632 22.492C227.632 21.748 227.272 21.196 226.552 20.836C225.856 20.476 224.74 20.08 223.204 19.648C221.716 19.24 220.504 18.844 219.568 18.46C218.632 18.076 217.816 17.488 217.12 16.696C216.448 15.904 216.112 14.86 216.112 13.564C216.112 12.508 216.424 11.548 217.048 10.684C217.672 9.796 218.56 9.1 219.712 8.596C220.888 8.092 222.232 7.84 223.744 7.84C226 7.84 227.812 8.416 229.18 9.568C230.572 10.696 231.316 12.244 231.412 14.212H227.308C227.236 13.324 226.876 12.616 226.228 12.088C225.58 11.56 224.704 11.296 223.6 11.296C222.52 11.296 221.692 11.5 221.116 11.908C220.54 12.316 220.252 12.856 220.252 13.528C220.252 14.056 220.444 14.5 220.828 14.86C221.212 15.22 221.68 15.508 222.232 15.724C222.784 15.916 223.6 16.168 224.68 16.48C226.12 16.864 227.296 17.26 228.208 17.668C229.144 18.052 229.948 18.628 230.62 19.396C231.292 20.164 231.64 21.184 231.664 22.456C231.664 23.584 231.352 24.592 230.728 25.48C230.104 26.368 229.216 27.064 228.064 27.568C226.936 28.072 225.604 28.324 224.068 28.324ZM234.73 18.064C234.73 16.024 235.138 14.236 235.954 12.7C236.794 11.14 237.946 9.94 239.41 9.1C240.874 8.26 242.554 7.84 244.45 7.84C246.85 7.84 248.83 8.416 250.39 9.568C251.974 10.696 253.042 12.316 253.594 14.428H249.166C248.806 13.444 248.23 12.676 247.438 12.124C246.646 11.572 245.65 11.296 244.45 11.296C242.77 11.296 241.426 11.896 240.418 13.096C239.434 14.272 238.942 15.928 238.942 18.064C238.942 20.2 239.434 21.868 240.418 23.068C241.426 24.268 242.77 24.868 244.45 24.868C246.826 24.868 248.398 23.824 249.166 21.736H253.594C253.018 23.752 251.938 25.36 250.354 26.56C248.77 27.736 246.802 28.324 244.45 28.324C242.554 28.324 240.874 27.904 239.41 27.064C237.946 26.2 236.794 25 235.954 23.464C235.138 21.904 234.73 20.104 234.73 18.064ZM256.316 17.992C256.316 16 256.724 14.236 257.54 12.7C258.38 11.164 259.508 9.976 260.924 9.136C262.364 8.272 263.948 7.84 265.676 7.84C267.236 7.84 268.592 8.152 269.744 8.776C270.92 9.376 271.856 10.132 272.552 11.044V8.164H276.692V28H272.552V25.048C271.856 25.984 270.908 26.764 269.708 27.388C268.508 28.012 267.14 28.324 265.604 28.324C263.9 28.324 262.34 27.892 260.924 27.028C259.508 26.14 258.38 24.916 257.54 23.356C256.724 21.772 256.316 19.984 256.316 17.992ZM272.552 18.064C272.552 16.696 272.264 15.508 271.688 14.5C271.136 13.492 270.404 12.724 269.492 12.196C268.58 11.668 267.596 11.404 266.54 11.404C265.484 11.404 264.5 11.668 263.588 12.196C262.676 12.7 261.932 13.456 261.356 14.464C260.804 15.448 260.528 16.624 260.528 17.992C260.528 19.36 260.804 20.56 261.356 21.592C261.932 22.624 262.676 23.416 263.588 23.968C264.524 24.496 265.508 24.76 266.54 24.76C267.596 24.76 268.58 24.496 269.492 23.968C270.404 23.44 271.136 22.672 271.688 21.664C272.264 20.632 272.552 19.432 272.552 18.064ZM286.187 1.36V28H282.083V1.36H286.187ZM309.755 17.596C309.755 18.34 309.707 19.012 309.611 19.612H294.455C294.575 21.196 295.163 22.468 296.219 23.428C297.275 24.388 298.571 24.868 300.107 24.868C302.315 24.868 303.875 23.944 304.787 22.096H309.215C308.615 23.92 307.523 25.42 305.939 26.596C304.379 27.748 302.435 28.324 300.107 28.324C298.211 28.324 296.507 27.904 294.995 27.064C293.507 26.2 292.331 25 291.467 23.464C290.627 21.904 290.207 20.104 290.207 18.064C290.207 16.024 290.615 14.236 291.431 12.7C292.271 11.14 293.435 9.94 294.923 9.1C296.435 8.26 298.163 7.84 300.107 7.84C301.979 7.84 303.647 8.248 305.111 9.064C306.575 9.88 307.715 11.032 308.531 12.52C309.347 13.984 309.755 15.676 309.755 17.596ZM305.471 16.3C305.447 14.788 304.907 13.576 303.851 12.664C302.795 11.752 301.487 11.296 299.927 11.296C298.511 11.296 297.299 11.752 296.291 12.664C295.283 13.552 294.683 14.764 294.491 16.3H305.471ZM320.994 28.324C319.434 28.324 318.03 28.048 316.782 27.496C315.558 26.92 314.586 26.152 313.866 25.192C313.146 24.208 312.762 23.116 312.714 21.916H316.962C317.034 22.756 317.43 23.464 318.15 24.04C318.894 24.592 319.818 24.868 320.922 24.868C322.074 24.868 322.962 24.652 323.586 24.22C324.234 23.764 324.558 23.188 324.558 22.492C324.558 21.748 324.198 21.196 323.478 20.836C322.782 20.476 321.666 20.08 320.13 19.648C318.642 19.24 317.43 18.844 316.494 18.46C315.558 18.076 314.742 17.488 314.046 16.696C313.374 15.904 313.038 14.86 313.038 13.564C313.038 12.508 313.35 11.548 313.974 10.684C314.598 9.796 315.486 9.1 316.638 8.596C317.814 8.092 319.158 7.84 320.67 7.84C322.926 7.84 324.738 8.416 326.106 9.568C327.498 10.696 328.242 12.244 328.338 14.212H324.234C324.162 13.324 323.802 12.616 323.154 12.088C322.506 11.56 321.63 11.296 320.526 11.296C319.446 11.296 318.618 11.5 318.042 11.908C317.466 12.316 317.178 12.856 317.178 13.528C317.178 14.056 317.37 14.5 317.754 14.86C318.138 15.22 318.606 15.508 319.158 15.724C319.71 15.916 320.526 16.168 321.606 16.48C323.046 16.864 324.222 17.26 325.134 17.668C326.07 18.052 326.874 18.628 327.546 19.396C328.218 20.164 328.566 21.184 328.59 22.456C328.59 23.584 328.278 24.592 327.654 25.48C327.03 26.368 326.142 27.064 324.99 27.568C323.862 28.072 322.53 28.324 320.994 28.324Z" fill="white"/>
<path d="M121.533 51.164L115.377 71H111.057L107.061 56.348L103.065 71H98.7454L92.5534 51.164H96.7294L100.869 67.112L105.081 51.164H109.365L113.397 67.04L117.501 51.164H121.533ZM126.688 48.536C125.944 48.536 125.32 48.284 124.816 47.78C124.312 47.276 124.06 46.652 124.06 45.908C124.06 45.164 124.312 44.54 124.816 44.036C125.32 43.532 125.944 43.28 126.688 43.28C127.408 43.28 128.02 43.532 128.524 44.036C129.028 44.54 129.28 45.164 129.28 45.908C129.28 46.652 129.028 47.276 128.524 47.78C128.02 48.284 127.408 48.536 126.688 48.536ZM128.704 51.164V71H124.6V51.164H128.704ZM138.881 54.512V65.492C138.881 66.236 139.049 66.776 139.385 67.112C139.745 67.424 140.345 67.58 141.185 67.58H143.705V71H140.465C138.617 71 137.201 70.568 136.217 69.704C135.233 68.84 134.741 67.436 134.741 65.492V54.512H132.401V51.164H134.741V46.232H138.881V51.164H143.705V54.512H138.881ZM157.747 50.84C159.259 50.84 160.603 51.164 161.779 51.812C162.979 52.46 163.915 53.42 164.587 54.692C165.283 55.964 165.631 57.5 165.631 59.3V71H161.563V59.912C161.563 58.136 161.119 56.78 160.231 55.844C159.343 54.884 158.131 54.404 156.595 54.404C155.059 54.404 153.835 54.884 152.923 55.844C152.035 56.78 151.591 58.136 151.591 59.912V71H147.487V44.36H151.591V53.468C152.287 52.628 153.163 51.98 154.219 51.524C155.299 51.068 156.475 50.84 157.747 50.84ZM198.074 51.164L185.906 80.324H181.658L185.69 70.676L177.878 51.164H182.45L188.03 66.284L193.826 51.164H198.074ZM209.775 71.324C207.903 71.324 206.211 70.904 204.699 70.064C203.187 69.2 201.999 68 201.135 66.464C200.271 64.904 199.839 63.104 199.839 61.064C199.839 59.048 200.283 57.26 201.171 55.7C202.059 54.14 203.271 52.94 204.807 52.1C206.343 51.26 208.059 50.84 209.955 50.84C211.851 50.84 213.567 51.26 215.103 52.1C216.639 52.94 217.851 54.14 218.739 55.7C219.627 57.26 220.071 59.048 220.071 61.064C220.071 63.08 219.615 64.868 218.703 66.428C217.791 67.988 216.543 69.2 214.959 70.064C213.399 70.904 211.671 71.324 209.775 71.324ZM209.775 67.76C210.831 67.76 211.815 67.508 212.727 67.004C213.663 66.5 214.419 65.744 214.995 64.736C215.571 63.728 215.859 62.504 215.859 61.064C215.859 59.624 215.583 58.412 215.031 57.428C214.479 56.42 213.747 55.664 212.835 55.16C211.923 54.656 210.939 54.404 209.883 54.404C208.827 54.404 207.843 54.656 206.931 55.16C206.043 55.664 205.335 56.42 204.807 57.428C204.279 58.412 204.015 59.624 204.015 61.064C204.015 63.2 204.555 64.856 205.635 66.032C206.739 67.184 208.119 67.76 209.775 67.76ZM242.092 51.164V71H237.988V68.66C237.34 69.476 236.488 70.124 235.432 70.604C234.4 71.06 233.296 71.288 232.12 71.288C230.56 71.288 229.156 70.964 227.908 70.316C226.684 69.668 225.712 68.708 224.992 67.436C224.296 66.164 223.948 64.628 223.948 62.828V51.164H228.016V62.216C228.016 63.992 228.46 65.36 229.348 66.32C230.236 67.256 231.448 67.724 232.984 67.724C234.52 67.724 235.732 67.256 236.62 66.32C237.532 65.36 237.988 63.992 237.988 62.216V51.164H242.092Z" fill="white"/>
<path d="M121.533 51.164L115.377 71H111.057L107.061 56.348L103.065 71H98.7454L92.5534 51.164H96.7294L100.869 67.112L105.081 51.164H109.365L113.397 67.04L117.501 51.164H121.533ZM126.688 48.536C125.944 48.536 125.32 48.284 124.816 47.78C124.312 47.276 124.06 46.652 124.06 45.908C124.06 45.164 124.312 44.54 124.816 44.036C125.32 43.532 125.944 43.28 126.688 43.28C127.408 43.28 128.02 43.532 128.524 44.036C129.028 44.54 129.28 45.164 129.28 45.908C129.28 46.652 129.028 47.276 128.524 47.78C128.02 48.284 127.408 48.536 126.688 48.536ZM128.704 51.164V71H124.6V51.164H128.704ZM138.881 54.512V65.492C138.881 66.236 139.049 66.776 139.385 67.112C139.745 67.424 140.345 67.58 141.185 67.58H143.705V71H140.465C138.617 71 137.201 70.568 136.217 69.704C135.233 68.84 134.741 67.436 134.741 65.492V54.512H132.401V51.164H134.741V46.232H138.881V51.164H143.705V54.512H138.881ZM157.747 50.84C159.259 50.84 160.603 51.164 161.779 51.812C162.979 52.46 163.915 53.42 164.587 54.692C165.283 55.964 165.631 57.5 165.631 59.3V71H161.563V59.912C161.563 58.136 161.119 56.78 160.231 55.844C159.343 54.884 158.131 54.404 156.595 54.404C155.059 54.404 153.835 54.884 152.923 55.844C152.035 56.78 151.591 58.136 151.591 59.912V71H147.487V44.36H151.591V53.468C152.287 52.628 153.163 51.98 154.219 51.524C155.299 51.068 156.475 50.84 157.747 50.84ZM198.074 51.164L185.906 80.324H181.658L185.69 70.676L177.878 51.164H182.45L188.03 66.284L193.826 51.164H198.074ZM209.775 71.324C207.903 71.324 206.211 70.904 204.699 70.064C203.187 69.2 201.999 68 201.135 66.464C200.271 64.904 199.839 63.104 199.839 61.064C199.839 59.048 200.283 57.26 201.171 55.7C202.059 54.14 203.271 52.94 204.807 52.1C206.343 51.26 208.059 50.84 209.955 50.84C211.851 50.84 213.567 51.26 215.103 52.1C216.639 52.94 217.851 54.14 218.739 55.7C219.627 57.26 220.071 59.048 220.071 61.064C220.071 63.08 219.615 64.868 218.703 66.428C217.791 67.988 216.543 69.2 214.959 70.064C213.399 70.904 211.671 71.324 209.775 71.324ZM209.775 67.76C210.831 67.76 211.815 67.508 212.727 67.004C213.663 66.5 214.419 65.744 214.995 64.736C215.571 63.728 215.859 62.504 215.859 61.064C215.859 59.624 215.583 58.412 215.031 57.428C214.479 56.42 213.747 55.664 212.835 55.16C211.923 54.656 210.939 54.404 209.883 54.404C208.827 54.404 207.843 54.656 206.931 55.16C206.043 55.664 205.335 56.42 204.807 57.428C204.279 58.412 204.015 59.624 204.015 61.064C204.015 63.2 204.555 64.856 205.635 66.032C206.739 67.184 208.119 67.76 209.775 67.76ZM242.092 51.164V71H237.988V68.66C237.34 69.476 236.488 70.124 235.432 70.604C234.4 71.06 233.296 71.288 232.12 71.288C230.56 71.288 229.156 70.964 227.908 70.316C226.684 69.668 225.712 68.708 224.992 67.436C224.296 66.164 223.948 64.628 223.948 62.828V51.164H228.016V62.216C228.016 63.992 228.46 65.36 229.348 66.32C230.236 67.256 231.448 67.724 232.984 67.724C234.52 67.724 235.732 67.256 236.62 66.32C237.532 65.36 237.988 63.992 237.988 62.216V51.164H242.092Z" fill="url(#paint0_linear_90_15875)"/>
<defs>
<linearGradient id="paint0_linear_90_15875" x1="-78" y1="35.5" x2="415" y2="35.5" gradientUnits="userSpaceOnUse">
<stop stop-color="#7687B5"/>
<stop offset="0.42" stop-color="#91B0FF"/>
<stop offset="1" stop-color="#E2E8F8"/>
</linearGradient>
</defs>
</svg>
