<svg width="279" height="71" viewBox="0 0 279 71" fill="none" xmlns="http://www.w3.org/2000/svg">
<path d="M57.9578 1.98V5.328H51.2978V27H47.1938V5.328H40.4978V1.98H57.9578ZM66.2181 10.044C66.8181 9.036 67.6101 8.256 68.5941 7.704C69.6021 7.128 70.7901 6.84 72.1581 6.84V11.088H71.1141C69.5061 11.088 68.2821 11.496 67.4421 12.312C66.6261 13.128 66.2181 14.544 66.2181 16.56V27H62.1141V7.164H66.2181V10.044ZM93.8945 7.164V27H89.7905V24.66C89.1425 25.476 88.2905 26.124 87.2345 26.604C86.2025 27.06 85.0985 27.288 83.9225 27.288C82.3625 27.288 80.9585 26.964 79.7105 26.316C78.4865 25.668 77.5145 24.708 76.7945 23.436C76.0985 22.164 75.7505 20.628 75.7505 18.828V7.164H79.8185V18.216C79.8185 19.992 80.2625 21.36 81.1505 22.32C82.0385 23.256 83.2505 23.724 84.7865 23.724C86.3225 23.724 87.5345 23.256 88.4225 22.32C89.3345 21.36 89.7905 19.992 89.7905 18.216V7.164H93.8945ZM106.509 27.324C104.949 27.324 103.545 27.048 102.297 26.496C101.073 25.92 100.101 25.152 99.3814 24.192C98.6614 23.208 98.2774 22.116 98.2294 20.916H102.477C102.549 21.756 102.945 22.464 103.665 23.04C104.409 23.592 105.333 23.868 106.437 23.868C107.589 23.868 108.477 23.652 109.101 23.22C109.749 22.764 110.073 22.188 110.073 21.492C110.073 20.748 109.713 20.196 108.993 19.836C108.297 19.476 107.181 19.08 105.645 18.648C104.157 18.24 102.945 17.844 102.009 17.46C101.073 17.076 100.257 16.488 99.5614 15.696C98.8894 14.904 98.5534 13.86 98.5534 12.564C98.5534 11.508 98.8654 10.548 99.4894 9.684C100.113 8.796 101.001 8.1 102.153 7.596C103.329 7.092 104.673 6.84 106.185 6.84C108.441 6.84 110.253 7.416 111.621 8.568C113.013 9.696 113.757 11.244 113.853 13.212H109.749C109.677 12.324 109.317 11.616 108.669 11.088C108.021 10.56 107.145 10.296 106.041 10.296C104.961 10.296 104.133 10.5 103.557 10.908C102.981 11.316 102.693 11.856 102.693 12.528C102.693 13.056 102.885 13.5 103.269 13.86C103.653 14.22 104.121 14.508 104.673 14.724C105.225 14.916 106.041 15.168 107.121 15.48C108.561 15.864 109.737 16.26 110.649 16.668C111.585 17.052 112.389 17.628 113.061 18.396C113.733 19.164 114.081 20.184 114.105 21.456C114.105 22.584 113.793 23.592 113.169 24.48C112.545 25.368 111.657 26.064 110.505 26.568C109.377 27.072 108.045 27.324 106.509 27.324ZM123.328 10.512V21.492C123.328 22.236 123.496 22.776 123.832 23.112C124.192 23.424 124.792 23.58 125.632 23.58H128.152V27H124.912C123.064 27 121.648 26.568 120.664 25.704C119.68 24.84 119.188 23.436 119.188 21.492V10.512H116.848V7.164H119.188V2.232H123.328V7.164H128.152V10.512H123.328ZM150.114 16.596C150.114 17.34 150.066 18.012 149.97 18.612H134.814C134.934 20.196 135.522 21.468 136.578 22.428C137.634 23.388 138.93 23.868 140.466 23.868C142.674 23.868 144.234 22.944 145.146 21.096H149.574C148.974 22.92 147.882 24.42 146.298 25.596C144.738 26.748 142.794 27.324 140.466 27.324C138.57 27.324 136.866 26.904 135.354 26.064C133.866 25.2 132.69 24 131.826 22.464C130.986 20.904 130.566 19.104 130.566 17.064C130.566 15.024 130.974 13.236 131.79 11.7C132.63 10.14 133.794 8.94 135.282 8.1C136.794 7.26 138.522 6.84 140.466 6.84C142.338 6.84 144.006 7.248 145.47 8.064C146.934 8.88 148.074 10.032 148.89 11.52C149.706 12.984 150.114 14.676 150.114 16.596ZM145.83 15.3C145.806 13.788 145.266 12.576 144.21 11.664C143.154 10.752 141.846 10.296 140.286 10.296C138.87 10.296 137.658 10.752 136.65 11.664C135.642 12.552 135.042 13.764 134.85 15.3H145.83ZM152.785 16.992C152.785 15 153.193 13.236 154.009 11.7C154.849 10.164 155.977 8.976 157.393 8.136C158.833 7.272 160.429 6.84 162.181 6.84C163.477 6.84 164.749 7.128 165.997 7.704C167.269 8.256 168.277 9 169.021 9.936V0.36H173.161V27H169.021V24.012C168.349 24.972 167.413 25.764 166.213 26.388C165.037 27.012 163.681 27.324 162.145 27.324C160.417 27.324 158.833 26.892 157.393 26.028C155.977 25.14 154.849 23.916 154.009 22.356C153.193 20.772 152.785 18.984 152.785 16.992ZM169.021 17.064C169.021 15.696 168.733 14.508 168.157 13.5C167.605 12.492 166.873 11.724 165.961 11.196C165.049 10.668 164.065 10.404 163.009 10.404C161.953 10.404 160.969 10.668 160.057 11.196C159.145 11.7 158.401 12.456 157.825 13.464C157.273 14.448 156.997 15.624 156.997 16.992C156.997 18.36 157.273 19.56 157.825 20.592C158.401 21.624 159.145 22.416 160.057 22.968C160.993 23.496 161.977 23.76 163.009 23.76C164.065 23.76 165.049 23.496 165.961 22.968C166.873 22.44 167.605 21.672 168.157 20.664C168.733 19.632 169.021 18.432 169.021 17.064ZM192.007 10.116C192.703 9.156 193.651 8.376 194.851 7.776C196.075 7.152 197.431 6.84 198.919 6.84C200.671 6.84 202.255 7.26 203.671 8.1C205.087 8.94 206.203 10.14 207.019 11.7C207.835 13.236 208.243 15 208.243 16.992C208.243 18.984 207.835 20.772 207.019 22.356C206.203 23.916 205.075 25.14 203.635 26.028C202.219 26.892 200.647 27.324 198.919 27.324C197.383 27.324 196.015 27.024 194.815 26.424C193.639 25.824 192.703 25.056 192.007 24.12V27H187.903V0.36H192.007V10.116ZM204.067 16.992C204.067 15.624 203.779 14.448 203.203 13.464C202.651 12.456 201.907 11.7 200.971 11.196C200.059 10.668 199.075 10.404 198.019 10.404C196.987 10.404 196.003 10.668 195.067 11.196C194.155 11.724 193.411 12.492 192.835 13.5C192.283 14.508 192.007 15.696 192.007 17.064C192.007 18.432 192.283 19.632 192.835 20.664C193.411 21.672 194.155 22.44 195.067 22.968C196.003 23.496 196.987 23.76 198.019 23.76C199.075 23.76 200.059 23.496 200.971 22.968C201.907 22.416 202.651 21.624 203.203 20.592C203.779 19.56 204.067 18.36 204.067 16.992ZM230.158 7.164L217.99 36.324H213.742L217.774 26.676L209.962 7.164H214.534L220.114 22.284L225.91 7.164H230.158Z" fill="white"/>
<path d="M8.42344 70.324C6.86344 70.324 5.45944 70.048 4.21144 69.496C2.98744 68.92 2.01544 68.152 1.29544 67.192C0.575438 66.208 0.191438 65.116 0.143438 63.916H4.39144C4.46344 64.756 4.85944 65.464 5.57944 66.04C6.32344 66.592 7.24744 66.868 8.35144 66.868C9.50344 66.868 10.3914 66.652 11.0154 66.22C11.6634 65.764 11.9874 65.188 11.9874 64.492C11.9874 63.748 11.6274 63.196 10.9074 62.836C10.2114 62.476 9.09544 62.08 7.55944 61.648C6.07144 61.24 4.85944 60.844 3.92344 60.46C2.98744 60.076 2.17144 59.488 1.47544 58.696C0.803438 57.904 0.467438 56.86 0.467438 55.564C0.467438 54.508 0.779438 53.548 1.40344 52.684C2.02744 51.796 2.91544 51.1 4.06744 50.596C5.24344 50.092 6.58744 49.84 8.09944 49.84C10.3554 49.84 12.1674 50.416 13.5354 51.568C14.9274 52.696 15.6714 54.244 15.7674 56.212H11.6634C11.5914 55.324 11.2314 54.616 10.5834 54.088C9.93544 53.56 9.05944 53.296 7.95544 53.296C6.87544 53.296 6.04744 53.5 5.47144 53.908C4.89544 54.316 4.60744 54.856 4.60744 55.528C4.60744 56.056 4.79944 56.5 5.18344 56.86C5.56744 57.22 6.03544 57.508 6.58744 57.724C7.13944 57.916 7.95544 58.168 9.03544 58.48C10.4754 58.864 11.6514 59.26 12.5634 59.668C13.4994 60.052 14.3034 60.628 14.9754 61.396C15.6474 62.164 15.9954 63.184 16.0194 64.456C16.0194 65.584 15.7074 66.592 15.0834 67.48C14.4594 68.368 13.5714 69.064 12.4194 69.568C11.2914 70.072 9.95944 70.324 8.42344 70.324ZM19.0859 59.992C19.0859 58 19.4939 56.236 20.3099 54.7C21.1499 53.164 22.2779 51.976 23.6939 51.136C25.1339 50.272 26.7179 49.84 28.4459 49.84C30.0059 49.84 31.3619 50.152 32.5139 50.776C33.6899 51.376 34.6259 52.132 35.3219 53.044V50.164H39.4619V70H35.3219V67.048C34.6259 67.984 33.6779 68.764 32.4779 69.388C31.2779 70.012 29.9099 70.324 28.3739 70.324C26.6699 70.324 25.1099 69.892 23.6939 69.028C22.2779 68.14 21.1499 66.916 20.3099 65.356C19.4939 63.772 19.0859 61.984 19.0859 59.992ZM35.3219 60.064C35.3219 58.696 35.0339 57.508 34.4579 56.5C33.9059 55.492 33.1739 54.724 32.2619 54.196C31.3499 53.668 30.3659 53.404 29.3099 53.404C28.2539 53.404 27.2699 53.668 26.3579 54.196C25.4459 54.7 24.7019 55.456 24.1259 56.464C23.5739 57.448 23.2979 58.624 23.2979 59.992C23.2979 61.36 23.5739 62.56 24.1259 63.592C24.7019 64.624 25.4459 65.416 26.3579 65.968C27.2939 66.496 28.2779 66.76 29.3099 66.76C30.3659 66.76 31.3499 66.496 32.2619 65.968C33.1739 65.44 33.9059 64.672 34.4579 63.664C35.0339 62.632 35.3219 61.432 35.3219 60.064ZM49.6403 53.512V64.492C49.6403 65.236 49.8083 65.776 50.1443 66.112C50.5043 66.424 51.1043 66.58 51.9443 66.58H54.4643V70H51.2243C49.3763 70 47.9603 69.568 46.9763 68.704C45.9923 67.84 45.5003 66.436 45.5003 64.492V53.512H43.1603V50.164H45.5003V45.232H49.6403V50.164H54.4643V53.512H49.6403ZM60.3349 47.536C59.5909 47.536 58.9669 47.284 58.4629 46.78C57.9589 46.276 57.7069 45.652 57.7069 44.908C57.7069 44.164 57.9589 43.54 58.4629 43.036C58.9669 42.532 59.5909 42.28 60.3349 42.28C61.0549 42.28 61.6669 42.532 62.1709 43.036C62.6749 43.54 62.9269 44.164 62.9269 44.908C62.9269 45.652 62.6749 46.276 62.1709 46.78C61.6669 47.284 61.0549 47.536 60.3349 47.536ZM62.3509 50.164V70H58.2469V50.164H62.3509ZM74.9391 70.324C73.3791 70.324 71.9751 70.048 70.7271 69.496C69.5031 68.92 68.5311 68.152 67.8111 67.192C67.0911 66.208 66.7071 65.116 66.6591 63.916H70.9071C70.9791 64.756 71.3751 65.464 72.0951 66.04C72.8391 66.592 73.7631 66.868 74.8671 66.868C76.0191 66.868 76.9071 66.652 77.5311 66.22C78.1791 65.764 78.5031 65.188 78.5031 64.492C78.5031 63.748 78.1431 63.196 77.4231 62.836C76.7271 62.476 75.6111 62.08 74.0751 61.648C72.5871 61.24 71.3751 60.844 70.4391 60.46C69.5031 60.076 68.6871 59.488 67.9911 58.696C67.3191 57.904 66.9831 56.86 66.9831 55.564C66.9831 54.508 67.2951 53.548 67.9191 52.684C68.5431 51.796 69.4311 51.1 70.5831 50.596C71.7591 50.092 73.1031 49.84 74.6151 49.84C76.8711 49.84 78.6831 50.416 80.0511 51.568C81.4431 52.696 82.1871 54.244 82.2831 56.212H78.1791C78.1071 55.324 77.7471 54.616 77.0991 54.088C76.4511 53.56 75.5751 53.296 74.4711 53.296C73.3911 53.296 72.5631 53.5 71.9871 53.908C71.4111 54.316 71.1231 54.856 71.1231 55.528C71.1231 56.056 71.3151 56.5 71.6991 56.86C72.0831 57.22 72.5511 57.508 73.1031 57.724C73.6551 57.916 74.4711 58.168 75.5511 58.48C76.9911 58.864 78.1671 59.26 79.0791 59.668C80.0151 60.052 80.8191 60.628 81.4911 61.396C82.1631 62.164 82.5111 63.184 82.5351 64.456C82.5351 65.584 82.2231 66.592 81.5991 67.48C80.9751 68.368 80.0871 69.064 78.9351 69.568C77.8071 70.072 76.4751 70.324 74.9391 70.324ZM95.2855 53.512H91.6135V70H87.4735V53.512H85.1335V50.164H87.4735V48.76C87.4735 46.48 88.0735 44.824 89.2735 43.792C90.4975 42.736 92.4055 42.208 94.9975 42.208V45.628C93.7495 45.628 92.8735 45.868 92.3695 46.348C91.8655 46.804 91.6135 47.608 91.6135 48.76V50.164H95.2855V53.512ZM101.011 47.536C100.267 47.536 99.6427 47.284 99.1387 46.78C98.6347 46.276 98.3827 45.652 98.3827 44.908C98.3827 44.164 98.6347 43.54 99.1387 43.036C99.6427 42.532 100.267 42.28 101.011 42.28C101.731 42.28 102.343 42.532 102.847 43.036C103.351 43.54 103.603 44.164 103.603 44.908C103.603 45.652 103.351 46.276 102.847 46.78C102.343 47.284 101.731 47.536 101.011 47.536ZM103.027 50.164V70H98.9227V50.164H103.027ZM126.595 59.596C126.595 60.34 126.547 61.012 126.451 61.612H111.295C111.415 63.196 112.003 64.468 113.059 65.428C114.115 66.388 115.411 66.868 116.947 66.868C119.155 66.868 120.715 65.944 121.627 64.096H126.055C125.455 65.92 124.363 67.42 122.779 68.596C121.219 69.748 119.275 70.324 116.947 70.324C115.051 70.324 113.347 69.904 111.835 69.064C110.347 68.2 109.171 67 108.307 65.464C107.467 63.904 107.047 62.104 107.047 60.064C107.047 58.024 107.455 56.236 108.271 54.7C109.111 53.14 110.275 51.94 111.763 51.1C113.275 50.26 115.003 49.84 116.947 49.84C118.819 49.84 120.487 50.248 121.951 51.064C123.415 51.88 124.555 53.032 125.371 54.52C126.187 55.984 126.595 57.676 126.595 59.596ZM122.311 58.3C122.287 56.788 121.747 55.576 120.691 54.664C119.635 53.752 118.327 53.296 116.767 53.296C115.351 53.296 114.139 53.752 113.131 54.664C112.123 55.552 111.523 56.764 111.331 58.3H122.311ZM129.266 59.992C129.266 58 129.674 56.236 130.49 54.7C131.33 53.164 132.458 51.976 133.874 51.136C135.314 50.272 136.91 49.84 138.662 49.84C139.958 49.84 141.23 50.128 142.478 50.704C143.75 51.256 144.758 52 145.502 52.936V43.36H149.642V70H145.502V67.012C144.83 67.972 143.894 68.764 142.694 69.388C141.518 70.012 140.162 70.324 138.626 70.324C136.898 70.324 135.314 69.892 133.874 69.028C132.458 68.14 131.33 66.916 130.49 65.356C129.674 63.772 129.266 61.984 129.266 59.992ZM145.502 60.064C145.502 58.696 145.214 57.508 144.638 56.5C144.086 55.492 143.354 54.724 142.442 54.196C141.53 53.668 140.546 53.404 139.49 53.404C138.434 53.404 137.45 53.668 136.538 54.196C135.626 54.7 134.882 55.456 134.306 56.464C133.754 57.448 133.478 58.624 133.478 59.992C133.478 61.36 133.754 62.56 134.306 63.592C134.882 64.624 135.626 65.416 136.538 65.968C137.474 66.496 138.458 66.76 139.49 66.76C140.546 66.76 141.53 66.496 142.442 65.968C143.354 65.44 144.086 64.672 144.638 63.664C145.214 62.632 145.502 61.432 145.502 60.064ZM163.016 60.064C163.016 58.024 163.424 56.236 164.24 54.7C165.08 53.14 166.232 51.94 167.696 51.1C169.16 50.26 170.84 49.84 172.736 49.84C175.136 49.84 177.116 50.416 178.676 51.568C180.26 52.696 181.328 54.316 181.88 56.428H177.452C177.092 55.444 176.516 54.676 175.724 54.124C174.932 53.572 173.936 53.296 172.736 53.296C171.056 53.296 169.712 53.896 168.704 55.096C167.72 56.272 167.228 57.928 167.228 60.064C167.228 62.2 167.72 63.868 168.704 65.068C169.712 66.268 171.056 66.868 172.736 66.868C175.112 66.868 176.684 65.824 177.452 63.736H181.88C181.304 65.752 180.224 67.36 178.64 68.56C177.056 69.736 175.088 70.324 172.736 70.324C170.84 70.324 169.16 69.904 167.696 69.064C166.232 68.2 165.08 67 164.24 65.464C163.424 63.904 163.016 62.104 163.016 60.064ZM190.074 43.36V70H185.97V43.36H190.074ZM197.55 47.536C196.806 47.536 196.182 47.284 195.678 46.78C195.174 46.276 194.922 45.652 194.922 44.908C194.922 44.164 195.174 43.54 195.678 43.036C196.182 42.532 196.806 42.28 197.55 42.28C198.27 42.28 198.882 42.532 199.386 43.036C199.89 43.54 200.142 44.164 200.142 44.908C200.142 45.652 199.89 46.276 199.386 46.78C198.882 47.284 198.27 47.536 197.55 47.536ZM199.566 50.164V70H195.462V50.164H199.566ZM223.134 59.596C223.134 60.34 223.086 61.012 222.99 61.612H207.834C207.954 63.196 208.542 64.468 209.598 65.428C210.654 66.388 211.95 66.868 213.486 66.868C215.694 66.868 217.254 65.944 218.166 64.096H222.594C221.994 65.92 220.902 67.42 219.318 68.596C217.758 69.748 215.814 70.324 213.486 70.324C211.59 70.324 209.886 69.904 208.374 69.064C206.886 68.2 205.71 67 204.846 65.464C204.006 63.904 203.586 62.104 203.586 60.064C203.586 58.024 203.994 56.236 204.81 54.7C205.65 53.14 206.814 51.94 208.302 51.1C209.814 50.26 211.542 49.84 213.486 49.84C215.358 49.84 217.026 50.248 218.49 51.064C219.954 51.88 221.094 53.032 221.91 54.52C222.726 55.984 223.134 57.676 223.134 59.596ZM218.85 58.3C218.826 56.788 218.286 55.576 217.23 54.664C216.174 53.752 214.866 53.296 213.306 53.296C211.89 53.296 210.678 53.752 209.67 54.664C208.662 55.552 208.062 56.764 207.87 58.3H218.85ZM237.181 49.84C238.741 49.84 240.133 50.164 241.357 50.812C242.605 51.46 243.577 52.42 244.273 53.692C244.969 54.964 245.317 56.5 245.317 58.3V70H241.249V58.912C241.249 57.136 240.805 55.78 239.917 54.844C239.029 53.884 237.817 53.404 236.281 53.404C234.745 53.404 233.521 53.884 232.609 54.844C231.721 55.78 231.277 57.136 231.277 58.912V70H227.173V50.164H231.277V52.432C231.949 51.616 232.801 50.98 233.833 50.524C234.889 50.068 236.005 49.84 237.181 49.84ZM255.34 53.512V64.492C255.34 65.236 255.508 65.776 255.844 66.112C256.204 66.424 256.804 66.58 257.644 66.58H260.164V70H256.924C255.076 70 253.66 69.568 252.676 68.704C251.692 67.84 251.2 66.436 251.2 64.492V53.512H248.86V50.164H251.2V45.232H255.34V50.164H260.164V53.512H255.34ZM271.146 70.324C269.586 70.324 268.182 70.048 266.934 69.496C265.71 68.92 264.738 68.152 264.018 67.192C263.298 66.208 262.914 65.116 262.866 63.916H267.114C267.186 64.756 267.582 65.464 268.302 66.04C269.046 66.592 269.97 66.868 271.074 66.868C272.226 66.868 273.114 66.652 273.738 66.22C274.386 65.764 274.71 65.188 274.71 64.492C274.71 63.748 274.35 63.196 273.63 62.836C272.934 62.476 271.818 62.08 270.282 61.648C268.794 61.24 267.582 60.844 266.646 60.46C265.71 60.076 264.894 59.488 264.198 58.696C263.526 57.904 263.19 56.86 263.19 55.564C263.19 54.508 263.502 53.548 264.126 52.684C264.75 51.796 265.638 51.1 266.79 50.596C267.966 50.092 269.31 49.84 270.822 49.84C273.078 49.84 274.89 50.416 276.258 51.568C277.65 52.696 278.394 54.244 278.49 56.212H274.386C274.314 55.324 273.954 54.616 273.306 54.088C272.658 53.56 271.782 53.296 270.678 53.296C269.598 53.296 268.77 53.5 268.194 53.908C267.618 54.316 267.33 54.856 267.33 55.528C267.33 56.056 267.522 56.5 267.906 56.86C268.29 57.22 268.758 57.508 269.31 57.724C269.862 57.916 270.678 58.168 271.758 58.48C273.198 58.864 274.374 59.26 275.286 59.668C276.222 60.052 277.026 60.628 277.698 61.396C278.37 62.164 278.718 63.184 278.742 64.456C278.742 65.584 278.43 66.592 277.806 67.48C277.182 68.368 276.294 69.064 275.142 69.568C274.014 70.072 272.682 70.324 271.146 70.324Z" fill="white"/>
<path d="M8.42344 70.324C6.86344 70.324 5.45944 70.048 4.21144 69.496C2.98744 68.92 2.01544 68.152 1.29544 67.192C0.575438 66.208 0.191438 65.116 0.143438 63.916H4.39144C4.46344 64.756 4.85944 65.464 5.57944 66.04C6.32344 66.592 7.24744 66.868 8.35144 66.868C9.50344 66.868 10.3914 66.652 11.0154 66.22C11.6634 65.764 11.9874 65.188 11.9874 64.492C11.9874 63.748 11.6274 63.196 10.9074 62.836C10.2114 62.476 9.09544 62.08 7.55944 61.648C6.07144 61.24 4.85944 60.844 3.92344 60.46C2.98744 60.076 2.17144 59.488 1.47544 58.696C0.803438 57.904 0.467438 56.86 0.467438 55.564C0.467438 54.508 0.779438 53.548 1.40344 52.684C2.02744 51.796 2.91544 51.1 4.06744 50.596C5.24344 50.092 6.58744 49.84 8.09944 49.84C10.3554 49.84 12.1674 50.416 13.5354 51.568C14.9274 52.696 15.6714 54.244 15.7674 56.212H11.6634C11.5914 55.324 11.2314 54.616 10.5834 54.088C9.93544 53.56 9.05944 53.296 7.95544 53.296C6.87544 53.296 6.04744 53.5 5.47144 53.908C4.89544 54.316 4.60744 54.856 4.60744 55.528C4.60744 56.056 4.79944 56.5 5.18344 56.86C5.56744 57.22 6.03544 57.508 6.58744 57.724C7.13944 57.916 7.95544 58.168 9.03544 58.48C10.4754 58.864 11.6514 59.26 12.5634 59.668C13.4994 60.052 14.3034 60.628 14.9754 61.396C15.6474 62.164 15.9954 63.184 16.0194 64.456C16.0194 65.584 15.7074 66.592 15.0834 67.48C14.4594 68.368 13.5714 69.064 12.4194 69.568C11.2914 70.072 9.95944 70.324 8.42344 70.324ZM19.0859 59.992C19.0859 58 19.4939 56.236 20.3099 54.7C21.1499 53.164 22.2779 51.976 23.6939 51.136C25.1339 50.272 26.7179 49.84 28.4459 49.84C30.0059 49.84 31.3619 50.152 32.5139 50.776C33.6899 51.376 34.6259 52.132 35.3219 53.044V50.164H39.4619V70H35.3219V67.048C34.6259 67.984 33.6779 68.764 32.4779 69.388C31.2779 70.012 29.9099 70.324 28.3739 70.324C26.6699 70.324 25.1099 69.892 23.6939 69.028C22.2779 68.14 21.1499 66.916 20.3099 65.356C19.4939 63.772 19.0859 61.984 19.0859 59.992ZM35.3219 60.064C35.3219 58.696 35.0339 57.508 34.4579 56.5C33.9059 55.492 33.1739 54.724 32.2619 54.196C31.3499 53.668 30.3659 53.404 29.3099 53.404C28.2539 53.404 27.2699 53.668 26.3579 54.196C25.4459 54.7 24.7019 55.456 24.1259 56.464C23.5739 57.448 23.2979 58.624 23.2979 59.992C23.2979 61.36 23.5739 62.56 24.1259 63.592C24.7019 64.624 25.4459 65.416 26.3579 65.968C27.2939 66.496 28.2779 66.76 29.3099 66.76C30.3659 66.76 31.3499 66.496 32.2619 65.968C33.1739 65.44 33.9059 64.672 34.4579 63.664C35.0339 62.632 35.3219 61.432 35.3219 60.064ZM49.6403 53.512V64.492C49.6403 65.236 49.8083 65.776 50.1443 66.112C50.5043 66.424 51.1043 66.58 51.9443 66.58H54.4643V70H51.2243C49.3763 70 47.9603 69.568 46.9763 68.704C45.9923 67.84 45.5003 66.436 45.5003 64.492V53.512H43.1603V50.164H45.5003V45.232H49.6403V50.164H54.4643V53.512H49.6403ZM60.3349 47.536C59.5909 47.536 58.9669 47.284 58.4629 46.78C57.9589 46.276 57.7069 45.652 57.7069 44.908C57.7069 44.164 57.9589 43.54 58.4629 43.036C58.9669 42.532 59.5909 42.28 60.3349 42.28C61.0549 42.28 61.6669 42.532 62.1709 43.036C62.6749 43.54 62.9269 44.164 62.9269 44.908C62.9269 45.652 62.6749 46.276 62.1709 46.78C61.6669 47.284 61.0549 47.536 60.3349 47.536ZM62.3509 50.164V70H58.2469V50.164H62.3509ZM74.9391 70.324C73.3791 70.324 71.9751 70.048 70.7271 69.496C69.5031 68.92 68.5311 68.152 67.8111 67.192C67.0911 66.208 66.7071 65.116 66.6591 63.916H70.9071C70.9791 64.756 71.3751 65.464 72.0951 66.04C72.8391 66.592 73.7631 66.868 74.8671 66.868C76.0191 66.868 76.9071 66.652 77.5311 66.22C78.1791 65.764 78.5031 65.188 78.5031 64.492C78.5031 63.748 78.1431 63.196 77.4231 62.836C76.7271 62.476 75.6111 62.08 74.0751 61.648C72.5871 61.24 71.3751 60.844 70.4391 60.46C69.5031 60.076 68.6871 59.488 67.9911 58.696C67.3191 57.904 66.9831 56.86 66.9831 55.564C66.9831 54.508 67.2951 53.548 67.9191 52.684C68.5431 51.796 69.4311 51.1 70.5831 50.596C71.7591 50.092 73.1031 49.84 74.6151 49.84C76.8711 49.84 78.6831 50.416 80.0511 51.568C81.4431 52.696 82.1871 54.244 82.2831 56.212H78.1791C78.1071 55.324 77.7471 54.616 77.0991 54.088C76.4511 53.56 75.5751 53.296 74.4711 53.296C73.3911 53.296 72.5631 53.5 71.9871 53.908C71.4111 54.316 71.1231 54.856 71.1231 55.528C71.1231 56.056 71.3151 56.5 71.6991 56.86C72.0831 57.22 72.5511 57.508 73.1031 57.724C73.6551 57.916 74.4711 58.168 75.5511 58.48C76.9911 58.864 78.1671 59.26 79.0791 59.668C80.0151 60.052 80.8191 60.628 81.4911 61.396C82.1631 62.164 82.5111 63.184 82.5351 64.456C82.5351 65.584 82.2231 66.592 81.5991 67.48C80.9751 68.368 80.0871 69.064 78.9351 69.568C77.8071 70.072 76.4751 70.324 74.9391 70.324ZM95.2855 53.512H91.6135V70H87.4735V53.512H85.1335V50.164H87.4735V48.76C87.4735 46.48 88.0735 44.824 89.2735 43.792C90.4975 42.736 92.4055 42.208 94.9975 42.208V45.628C93.7495 45.628 92.8735 45.868 92.3695 46.348C91.8655 46.804 91.6135 47.608 91.6135 48.76V50.164H95.2855V53.512ZM101.011 47.536C100.267 47.536 99.6427 47.284 99.1387 46.78C98.6347 46.276 98.3827 45.652 98.3827 44.908C98.3827 44.164 98.6347 43.54 99.1387 43.036C99.6427 42.532 100.267 42.28 101.011 42.28C101.731 42.28 102.343 42.532 102.847 43.036C103.351 43.54 103.603 44.164 103.603 44.908C103.603 45.652 103.351 46.276 102.847 46.78C102.343 47.284 101.731 47.536 101.011 47.536ZM103.027 50.164V70H98.9227V50.164H103.027ZM126.595 59.596C126.595 60.34 126.547 61.012 126.451 61.612H111.295C111.415 63.196 112.003 64.468 113.059 65.428C114.115 66.388 115.411 66.868 116.947 66.868C119.155 66.868 120.715 65.944 121.627 64.096H126.055C125.455 65.92 124.363 67.42 122.779 68.596C121.219 69.748 119.275 70.324 116.947 70.324C115.051 70.324 113.347 69.904 111.835 69.064C110.347 68.2 109.171 67 108.307 65.464C107.467 63.904 107.047 62.104 107.047 60.064C107.047 58.024 107.455 56.236 108.271 54.7C109.111 53.14 110.275 51.94 111.763 51.1C113.275 50.26 115.003 49.84 116.947 49.84C118.819 49.84 120.487 50.248 121.951 51.064C123.415 51.88 124.555 53.032 125.371 54.52C126.187 55.984 126.595 57.676 126.595 59.596ZM122.311 58.3C122.287 56.788 121.747 55.576 120.691 54.664C119.635 53.752 118.327 53.296 116.767 53.296C115.351 53.296 114.139 53.752 113.131 54.664C112.123 55.552 111.523 56.764 111.331 58.3H122.311ZM129.266 59.992C129.266 58 129.674 56.236 130.49 54.7C131.33 53.164 132.458 51.976 133.874 51.136C135.314 50.272 136.91 49.84 138.662 49.84C139.958 49.84 141.23 50.128 142.478 50.704C143.75 51.256 144.758 52 145.502 52.936V43.36H149.642V70H145.502V67.012C144.83 67.972 143.894 68.764 142.694 69.388C141.518 70.012 140.162 70.324 138.626 70.324C136.898 70.324 135.314 69.892 133.874 69.028C132.458 68.14 131.33 66.916 130.49 65.356C129.674 63.772 129.266 61.984 129.266 59.992ZM145.502 60.064C145.502 58.696 145.214 57.508 144.638 56.5C144.086 55.492 143.354 54.724 142.442 54.196C141.53 53.668 140.546 53.404 139.49 53.404C138.434 53.404 137.45 53.668 136.538 54.196C135.626 54.7 134.882 55.456 134.306 56.464C133.754 57.448 133.478 58.624 133.478 59.992C133.478 61.36 133.754 62.56 134.306 63.592C134.882 64.624 135.626 65.416 136.538 65.968C137.474 66.496 138.458 66.76 139.49 66.76C140.546 66.76 141.53 66.496 142.442 65.968C143.354 65.44 144.086 64.672 144.638 63.664C145.214 62.632 145.502 61.432 145.502 60.064ZM163.016 60.064C163.016 58.024 163.424 56.236 164.24 54.7C165.08 53.14 166.232 51.94 167.696 51.1C169.16 50.26 170.84 49.84 172.736 49.84C175.136 49.84 177.116 50.416 178.676 51.568C180.26 52.696 181.328 54.316 181.88 56.428H177.452C177.092 55.444 176.516 54.676 175.724 54.124C174.932 53.572 173.936 53.296 172.736 53.296C171.056 53.296 169.712 53.896 168.704 55.096C167.72 56.272 167.228 57.928 167.228 60.064C167.228 62.2 167.72 63.868 168.704 65.068C169.712 66.268 171.056 66.868 172.736 66.868C175.112 66.868 176.684 65.824 177.452 63.736H181.88C181.304 65.752 180.224 67.36 178.64 68.56C177.056 69.736 175.088 70.324 172.736 70.324C170.84 70.324 169.16 69.904 167.696 69.064C166.232 68.2 165.08 67 164.24 65.464C163.424 63.904 163.016 62.104 163.016 60.064ZM190.074 43.36V70H185.97V43.36H190.074ZM197.55 47.536C196.806 47.536 196.182 47.284 195.678 46.78C195.174 46.276 194.922 45.652 194.922 44.908C194.922 44.164 195.174 43.54 195.678 43.036C196.182 42.532 196.806 42.28 197.55 42.28C198.27 42.28 198.882 42.532 199.386 43.036C199.89 43.54 200.142 44.164 200.142 44.908C200.142 45.652 199.89 46.276 199.386 46.78C198.882 47.284 198.27 47.536 197.55 47.536ZM199.566 50.164V70H195.462V50.164H199.566ZM223.134 59.596C223.134 60.34 223.086 61.012 222.99 61.612H207.834C207.954 63.196 208.542 64.468 209.598 65.428C210.654 66.388 211.95 66.868 213.486 66.868C215.694 66.868 217.254 65.944 218.166 64.096H222.594C221.994 65.92 220.902 67.42 219.318 68.596C217.758 69.748 215.814 70.324 213.486 70.324C211.59 70.324 209.886 69.904 208.374 69.064C206.886 68.2 205.71 67 204.846 65.464C204.006 63.904 203.586 62.104 203.586 60.064C203.586 58.024 203.994 56.236 204.81 54.7C205.65 53.14 206.814 51.94 208.302 51.1C209.814 50.26 211.542 49.84 213.486 49.84C215.358 49.84 217.026 50.248 218.49 51.064C219.954 51.88 221.094 53.032 221.91 54.52C222.726 55.984 223.134 57.676 223.134 59.596ZM218.85 58.3C218.826 56.788 218.286 55.576 217.23 54.664C216.174 53.752 214.866 53.296 213.306 53.296C211.89 53.296 210.678 53.752 209.67 54.664C208.662 55.552 208.062 56.764 207.87 58.3H218.85ZM237.181 49.84C238.741 49.84 240.133 50.164 241.357 50.812C242.605 51.46 243.577 52.42 244.273 53.692C244.969 54.964 245.317 56.5 245.317 58.3V70H241.249V58.912C241.249 57.136 240.805 55.78 239.917 54.844C239.029 53.884 237.817 53.404 236.281 53.404C234.745 53.404 233.521 53.884 232.609 54.844C231.721 55.78 231.277 57.136 231.277 58.912V70H227.173V50.164H231.277V52.432C231.949 51.616 232.801 50.98 233.833 50.524C234.889 50.068 236.005 49.84 237.181 49.84ZM255.34 53.512V64.492C255.34 65.236 255.508 65.776 255.844 66.112C256.204 66.424 256.804 66.58 257.644 66.58H260.164V70H256.924C255.076 70 253.66 69.568 252.676 68.704C251.692 67.84 251.2 66.436 251.2 64.492V53.512H248.86V50.164H251.2V45.232H255.34V50.164H260.164V53.512H255.34ZM271.146 70.324C269.586 70.324 268.182 70.048 266.934 69.496C265.71 68.92 264.738 68.152 264.018 67.192C263.298 66.208 262.914 65.116 262.866 63.916H267.114C267.186 64.756 267.582 65.464 268.302 66.04C269.046 66.592 269.97 66.868 271.074 66.868C272.226 66.868 273.114 66.652 273.738 66.22C274.386 65.764 274.71 65.188 274.71 64.492C274.71 63.748 274.35 63.196 273.63 62.836C272.934 62.476 271.818 62.08 270.282 61.648C268.794 61.24 267.582 60.844 266.646 60.46C265.71 60.076 264.894 59.488 264.198 58.696C263.526 57.904 263.19 56.86 263.19 55.564C263.19 54.508 263.502 53.548 264.126 52.684C264.75 51.796 265.638 51.1 266.79 50.596C267.966 50.092 269.31 49.84 270.822 49.84C273.078 49.84 274.89 50.416 276.258 51.568C277.65 52.696 278.394 54.244 278.49 56.212H274.386C274.314 55.324 273.954 54.616 273.306 54.088C272.658 53.56 271.782 53.296 270.678 53.296C269.598 53.296 268.77 53.5 268.194 53.908C267.618 54.316 267.33 54.856 267.33 55.528C267.33 56.056 267.522 56.5 267.906 56.86C268.29 57.22 268.758 57.508 269.31 57.724C269.862 57.916 270.678 58.168 271.758 58.48C273.198 58.864 274.374 59.26 275.286 59.668C276.222 60.052 277.026 60.628 277.698 61.396C278.37 62.164 278.718 63.184 278.742 64.456C278.742 65.584 278.43 66.592 277.806 67.48C277.182 68.368 276.294 69.064 275.142 69.568C274.014 70.072 272.682 70.324 271.146 70.324Z" fill="url(#paint0_linear_123_55954)"/>
<defs>
<linearGradient id="paint0_linear_123_55954" x1="-107" y1="34.5" x2="386" y2="34.5" gradientUnits="userSpaceOnUse">
<stop stop-color="#7687B5"/>
<stop offset="0.42" stop-color="#91B0FF"/>
<stop offset="1" stop-color="#E2E8F8"/>
</linearGradient>
</defs>
</svg>
